SplineFontDB: 3.2
FontName: SingScript.sg_math
FullName: SingScript.sg "math" module
FamilyName: SingScript.sg
Weight: Regular
Copyright: Copyright (c) 2025, 05524F.sg (Singapore)
Version: v2
ItalicAngle: 0
UnderlinePosition: -100
UnderlineWidth: 67
Ascent: 600
Descent: 300
InvalidEm: 0
sfntRevision: 0x00010000
LayerCount: 2
Layer: 0 0 "Back" 1
Layer: 1 0 "Fore" 0
XUID: [1021 768 647112374 32286]
StyleMap: 0x0040
FSType: 0
OS2Version: 4
OS2_WeightWidthSlopeOnly: 0
OS2_UseTypoMetrics: 1
CreationTime: 1740441635
ModificationTime: 1753793966
PfmFamily: 65
TTFWeight: 400
TTFWidth: 5
LineGap: 81
VLineGap: 0
Panose: 3 0 5 3 0 0 0 0 0 0
OS2TypoAscent: 600
OS2TypoAOffset: 0
OS2TypoDescent: -300
OS2TypoDOffset: 0
OS2TypoLinegap: 81
OS2WinAscent: 590
OS2WinAOffset: 0
OS2WinDescent: 233
OS2WinDOffset: 0
HheadAscent: 590
HheadAOffset: 0
HheadDescent: -233
HheadDOffset: 0
OS2SubXSize: 585
OS2SubYSize: 630
OS2SubXOff: 0
OS2SubYOff: 126
OS2SupXSize: 585
OS2SupYSize: 630
OS2SupXOff: 0
OS2SupYOff: 432
OS2StrikeYSize: 44
OS2StrikeYPos: 232
OS2CapHeight: 467
OS2XHeight: 300
OS2Vendor: '5524'
OS2CodePages: 00000001.00000000
OS2UnicodeRanges: 80000003.10000000.00000000.00000000
MarkAttachClasses: 1
DEI: 91125
LangName: 1033 "" "" "" "" "" "Version v2"
Encoding: Custom
UnicodeInterp: none
NameList: AGL For New Fonts
DisplaySize: -48
AntiAlias: 1
FitToEm: 0
WidthSeparation: 50
WinInfo: 27 27 9
BeginPrivate: 6
BlueValues 21 [0 0 300 300 467 467]
OtherBlues 11 [-233 -233]
StdHW 4 [67]
StdVW 4 [67]
StemSnapH 33 [52 59 63 67 73 78 86 93 159 167]
StemSnapV 4 [67]
EndPrivate
Grid
0 -50 m 28
 351 -50 549 -50 900 -50 c 1052
0 -83 m 28
 351 -83 549 -83 900 -83 c 1052
0 349 m 24
 349 349 549 349 900 349 c 1048
0 383 m 24
 350 383 549 383 900 383 c 1048
0 -200 m 24
 351 -200 549 -200 900 -200 c 1048
0 -233 m 24
 351 -233 549 -233 900 -233 c 1048
250 211 m 24
 289 211 311 211 350 211 c 1048
250 100 m 24
 289 100 311 100 350 100 c 1048
250 -100 m 24
 289 -100 311 -100 350 -100 c 1048
250 -255 m 24

StartChar: universal
Encoding: 0 8704 0
Width: 419
VWidth: 0
Flags: HW
LayerCount: 2
Fore
SplineSet
176.135742188 124.287109375 m 1
 181.497070312 96.8037109375 185.55078125 71.2333984375 189.05859375 48.8642578125 c 1
 207.646484375 109.206054688 207.646484375 109.206054688 214.33203125 129.598632812 c 1
 212.44921875 129.65625 210.662109375 129.686523438 208.963867188 129.686523438 c 0
 196.383789062 129.686523438 188.02734375 128.71875 176.135742188 124.287109375 c 1
25 349.068359375 m 0
 25 367.556640625 40.009765625 382.567382812 58.498046875 382.567382812 c 0
 70.2998046875 382.567382812 80.6845703125 376.451171875 86.6962890625 367.150390625 c 0
 122.977539062 311.017578125 145.865234375 248.49609375 161.321289062 189.657226562 c 1
 176.010742188 194.096679688 206.245117188 196.66796875 208.963867188 196.686523438 c 0
 218.112304688 196.747070312 227.34765625 196.147460938 237.431640625 195.331054688 c 1
 271.857421875 285.911132812 304.368164062 337.819335938 336.033203125 371.830078125 c 0
 342.150390625 378.399414062 350.873046875 382.51171875 360.548828125 382.51171875 c 0
 379.034179688 382.51171875 394.041992188 367.502929688 394.041992188 349.017578125 c 0
 394.041992188 340.208007812 390.633789062 332.1875 385.060546875 326.18359375 c 0
 359.875 299.131835938 336.631835938 258.268554688 316.86328125 212.8828125 c 0
 265.891601562 95.8564453125 243.08203125 -30.26171875 216.049804688 -65.5654296875 c 0
 209.950195312 -73.53125 199.024414062 -83.5 182.541015625 -83.5 c 0
 166.73046875 -83.5 147.693359375 -75.228515625 137.5546875 -40.4306640625 c 0
 119.607421875 21.1708984375 113.169921875 202.768554688 30.3857421875 330.849609375 c 0
 26.962890625 336.150390625 25 342.381835938 25 349.068359375 c 0
EndSplineSet
EndChar

StartChar: uni2201
Encoding: 1 8705 1
Width: 281
VWidth: 0
Flags: HW
LayerCount: 2
Fore
SplineSet
255.733398438 308.927734375 m 0
 255.733398438 290.438476562 240.721679688 275.427734375 222.232421875 275.427734375 c 0
 209.795898438 275.427734375 198.93359375 282.21875 193.112304688 292.364257812 c 0
 182.602539062 310.680664062 169.345703125 316.03125 155.53125 316.03125 c 0
 138.83203125 316.03125 121.666992188 306.072265625 114.1640625 293.18359375 c 0
 112.477539062 290.28515625 92 252.416992188 92 120.4375 c 0
 92 109.094726562 92.119140625 31.9853515625 101.798828125 -9.8818359375 c 1
 108.21484375 -15.087890625 113.68359375 -16.34375 120.311523438 -16.34375 c 0
 139.180664062 -16.34375 163.943359375 -1.8154296875 186.118164062 14.81640625 c 0
 191.713867188 19.01171875 198.663085938 21.4990234375 206.188476562 21.4990234375 c 0
 224.674804688 21.4990234375 239.68359375 6.490234375 239.68359375 -11.9970703125 c 0
 239.68359375 -22.9580078125 234.407226562 -32.697265625 226.262695312 -38.81640625 c 0
 194.971679688 -62.2841796875 158.723632812 -83.34375 120.311523438 -83.34375 c 0
 95.904296875 -83.34375 70.7138671875 -73.8896484375 50.5068359375 -53.68359375 c 0
 41.8515625 -45.0283203125 35.6845703125 -32.470703125 30.8046875 7.88671875 c 0
 27.1640625 37.99609375 25 78.07421875 25 120.4375 c 0
 25 188.841796875 30.2607421875 282.225585938 56.216796875 326.81640625 c 0
 76.765625 362.119140625 115.502929688 383.03125 155.53125 383.03125 c 0
 191.66796875 383.03125 229.000976562 364.4453125 251.268554688 325.635742188 c 0
 254.124023438 320.661132812 255.733398438 314.981445312 255.733398438 308.927734375 c 0
EndSplineSet
EndChar

StartChar: partialdiff
Encoding: 2 8706 2
Width: 317
VWidth: 0
Flags: HW
LayerCount: 2
Fore
SplineSet
225.05859375 197.018554688 m 0
 225.05859375 253.067382812 192.196289062 315.5 164.483398438 315.5 c 0
 135.419921875 315.5 113.077148438 303.2265625 86.1669921875 276.31640625 c 0
 80.095703125 270.263671875 71.7216796875 266.510742188 62.4794921875 266.510742188 c 0
 43.9931640625 266.510742188 28.9853515625 281.51953125 28.9853515625 300.004882812 c 0
 28.9853515625 309.247070312 32.7373046875 317.62109375 38.80078125 323.68359375 c 0
 71.890625 356.7734375 112.135742188 382.5 164.483398438 382.5 c 0
 242.461914062 382.5 292.05859375 280.116210938 292.05859375 197.018554688 c 0
 292.05859375 106.453125 247.485351562 -83.5 137.483398438 -83.5 c 0
 70.373046875 -83.5 25 -35.8203125 25 46.8525390625 c 0
 25 108.775390625 46.6845703125 197.6015625 171.103515625 197.6015625 c 0
 188.098632812 197.6015625 206.013671875 196.03125 225.001953125 193.131835938 c 1
 225.040039062 194.41015625 225.05859375 195.706054688 225.05859375 197.018554688 c 0
171.103515625 130.6015625 m 0
 111.442382812 130.6015625 102.233398438 104.40625 97.6611328125 88.6552734375 c 0
 94.5205078125 77.8369140625 92 62.1923828125 92 46.8525390625 c 0
 92 32.6982421875 94.267578125 -1.025390625 115.125 -11.8896484375 c 0
 120.036132812 -14.447265625 126.953125 -16.5 137.483398438 -16.5 c 0
 164.196289062 -16.5 199.890625 37.822265625 217.194335938 126.526367188 c 1
 199.888671875 129.255859375 184.4375 130.6015625 171.103515625 130.6015625 c 0
EndSplineSet
EndChar

StartChar: existential
Encoding: 3 8707 3
Width: 271
VWidth: 0
Flags: HW
LayerCount: 2
Fore
SplineSet
189.576171875 -76.560546875 m 0
 188.266601562 -76.6416015625 59.23828125 -83.501953125 58.5009765625 -83.501953125 c 0
 40.01171875 -83.501953125 25 -68.490234375 25 -50.0009765625 c 0
 25 -32.22265625 38.87890625 -17.66015625 56.3837890625 -16.56640625 c 0
 79.0810546875 -15.1474609375 168.04296875 -10.7119140625 169.170898438 -10.6484375 c 0
 174.03125 21.41015625 176.721679688 52.3115234375 177.946289062 82.7412109375 c 1
 171.383789062 82.4453125 164.991210938 82.2265625 158.754882812 82.0107421875 c 0
 132.685546875 81.107421875 109.587890625 80.1806640625 86.5 75.2333984375 c 0
 84.2744140625 74.7451171875 81.91796875 74.4892578125 79.501953125 74.4892578125 c 0
 61.009765625 74.4892578125 45.99609375 89.501953125 45.99609375 107.994140625 c 0
 45.99609375 124.071289062 57.34375 137.518554688 72.458984375 140.756835938 c 0
 102.6875 147.234375 130.44921875 148.0703125 156.397460938 148.969726562 c 0
 163.885742188 149.229492188 171.243164062 149.48828125 178.53515625 149.850585938 c 1
 177.803710938 188.420898438 175.49609375 227.030273438 173.099609375 266.890625 c 0
 172.1484375 282.717773438 171.184570312 298.739257812 170.30859375 315.024414062 c 1
 135.515625 313.82421875 106.299804688 310.073242188 72.439453125 300.708007812 c 0
 69.5966796875 299.908203125 66.5986328125 299.487304688 63.5029296875 299.487304688 c 0
 45.009765625 299.487304688 29.99609375 314.500976562 29.99609375 332.994140625 c 0
 29.99609375 348.390625 40.404296875 361.375976562 54.5625 365.291992188 c 0
 105.095703125 379.26953125 149.282226562 382.5 201.500976562 382.5 c 0
 219.575195312 382.5 234.325195312 368.155273438 234.978515625 350.239257812 c 0
 235.5234375 348.086914062 235.860351562 345.850585938 235.965820312 343.555664062 c 0
 237.086914062 319.061523438 238.53515625 294.958007812 239.977539062 270.965820312 c 0
 242.87890625 222.70703125 245.7734375 174.875976562 245.7734375 125.427734375 c 0
 245.7734375 69.677734375 242.048828125 11.9287109375 230.4296875 -50.1875 c 0
 227.522460938 -65.7275390625 213.874023438 -77.50390625 197.49609375 -77.50390625 c 0
 194.768554688 -77.50390625 192.116210938 -77.177734375 189.576171875 -76.560546875 c 0
EndSplineSet
EndChar

StartChar: uni2204
Encoding: 4 8708 4
Width: 381
VWidth: 0
Flags: HW
HStem: 447 20G<247 263>
VStem: -2 65<-107.515 -44.422> 223 65<402.216 463.515>
LayerCount: 2
Fore
SplineSet
235.729492188 149.033203125 m 1
 242.586914062 149.272460938 249.337890625 149.517578125 256.034179688 149.850585938 c 1
 255.767578125 163.909179688 255.291992188 177.97265625 254.677734375 192.099609375 c 1
 248.352539062 177.6875 242.006835938 163.265625 235.729492188 149.033203125 c 1
162.403320312 -14.97265625 m 1
 196.984375 -13.1318359375 245.8359375 -10.6953125 246.669921875 -10.6484375 c 0
 251.530273438 21.41015625 254.220703125 52.3115234375 255.4453125 82.7412109375 c 1
 248.883789062 82.4453125 242.490234375 82.2265625 236.25390625 82.0107421875 c 0
 225.515625 81.638671875 215.280273438 81.2626953125 205.342773438 80.603515625 c 1
 191.817382812 50.3798828125 176.963867188 17.4052734375 162.403320312 -14.97265625 c 1
267.075195312 -76.560546875 m 0
 265.765625 -76.6416015625 136.737304688 -83.501953125 136 -83.501953125 c 0
 134.573242188 -83.501953125 133.16796875 -83.4130859375 131.788085938 -83.2392578125 c 0
 113.842773438 -123.434570312 98.5810546875 -158.107421875 90 -179 c 0
 86 -191 72 -200 59 -200 c 0
 41 -200 25 -184 25 -166 c 0
 25 -161.200195312 78.7138671875 -40.296875 133.68359375 83.9423828125 c 1
 127.40234375 90.0341796875 123.495117188 98.5615234375 123.495117188 107.994140625 c 0
 123.495117188 124.071289062 134.842773438 137.518554688 149.958007812 140.756835938 c 0
 153.212890625 141.455078125 156.438476562 142.086914062 159.63671875 142.66015625 c 0
 175.865234375 179.4296875 191.458984375 214.893554688 205 246 c 0
 214.715820312 268.321289062 224.846679688 291.74609375 234.611328125 314.426757812 c 1
 205.407226562 312.763671875 179.435546875 308.866210938 149.938476562 300.708007812 c 0
 147.095703125 299.908203125 144.09765625 299.487304688 141.001953125 299.487304688 c 0
 122.508789062 299.487304688 107.495117188 314.500976562 107.495117188 332.994140625 c 0
 107.495117188 348.390625 117.903320312 361.375976562 132.061523438 365.291992188 c 0
 177.6015625 377.888671875 217.98828125 381.756835938 263.743164062 382.3984375 c 1
 277.811523438 415.384765625 288.260742188 440.15234375 291 447 c 0
 296 459 308 467 322 467 c 0
 340 467 356 451 356 433 c 0
 356 428.549804688 338.779296875 386.625 314.165039062 329.083984375 c 1
 315.158203125 309.54296875 316.319335938 290.21875 317.4765625 270.965820312 c 0
 320.377929688 222.70703125 323.272460938 174.875976562 323.272460938 125.427734375 c 0
 323.272460938 69.677734375 319.547851562 11.9287109375 307.928710938 -50.1875 c 0
 305.021484375 -65.7275390625 291.373046875 -77.50390625 274.995117188 -77.50390625 c 0
 272.267578125 -77.50390625 269.615234375 -77.177734375 267.075195312 -76.560546875 c 0
EndSplineSet
EndChar

StartChar: emptyset
Encoding: 5 8709 5
Width: 360
Flags: HW
HStem: -34 67<171.462 233.84> 267 67<110.641 198>
VStem: 25 67<105.565 249.11> 42 76<-123.332 -45.125> 268 67<73.2667 235.312 381.682 440.824>
LayerCount: 2
Fore
SplineSet
198 267 m 1
 119 267 92 250 92 198 c 0
 92 161 103 117 120 88 c 1
 149 153 175 214 198 267 c 1
259 236 m 1
 259 235 237 186 215 137 c 0
 193 88 171 39 171 38 c 0
 178 35 186 33 193 33 c 0
 238 33 268 88 268 171 c 0
 268 198 265 219 259 236 c 1
42 -98 m 0
 42 -88 58 -52 72 -22 c 0
 79 -6 86 9 89 17 c 1
 49 61 25 129 25 198 c 0
 25 287 71 326 182 333 c 0
 183 333 183 334 184 334 c 0
 185 334 185 334 186 334 c 2
 200 334 l 2
 203 334 203 334 226 332 c 2
 227 332 l 1
 236 353 243 369 249 383 c 0
 256 399 261 412 267 426 c 0
 272 438 284 446 298 446 c 0
 316 446 332 430 332 412 c 0
 332 405 332 405 289 306 c 1
 320 280 335 236 335 171 c 0
 335 48 278 -34 193 -34 c 0
 175 -34 160 -31 145 -23 c 1
 142 -31 128 -61 118 -85 c 0
 113 -96 109 -106 107 -111 c 0
 103 -123 89 -132 76 -132 c 0
 58 -132 42 -116 42 -98 c 0
EndSplineSet
EndChar

StartChar: Delta
Encoding: 6 8710 6
Width: 371
VWidth: 0
Flags: HW
LayerCount: 2
Fore
SplineSet
210.954101562 348.98828125 m 0
 210.954101562 367.43359375 225.940429688 382.489257812 244.51171875 382.489257812 c 0
 257.870117188 382.489257812 274.202148438 373.939453125 277.833984375 353.309570312 c 0
 297.072265625 268.6171875 346.29296875 45.72265625 346.29296875 -15.2646484375 c 0
 346.29296875 -41.451171875 335.912109375 -62.78125 285.384765625 -74.1787109375 c 0
 256.1640625 -80.7705078125 219.138671875 -83.3115234375 182.13671875 -83.3115234375 c 0
 137.493164062 -83.3115234375 68.677734375 -79.7822265625 42.0576171875 -59.4912109375 c 0
 35.5732421875 -54.5478515625 25 -43.791015625 25 -26.693359375 c 0
 25 -15.3818359375 29.857421875 -6.546875 34.4248046875 -0.916015625 c 0
 53.0078125 21.98828125 108.875976562 118.098632812 151.768554688 203.390625 c 0
 165.438476562 230.572265625 206.319335938 313.586914062 211.360351562 343.771484375 c 0
 211.090820312 345.4921875 210.954101562 347.236328125 210.954101562 348.98828125 c 0
108.623046875 -11.7197265625 m 1
 124.744140625 -14.130859375 151.497070312 -16.3115234375 182.13671875 -16.3115234375 c 0
 205.087890625 -16.3115234375 249.837890625 -15.1171875 278.860351562 -6.501953125 c 1
 277.053710938 15.7939453125 268.203125 79.697265625 237.18359375 225.848632812 c 1
 236.041015625 223.401367188 169.15625 81.767578125 108.623046875 -11.7197265625 c 1
EndSplineSet
EndChar

StartChar: gradient
Encoding: 7 8711 7
Width: 386
VWidth: 0
Flags: HW
LayerCount: 2
Fore
SplineSet
165.783203125 307.416992188 m 0
 144.170898438 307.416992188 123.333007812 307.862304688 104.76953125 308.974609375 c 1
 124.721679688 239.568359375 161.7890625 112.471679688 187.900390625 33.921875 c 1
 216.78125 112.778320312 258.29296875 241.581054688 280.361328125 311 c 1
 246.870117188 308.84765625 205.366210938 307.416992188 165.783203125 307.416992188 c 0
58.494140625 382.509765625 m 0
 69.43359375 382.509765625 74.083984375 374.416992188 165.783203125 374.416992188 c 0
 261.514648438 374.416992188 325.842773438 382.498046875 327.461914062 382.498046875 c 0
 346.166992188 382.498046875 361.026367188 367.3046875 361.026367188 349.021484375 c 0
 361.026367188 346.205078125 360.673828125 342.756835938 359.516601562 339.03515625 c 0
 353.580078125 319.93359375 254.947265625 3.228515625 222.888671875 -57.0166015625 c 0
 218.921875 -64.4716796875 208.795898438 -83.5 186.499023438 -83.5 c 0
 160.28125 -83.5 150.463867188 -61.1240234375 135.875 -20.8408203125 c 0
 98.837890625 81.42578125 27.259765625 336.30859375 26.2412109375 339.939453125 c 0
 25.4326171875 342.8203125 25 345.856445312 25 348.989257812 c 0
 25 367.55078125 40.0693359375 382.509765625 58.494140625 382.509765625 c 0
EndSplineSet
EndChar

StartChar: element
Encoding: 8 8712 8
Width: 378
VWidth: 0
Flags: HW
LayerCount: 2
Fore
SplineSet
154.564453125 -83.5634765625 m 0
 25.4794921875 -83.5634765625 25 66.806640625 25 117.106445312 c 0
 25 138.463867188 25 194.42578125 65.763671875 254.658203125 c 0
 140.782226562 365.50390625 274.229492188 382.504882812 290.543945312 382.504882812 c 0
 309.034179688 382.504882812 324.045898438 367.493164062 324.045898438 349.002929688 c 0
 324.045898438 331.78515625 311.030273438 317.583984375 294.309570312 315.709960938 c 0
 208.649414062 306.110351562 118.532226562 249.780273438 96.93359375 163.18359375 c 1
 103.092773438 163.125 109.081054688 163.094726562 114.912109375 163.094726562 c 0
 197.350585938 163.094726562 247.46484375 168.845703125 310.61328125 186.293945312 c 0
 313.470703125 187.083984375 316.465820312 187.50390625 319.55859375 187.50390625 c 0
 338.051757812 187.50390625 353.065429688 172.490234375 353.065429688 153.997070312 c 0
 353.065429688 138.59765625 342.653320312 125.610351562 328.474609375 121.706054688 c 0
 259.642578125 102.686523438 200.39453125 96.0947265625 114.912109375 96.0947265625 c 0
 107.611328125 96.0947265625 100.112304688 96.140625 92.388671875 96.2275390625 c 1
 96.513671875 -10.8154296875 129.223632812 -16.5634765625 154.564453125 -16.5634765625 c 0
 182.568359375 -16.5634765625 228.624023438 -2.8330078125 290.66015625 28.015625 c 0
 295.145507812 30.24609375 300.200195312 31.5 305.544921875 31.5 c 0
 324.036132812 31.5 339.047851562 16.48828125 339.047851562 -2.0029296875 c 0
 339.047851562 -14.6787109375 331.930664062 -26.2958984375 320.427734375 -32.015625 c 0
 254.67578125 -64.7119140625 201.46875 -83.5634765625 154.564453125 -83.5634765625 c 0
EndSplineSet
EndChar

StartChar: notelement
Encoding: 9 8713 9
Width: 397
VWidth: 0
Flags: HW
HStem: 447 20G<188.544 204.544>
VStem: -60.456 65<-107.515 -44.422> 164.544 65<402.216 463.515>
LayerCount: 2
Fore
SplineSet
156.749023438 96.705078125 m 1
 143.454101562 96.2880859375 129.569335938 96.0947265625 114.912109375 96.0947265625 c 0
 107.611328125 96.0947265625 100.112304688 96.140625 92.388671875 96.2275390625 c 1
 94.4267578125 43.337890625 103.443359375 15.177734375 115.1015625 0.2216796875 c 1
 128.633789062 31.662109375 142.793945312 64.455078125 156.749023438 96.705078125 c 1
247.331054688 305.860351562 m 1
 177.991210938 284.50390625 114.583007812 233.950195312 96.93359375 163.18359375 c 1
 103.092773438 163.125 109.081054688 163.094726562 114.912109375 163.094726562 c 0
 141.615234375 163.094726562 164.926757812 163.698242188 186.388671875 165.106445312 c 1
 199.098632812 194.3984375 211.063476562 221.922851562 221.543945312 246 c 0
 230.041992188 265.521484375 238.802734375 285.88671875 247.331054688 305.860351562 c 1
337.543945312 467 m 0
 355.543945312 467 371.543945312 451 371.543945312 433 c 0
 371.543945312 425.05078125 317.38671875 297.556640625 263.693359375 175.048828125 c 1
 278.985351562 178.090820312 294.368164062 181.805664062 310.61328125 186.293945312 c 0
 313.470703125 187.083984375 316.465820312 187.50390625 319.55859375 187.50390625 c 0
 338.051757812 187.50390625 353.065429688 172.490234375 353.065429688 153.997070312 c 0
 353.065429688 138.59765625 342.653320312 125.610351562 328.474609375 121.706054688 c 0
 295.301757812 112.5390625 264.35546875 106.259765625 231.625976562 102.213867188 c 1
 216.864257812 68.5947265625 199.116210938 27.806640625 181.26171875 -13.4716796875 c 1
 208.69921875 -7.8662109375 245.432617188 5.525390625 290.66015625 28.015625 c 0
 295.145507812 30.24609375 300.200195312 31.5 305.544921875 31.5 c 0
 324.036132812 31.5 339.047851562 16.48828125 339.047851562 -2.0029296875 c 0
 339.047851562 -14.6787109375 331.930664062 -26.2958984375 320.427734375 -32.015625 c 0
 254.67578125 -64.7119140625 201.46875 -83.5634765625 154.564453125 -83.5634765625 c 0
 153.38671875 -83.5634765625 152.21875 -83.55078125 151.0625 -83.525390625 c 0
 127.2734375 -138.90234375 106.48828125 -187.788085938 96.5439453125 -212 c 0
 92.5439453125 -224 78.5439453125 -233 65.5439453125 -233 c 0
 47.5439453125 -233 31.5439453125 -217 31.5439453125 -199 c 0
 31.5439453125 -195.94921875 55.140625 -139.731445312 87.2119140625 -64.759765625 c 1
 25.2939453125 -22.8232421875 25 77.7587890625 25 117.106445312 c 0
 25 138.463867188 25 194.42578125 65.763671875 254.658203125 c 0
 131.4609375 351.731445312 241.970703125 376.83203125 279.375 381.5703125 c 1
 293.392578125 414.969726562 303.782226562 440.095703125 306.543945312 447 c 0
 311.543945312 459 323.543945312 467 337.543945312 467 c 0
EndSplineSet
EndChar

StartChar: uni220A
Encoding: 10 8714 10
Width: 302
VWidth: 0
Flags: HW
LayerCount: 2
Fore
SplineSet
122.612304688 -0.5673828125 m 1
 63.56640625 -0.5673828125 25 50.013671875 25 117.321289062 c 0
 25 133.206054688 27.158203125 148.483398438 31.859375 162.587890625 c 0
 52.087890625 223.2734375 95.810546875 300.454101562 183.96875 300.454101562 c 0
 207.18359375 300.454101562 231.512695312 294.865234375 257.090820312 283.690429688 c 0
 268.875976562 278.551757812 277.15625 266.737304688 277.15625 253.00390625 c 0
 277.15625 234.512695312 262.142578125 219.5 243.651367188 219.5 c 0
 228.997070312 219.5 212.995117188 233.454101562 183.96875 233.454101562 c 0
 151.989257812 233.454101562 127.266601562 211.234375 109.139648438 174.998046875 c 1
 109.825195312 174.9921875 110.5078125 174.989257812 111.1875 174.989257812 c 0
 128.65625 174.989257812 144.859375 177.032226562 165.42578125 179.709960938 c 0
 171.756835938 180.534179688 178.465820312 181.408203125 185.654296875 182.263671875 c 2
 185.723632812 182.272460938 l 2
 187.033203125 182.427734375 188.3671875 182.5078125 189.71875 182.5078125 c 0
 208.208984375 182.5078125 223.221679688 167.49609375 223.221679688 149.005859375 c 0
 223.221679688 131.866210938 210.32421875 117.715820312 193.64453125 115.736328125 c 0
 186.916015625 114.935546875 180.475585938 114.09765625 174.14453125 113.2734375 c 0
 153.735351562 110.616210938 134.05859375 107.989257812 111.1875 107.989257812 c 0
 105.130859375 107.989257812 98.8896484375 108.178710938 92.408203125 108.590820312 c 1
 93.0322265625 101.862304688 95.6669921875 82.814453125 105.961914062 72.6630859375 c 0
 109.921875 68.7587890625 114.004882812 66.4326171875 122.612304688 66.4326171875 c 0
 132.306640625 66.4326171875 149.830078125 70.6640625 174.866210938 86.3896484375 c 0
 180.021484375 89.626953125 186.118164062 91.5 192.6484375 91.5 c 0
 211.137695312 91.5 226.147460938 76.4892578125 226.147460938 58.0009765625 c 0
 226.147460938 38.1630859375 210.432617188 29.935546875 210.432617188 29.6103515625 c 0
 181.719726562 11.576171875 125.850585938 -0.9658203125 122.063476562 -0.9658203125 c 1
 122.1875 -0.908203125 122.370117188 -0.650390625 122.612304688 -0.5673828125 c 1
EndSplineSet
EndChar

StartChar: suchthat
Encoding: 11 8715 11
Width: 388
VWidth: 0
Flags: HW
LayerCount: 2
Fore
SplineSet
295.890625 149.080078125 m 1
 293.115234375 226.120117188 251.017578125 315.2734375 181.067382812 315.2734375 c 0
 162.801757812 315.2734375 140.2109375 309.354492188 113.153320312 292.530273438 c 0
 107.954101562 289.299804688 101.905273438 287.458007812 95.4287109375 287.458007812 c 0
 76.939453125 287.458007812 61.9296875 302.46875 61.9296875 320.95703125 c 0
 61.9296875 332.969726562 68.265625 343.513671875 77.8447265625 349.469726562 c 0
 113.092773438 371.38671875 147.80078125 382.2734375 181.067382812 382.2734375 c 0
 293.157226562 382.2734375 363.038085938 259.755859375 363.038085938 140.91015625 c 0
 363.038085938 112.684570312 362.625976562 48.83984375 293.344726562 -15.7626953125 c 0
 250.657226562 -55.5673828125 193.948242188 -83.4091796875 137.661132812 -83.4091796875 c 0
 98.763671875 -83.4091796875 59.2509765625 -68.5771484375 32.0263671875 -33.521484375 c 0
 27.623046875 -27.8515625 25 -20.7314453125 25 -13.0029296875 c 0
 25 5.4833984375 40.0087890625 20.4921875 58.4951171875 20.4921875 c 0
 69.25390625 20.4921875 78.833984375 15.4091796875 84.9716796875 7.521484375 c 0
 97.955078125 -9.197265625 115.032226562 -16.4091796875 137.661132812 -16.4091796875 c 0
 187.098632812 -16.4091796875 257.350585938 24.6845703125 284.862304688 82.7890625 c 1
 279.092773438 83.2265625 273.270507812 83.4150390625 267.358398438 83.4150390625 c 0
 236.795898438 83.4150390625 205.565429688 78.33984375 172.71875 78.33984375 c 0
 153.876953125 78.33984375 133.951171875 80.025390625 113.498046875 85.7255859375 c 0
 99.3564453125 89.65234375 88.978515625 102.623046875 88.978515625 117.997070312 c 0
 88.978515625 136.490234375 103.9921875 151.50390625 122.485351562 151.50390625 c 0
 133.032226562 151.50390625 140.249023438 145.33984375 172.71875 145.33984375 c 0
 201.551757812 145.33984375 233.061523438 150.415039062 267.358398438 150.415039062 c 0
 276.588867188 150.415039062 286.115234375 150.044921875 295.890625 149.080078125 c 1
EndSplineSet
EndChar

StartChar: uni220C
Encoding: 12 8716 12
Width: 397
VWidth: 0
Flags: HW
HStem: 447 20G<240 256>
VStem: -9 65<-107.515 -44.422> 216 65<402.216 463.515>
LayerCount: 2
Fore
SplineSet
332 467 m 0
 350 467 366 451 366 433 c 0
 366 428.37109375 345.514648438 378.696289062 317.509765625 313.203125 c 1
 352.185546875 267.016601562 371.5390625 203.455078125 371.5390625 140.91015625 c 0
 371.5390625 112.684570312 371.126953125 48.83984375 301.845703125 -15.7626953125 c 0
 259.158203125 -55.5673828125 202.44921875 -83.4091796875 146.162109375 -83.4091796875 c 0
 145.674804688 -83.4091796875 145.188476562 -83.40234375 144.702148438 -83.40234375 c 0
 121.1640625 -137.991210938 100.383789062 -186.716796875 90 -212 c 0
 86 -224 72 -233 59 -233 c 0
 41 -233 25 -217 25 -199 c 0
 25 -195.884765625 48.2216796875 -140.69140625 79.79296875 -67.072265625 c 1
 65.2060546875 -59.1064453125 51.8115234375 -48.0517578125 40.52734375 -33.521484375 c 0
 36.1240234375 -27.8515625 33.5009765625 -20.7314453125 33.5009765625 -13.0029296875 c 0
 33.5009765625 5.4833984375 48.509765625 20.4921875 66.99609375 20.4921875 c 0
 77.7548828125 20.4921875 87.3349609375 15.4091796875 93.47265625 7.521484375 c 0
 97.4072265625 2.455078125 101.71875 -1.7392578125 106.446289062 -5.123046875 c 1
 118.547851562 22.927734375 131.17578125 52.115234375 143.71484375 81.0439453125 c 1
 136.560546875 82.162109375 129.313476562 83.6865234375 121.999023438 85.7255859375 c 0
 107.857421875 89.65234375 97.4794921875 102.623046875 97.4794921875 117.997070312 c 0
 97.4794921875 136.490234375 112.493164062 151.50390625 130.986328125 151.50390625 c 0
 140.4140625 151.50390625 147.180664062 146.579101562 171.700195312 145.533203125 c 1
 184.706054688 175.470703125 197.064453125 203.876953125 208 229 c 0
 217.541015625 250.916992188 227.9453125 275.029296875 238.237304688 299.002929688 c 1
 224.02734375 309.2578125 207.737304688 315.2734375 189.568359375 315.2734375 c 0
 171.302734375 315.2734375 148.711914062 309.354492188 121.654296875 292.530273438 c 0
 116.455078125 289.299804688 110.40625 287.458007812 103.9296875 287.458007812 c 0
 85.4404296875 287.458007812 70.4306640625 302.46875 70.4306640625 320.95703125 c 0
 70.4306640625 332.969726562 76.7666015625 343.513671875 86.345703125 349.469726562 c 0
 121.59375 371.38671875 156.301757812 382.2734375 189.568359375 382.2734375 c 0
 217.447265625 382.2734375 242.713867188 374.694335938 264.9453125 361.478515625 c 1
 283.381835938 404.78125 297.934570312 439.3359375 301 447 c 0
 306 459 318 467 332 467 c 0
175.475585938 -12.3056640625 m 1
 220.236328125 -0.546875 270.96484375 35.4833984375 293.36328125 82.7890625 c 1
 287.59375 83.2265625 281.771484375 83.4150390625 275.859375 83.4150390625 c 0
 256.16796875 83.4150390625 236.198242188 81.30859375 215.698242188 79.8095703125 c 1
 203.405273438 51.826171875 189.518554688 20.0185546875 175.475585938 -12.3056640625 c 1
284.6484375 236.99609375 m 1
 272.055664062 207.995117188 259.01953125 178.174804688 246.3515625 149.358398438 c 1
 255.948242188 149.977539062 265.784179688 150.415039062 275.859375 150.415039062 c 0
 285.08984375 150.415039062 294.616210938 150.044921875 304.391601562 149.080078125 c 1
 303.33203125 178.499023438 296.538085938 209.68359375 284.6484375 236.99609375 c 1
EndSplineSet
EndChar

StartChar: uni220D
Encoding: 13 8717 13
Width: 322
VWidth: 0
Flags: HW
LayerCount: 2
Fore
SplineSet
89.5478515625 233.5 m 0
 71.05859375 233.5 56.0478515625 248.510742188 56.0478515625 267 c 0
 56.0478515625 285.489257812 71.05859375 300.5 89.5478515625 300.5 c 0
 178.748046875 300.5 260.677734375 296.010742188 287.37109375 235.532226562 c 0
 295.001953125 218.243164062 296.731445312 200.358398438 296.731445312 182.24609375 c 0
 296.731445312 175.265625 296.443359375 168.168945312 295.98046875 160.85546875 c 0
 288.525390625 43.0654296875 161.447265625 -56.9404296875 38.3017578125 36.31640625 c 0
 30.22265625 42.43359375 25 52.12890625 25 63.0341796875 c 0
 25 81.521484375 40.0087890625 96.5302734375 58.49609375 96.5302734375 c 0
 66.0771484375 96.5302734375 73.0732421875 94.005859375 78.7451171875 89.7216796875 c 0
 101.71484375 72.3271484375 121.782226562 66.5673828125 138.661132812 66.5673828125 c 0
 153.935546875 66.5673828125 168.306640625 71.37109375 181.352539062 80.1435546875 c 0
 197.66796875 91.115234375 211.302734375 108.4765625 219.810546875 127.936523438 c 1
 186.76953125 124.265625 146.15625 117.672851562 108.341796875 111 c 0
 106.500976562 110.666015625 104.544921875 110.491210938 102.548828125 110.491210938 c 0
 84.0576171875 110.491210938 69.0439453125 125.50390625 69.0439453125 143.995117188 c 0
 69.0439453125 160.491210938 80.9912109375 174.217773438 96.6962890625 176.989257812 c 0
 141.239257812 184.850585938 189.439453125 192.8046875 228.974609375 196.2109375 c 1
 226.920898438 213.087890625 221.885742188 216.68359375 209.626953125 221.458007812 c 0
 191.357421875 228.573242188 152.836914062 233.5 89.5478515625 233.5 c 0
EndSplineSet
EndChar

StartChar: uni220E
Encoding: 14 8718 14
Width: 350
VWidth: 0
Flags: HW
LayerCount: 2
Fore
SplineSet
25 0 m 1
 325 0 l 1
 325 300 l 1
 25 300 l 1
 25 0 l 1
EndSplineSet
EndChar

StartChar: product
Encoding: 15 8719 15
Width: 475
VWidth: 0
Flags: HW
LayerCount: 2
Fore
SplineSet
381.26953125 392.59765625 m 1
 356.34765625 397.4921875 319.793945312 399.381835938 290.013671875 399.381835938 c 0
 271.109375 399.381835938 179.619140625 398.219726562 138.143554688 376.317382812 c 0
 131.936523438 373.0390625 128.97265625 370.071289062 128.338867188 369.248046875 c 0
 118.282226562 310.78515625 110.909179688 -86.3525390625 91.576171875 -205.401367188 c 0
 88.98828125 -221.392578125 75.1572265625 -233.567382812 58.50390625 -233.567382812 c 0
 40.0126953125 -233.567382812 25 -218.5546875 25 -200.063476562 c 0
 25 -198.224609375 25.1484375 -196.419921875 25.4443359375 -194.598632812 c 0
 44.0283203125 -80.1611328125 50.4912109375 316.551757812 62.564453125 382.09765625 c 0
 75.5966796875 452.841796875 198.130859375 466.381835938 290.013671875 466.381835938 c 0
 319.041992188 466.381835938 400.790039062 464.703125 430.360351562 446.447265625 c 0
 436.748046875 442.502929688 450.01953125 432.046875 450.01953125 413.241210938 c 0
 450.01953125 407.06640625 430.208984375 176.543945312 402.922851562 -202.435546875 c 0
 401.672851562 -219.790039062 387.1796875 -233.500976562 369.508789062 -233.500976562 c 0
 351.01953125 -233.500976562 336.0078125 -218.490234375 336.0078125 -200 c 0
 336.0078125 -194.056640625 351.61328125 21.7861328125 381.26953125 392.59765625 c 1
EndSplineSet
EndChar

StartChar: uni2210
Encoding: 16 8720 16
Width: 442
VWidth: 0
Flags: HW
LayerCount: 2
Fore
SplineSet
278.17578125 -230.235351562 m 0
 227.91015625 -230.235351562 169.948242188 -233.044921875 122.698242188 -233.044921875 c 0
 99.7275390625 -233.044921875 79.1357421875 -232.46484375 61.548828125 -230.231445312 c 0
 25.3037109375 -225.62890625 25 -181.416015625 25 -141.42578125 c 0
 25 -20.416015625 50.7314453125 255.516601562 72.5439453125 437.03125 c 0
 74.541015625 453.693359375 88.6826171875 466.572265625 105.80859375 466.572265625 c 0
 124.299804688 466.572265625 139.311523438 451.559570312 139.311523438 433.069335938 c 0
 139.311523438 431.705078125 139.23046875 430.359375 139.0625 428.96875 c 0
 117.538085938 249.852539062 92 -27.84375 92 -141.42578125 c 0
 92 -150.614257812 92.306640625 -158.858398438 92.6943359375 -165.485351562 c 1
 101.66796875 -165.865234375 111.817382812 -166.044921875 122.698242188 -166.044921875 c 0
 168.548828125 -166.044921875 226.663085938 -163.235351562 278.17578125 -163.235351562 c 0
 293.250976562 -163.235351562 307.819335938 -163.458007812 321.600585938 -164.095703125 c 1
 321.560546875 -162.333984375 317.3203125 -59.4423828125 317.3203125 12.0517578125 c 0
 317.3203125 120.30859375 323.5625 265.555664062 350.7109375 438.235351562 c 0
 353.227539062 454.243164062 367.09765625 466.50390625 383.807617188 466.50390625 c 0
 402.298828125 466.50390625 417.311523438 451.491210938 417.311523438 432.999023438 c 0
 417.311523438 420.497070312 384.3203125 253.983398438 384.3203125 12.0517578125 c 0
 384.3203125 -44.0263671875 386.032226562 -89.947265625 387.33203125 -124.7578125 c 0
 388.112304688 -145.653320312 388.756835938 -162.462890625 388.756835938 -175.782226562 c 0
 388.756835938 -195.04296875 387.508789062 -206.509765625 381.287109375 -216.485351562 c 0
 377.375 -222.7578125 366.6484375 -233.514648438 351.033203125 -233.514648438 c 0
 350.303710938 -233.514648438 325.752929688 -230.235351562 278.17578125 -230.235351562 c 0
EndSplineSet
EndChar

StartChar: summation
Encoding: 17 8721 17
Width: 418
VWidth: 0
Flags: HW
LayerCount: 2
Fore
SplineSet
254.767578125 462.373046875 m 0
 304.6484375 462.373046875 348.608398438 466.502929688 349.557617188 466.502929688 c 0
 368.047851562 466.502929688 383.059570312 451.4921875 383.059570312 433.001953125 c 0
 383.059570312 415.48828125 369.591796875 401.095703125 352.45703125 399.624023438 c 0
 315.380859375 396.439453125 282.91015625 395.373046875 254.767578125 395.373046875 c 0
 221.224609375 395.373046875 193.802734375 396.889648438 172.463867188 398.065429688 c 0
 158.208984375 398.8515625 146.642578125 399.458007812 138.390625 399.458007812 c 0
 136.291992188 399.458007812 134.515625 399.419921875 133.020507812 399.360351562 c 0
 133.05078125 390.052734375 137.640625 367.377929688 168.8984375 323.399414062 c 0
 223.198242188 247.002929688 308.235351562 172.419921875 325.13671875 140.73046875 c 0
 329.240234375 133.037109375 330.684570312 124.963867188 330.684570312 117.86328125 c 0
 330.684570312 78.0966796875 286.342773438 29.77734375 205.763671875 -55.111328125 c 0
 165.575195312 -97.44921875 128.817382812 -136.396484375 107.329101562 -166.4765625 c 1
 112.07421875 -166.581054688 117.193359375 -166.631835938 122.600585938 -166.631835938 c 0
 167.26171875 -166.631835938 229.985351562 -163.431640625 286.014648438 -163.431640625 c 0
 313.870117188 -163.431640625 340.275390625 -164.174804688 363.254882812 -166.702148438 c 0
 380.008789062 -168.544921875 393.059570312 -182.76171875 393.059570312 -200.002929688 c 0
 393.059570312 -218.493164062 378.047851562 -233.504882812 359.557617188 -233.504882812 c 0
 358.307617188 -233.504882812 357.07421875 -233.436523438 355.928710938 -233.305664062 c 2
 355.860351562 -233.297851562 l 2
 337.065429688 -231.23046875 312.534179688 -230.431640625 286.014648438 -230.431640625 c 0
 257.626953125 -230.431640625 226.87109375 -231.298828125 197.377929688 -232.13671875 c 0
 170.639648438 -232.895507812 144.959960938 -233.631835938 122.600585938 -233.631835938 c 0
 75.7236328125 -233.631835938 52.6650390625 -230.955078125 38.0615234375 -218.109375 c 0
 31.923828125 -212.709960938 25 -202.337890625 25 -189.680664062 c 0
 25 -118.467773438 224.98828125 42.4013671875 261.87890625 114.740234375 c 1
 230.885742188 154.16015625 114.916992188 259.892578125 78.10546875 346.825195312 c 0
 71 363.604492188 66.0205078125 380.921875 66.0205078125 399.440429688 c 0
 66.0205078125 417.814453125 71.2548828125 457.071289062 114.942382812 464.766601562 c 0
 122.8203125 466.154296875 130.373046875 466.458007812 138.390625 466.458007812 c 0
 164.7265625 466.458007812 201.025390625 462.373046875 254.767578125 462.373046875 c 0
EndSplineSet
EndChar

StartChar: minus
Encoding: 18 8722 18
Width: 327
Flags: HW
VStem: 25 277<130.047 179.953>
LayerCount: 2
Fore
SplineSet
270 127 m 4
 148 121 72 117 59 116 c 4
 41 116 25 132 25 150 c 4
 25 168 39 182 57 183 c 4
 179 189 255 193 268 194 c 4
 286 194 302 178 302 160 c 4
 302 142 288 128 270 127 c 4
EndSplineSet
EndChar

StartChar: uni2213
Encoding: 19 8723 19
Width: 250
Flags: HW
HStem: 0 68<28.6521 217.707> 170 67<34.4688 91.933 159 219.74> 280 20G<119 137>
VStem: 25 196<3.48541 64.0499 178.662 231.508> 92 67<237 265.952> 92 66<98.9501 168 238.25 295.484>
LayerCount: 2
Fore
SplineSet
58 299 m 0
 60 299 63 300 65 300 c 0
 67 300 70 300 72 300 c 2
 124 300 l 2
 140 300 146 300 149 299 c 2
 188 299 l 2
 206 299 221 284 221 266 c 0
 221 248 206 232 188 232 c 2
 124 232 l 2
 107 232 101 232 98 233 c 0
 78 233 72 233 62 232 c 2
 59 232 l 2
 41 232 25 248 25 266 c 0
 25 284 40 299 58 299 c 0
66 143 m 4
 68 143 73 142 79 142 c 4
 85 142 90 141 92 141 c 6
 93 141 l 5
 95 157 l 6
 96 162 96 168 96 173 c 4
 97 190 111 204 129 204 c 4
 147 204 163 188 163 170 c 4
 163 169 162 166 162 161 c 4
 161 155 161 146 160 139 c 5
 177 139 184 139 191 140 c 4
 209 140 225 124 225 106 c 4
 225 80 210 72 159 72 c 5
 159 33 l 6
 159 15 144 0 126 0 c 4
 108 0 93 15 93 33 c 4
 93 55 93 64 92 74 c 5
 50 74 32 84 32 109 c 4
 32 127 48 143 66 143 c 4
EndSplineSet
EndChar

StartChar: uni2214
Encoding: 20 8724 20
Width: 243
Flags: HW
HStem: 0 67<23.2926 82.7074>
VStem: 20 66<3.12434 64.0499>
LayerCount: 2
Fore
SplineSet
59 143 m 0
 61 143 66 142 72 142 c 0
 78 142 83 141 85 141 c 2
 86 141 l 1
 88 157 l 2
 89 162 89 168 89 173 c 0
 90 190 104 204 122 204 c 0
 140 204 156 188 156 170 c 0
 156 169 155 166 155 161 c 0
 154 155 154 146 153 139 c 1
 170 139 177 139 184 140 c 0
 202 140 218 124 218 106 c 0
 218 80 203 72 152 72 c 1
 152 33 l 2
 152 15 137 0 119 0 c 0
 101 0 86 15 86 33 c 0
 86 55 86 64 85 74 c 1
 43 74 25 84 25 109 c 0
 25 127 41 143 59 143 c 0
90 267 m 0
 90 285 105 300 123 300 c 0
 141 300 156 285 156 267 c 0
 156 249 141 233 123 233 c 0
 105 233 90 249 90 267 c 0
EndSplineSet
EndChar

StartChar: uni2215
Encoding: 21 8725 21
Width: 340
Flags: HW
HStem: 447 20G<274 290>
VStem: 25 65<-107.515 -44.422> 250 65<402.216 463.515>
LayerCount: 2
Fore
SplineSet
281 467 m 0
 299 467 315 451 315 433 c 0
 315 424 257 293 198 158 c 0
 156 63 113 -34 90 -90 c 0
 86 -102 72 -111 59 -111 c 0
 41 -111 25 -95 25 -77 c 0
 25 -70 111 126 177 277 c 0
 214 362 244 432 250 447 c 0
 255 459 267 467 281 467 c 0
EndSplineSet
EndChar

StartChar: uni2216
Encoding: 22 8726 22
Width: 282
VWidth: 0
Flags: HW
LayerCount: 2
Fore
SplineSet
25 267.0703125 m 0
 25 285.560546875 40.01171875 300.572265625 58.501953125 300.572265625 c 0
 71.3447265625 300.572265625 82.5087890625 293.330078125 88.1689453125 282.639648438 c 0
 138.953125 186.713867188 217.805664062 157.235351562 255.360351562 43.4990234375 c 0
 256.451171875 40.1953125 257.041992188 36.6650390625 257.041992188 32.998046875 c 0
 257.041992188 14.5048828125 242.028320312 -0.5087890625 223.53515625 -0.5087890625 c 0
 208.708984375 -0.5087890625 196.120117188 9.1416015625 191.721679688 22.5009765625 c 0
 159.483398438 120.139648438 85.7607421875 143.982421875 28.9140625 251.360351562 c 0
 26.400390625 256.099609375 25 261.421875 25 267.0703125 c 0
EndSplineSet
EndChar

StartChar: asteriskmath
Encoding: 23 8727 23
Width: 268
Flags: HW
HStem: 347 64<30.3641 79.8942 190.462 241.876> 447 20G<126 144>
VStem: 102 67<396 463.515>
LayerCount: 2
Fore
SplineSet
58 204 m 0
 66 204 71 201 79 197 c 0
 84 194 91 190 100 187 c 1
 100 229 l 2
 101 246 115 260 133 260 c 0
 151 260 167 244 167 226 c 2
 167 189 l 1
 190 200 203 205 209 205 c 0
 227 205 243 189 243 171 c 0
 243 157 235 145 223 140 c 0
 198 130 198 130 188 125 c 1
 217 96 l 2
 223 90 227 81 227 72 c 0
 227 54 212 39 194 39 c 0
 184 39 176 42 170 48 c 2
 133 86 l 1
 132 85 125 77 119 69 c 0
 113 61 106 52 105 51 c 0
 99 43 90 39 79 39 c 0
 61 39 46 54 46 72 c 0
 46 86 47 88 78 124 c 1
 76 125 62 131 44 140 c 0
 33 145 25 157 25 170 c 0
 25 188 40 204 58 204 c 0
EndSplineSet
EndChar

StartChar: uni2218
Encoding: 24 8728 24
Width: 219
Flags: HW
HStem: 337 67<104.081 136.53>
VStem: 35 69<280.661 328> 137 67<287.012 335.73>
LayerCount: 2
Fore
SplineSet
91 54 m 0
 50 54 25 92 25 153 c 0
 25 211 56 247 104 247 c 0
 153 247 194 206 194 158 c 0
 194 108 140 54 91 54 c 0
95 172 m 2
 94 171 l 1
 94 170 l 1
 94 168 l 2
 92 163 92 161 92 153 c 0
 92 143 93 133 96 123 c 1
 114 132 127 147 127 158 c 0
 127 169 116 180 104 180 c 0
 98 180 97 179 95 172 c 2
EndSplineSet
EndChar

StartChar: uni2219
Encoding: 25 8729 25
Width: 118
Flags: W
HStem: 112 66<28.1243 89.8757>
VStem: 25 68<115.293 174.707>
LayerCount: 2
Fore
SplineSet
25 145 m 0
 25 163 41 178 59 178 c 0
 77 178 93 163 93 145 c 0
 93 127 77 112 59 112 c 0
 41 112 25 127 25 145 c 0
EndSplineSet
EndChar

StartChar: radical
Encoding: 26 8730 26
Width: 378
VWidth: 0
Flags: HW
LayerCount: 2
Fore
SplineSet
319.525390625 489.5 m 0
 319.188476562 489.5 305.125 489.604492188 285.900390625 491.690429688 c 1
 278.474609375 460.884765625 272.778320312 432.397460938 245.463867188 258.798828125 c 0
 224.459960938 125.299804688 205.462890625 5.3251953125 190.8203125 -42.1982421875 c 0
 186.90234375 -54.91015625 178.09375 -83.5 149.525390625 -83.5 c 0
 128.423828125 -83.5 118.764648438 -66.591796875 114.341796875 -58.849609375 c 0
 100.62109375 -34.8310546875 68.6982421875 38.908203125 32.185546875 85.30859375 c 0
 27.67578125 91.0556640625 25 98.2412109375 25 106.046875 c 0
 25 124.533203125 40.0087890625 139.541992188 58.4951171875 139.541992188 c 0
 69.1767578125 139.541992188 78.6962890625 134.53125 84.8662109375 126.69140625 c 0
 106.864257812 98.7353515625 125.578125 66.0185546875 140.517578125 37.4287109375 c 1
 159.000976562 132.146484375 195.362304688 378.0625 211.040039062 461.704101562 c 0
 223.5625 528.51171875 229.36328125 543.375976562 246.577148438 551.982421875 c 0
 255.107421875 556.248046875 266.40234375 559.598632812 276.577148438 559.598632812 c 0
 288.510742188 559.598632812 294.866210938 557.111328125 320.356445312 556.490234375 c 0
 338.462890625 556.047851562 353.026367188 541.2109375 353.026367188 523 c 0
 353.026367188 504.510742188 338.014648438 489.5 319.525390625 489.5 c 0
EndSplineSet
EndChar

StartChar: uni221B
Encoding: 27 8731 27
Width: 426
VWidth: 0
Flags: HW
HStem: 200 44<50.1574 82> 466 45<44.7621 169.191>
VStem: 155 45<262.324 285 286 317.923>
LayerCount: 2
Fore
SplineSet
367 489.5 m 0
 366.663085938 489.5 352.599609375 489.604492188 333.374023438 491.690429688 c 1
 325.94921875 460.884765625 320.252929688 432.397460938 292.938476562 258.798828125 c 0
 271.93359375 125.299804688 252.9375 5.3251953125 238.293945312 -42.1982421875 c 0
 234.376953125 -54.91015625 225.567382812 -83.5 197 -83.5 c 0
 175.897460938 -83.5 166.23828125 -66.591796875 161.815429688 -58.849609375 c 0
 148.095703125 -34.8310546875 116.171875 38.908203125 79.66015625 85.30859375 c 0
 75.1494140625 91.0556640625 72.474609375 98.2412109375 72.474609375 106.046875 c 0
 72.474609375 124.533203125 87.482421875 139.541992188 105.969726562 139.541992188 c 0
 116.650390625 139.541992188 126.170898438 134.53125 132.33984375 126.69140625 c 0
 154.337890625 98.7353515625 173.051757812 66.0185546875 187.9921875 37.4287109375 c 1
 206.474609375 132.146484375 242.836914062 378.0625 258.513671875 461.704101562 c 0
 271.036132812 528.51171875 276.837890625 543.375976562 294.05078125 551.982421875 c 0
 302.58203125 556.248046875 313.875976562 559.598632812 324.051757812 559.598632812 c 0
 335.985351562 559.598632812 342.340820312 557.111328125 367.831054688 556.490234375 c 0
 385.936523438 556.047851562 400.5 541.2109375 400.5 523 c 0
 400.5 504.510742188 385.489257812 489.5 367 489.5 c 0
137 286 m 1
 137 300 122 313 108 326 c 0
 94 339 79 352 79 366 c 0
 79 389 91 406 129 438 c 0
 141 448 148 454 152 460 c 1
 146 464 129 466 101 466 c 0
 92 466 92 466 50 464 c 2
 47 464 l 2
 35 464 25 474 25 486 c 0
 25 497 34 507 45 508 c 0
 65 510 84 511 101 511 c 0
 166 511 198 495 198 462 c 0
 198 439 177 420 157 403 c 0
 144 392 131 380 124 368 c 1
 131 361 133 359 138 355 c 0
 167 330 181 307 181 286 c 0
 181 268 165 245 140 228 c 0
 123 217 71 200 53 200 c 0
 41 200 31 210 31 222 c 0
 31 232 37 241 48 244 c 2
 63 247 l 2
 117 258 129 264 136 284 c 1
 136 285 l 1
 137 286 l 1
EndSplineSet
EndChar

StartChar: uni221C
Encoding: 28 8732 28
Width: 432
VWidth: 0
Flags: HW
HStem: 311 46<96.1205 128.76> 327 74<190.402 221.621>
VStem: 50 51<391.201 509.406> 50 44<356.834 499.103> 122 45<200.315 309.124> 143 45<379.987 510.718>
LayerCount: 2
Fore
SplineSet
373 489.5 m 0
 372.663085938 489.5 358.599609375 489.604492188 339.374023438 491.690429688 c 1
 331.94921875 460.884765625 326.252929688 432.397460938 298.938476562 258.798828125 c 0
 277.93359375 125.299804688 258.9375 5.3251953125 244.293945312 -42.1982421875 c 0
 240.376953125 -54.91015625 231.567382812 -83.5 203 -83.5 c 0
 181.897460938 -83.5 172.23828125 -66.591796875 167.815429688 -58.849609375 c 0
 154.095703125 -34.8310546875 122.171875 38.908203125 85.66015625 85.30859375 c 0
 81.1494140625 91.0556640625 78.474609375 98.2412109375 78.474609375 106.046875 c 0
 78.474609375 124.533203125 93.482421875 139.541992188 111.969726562 139.541992188 c 0
 122.650390625 139.541992188 132.170898438 134.53125 138.33984375 126.69140625 c 0
 160.337890625 98.7353515625 179.051757812 66.0185546875 193.9921875 37.4287109375 c 1
 212.474609375 132.146484375 248.836914062 378.0625 264.513671875 461.704101562 c 0
 277.036132812 528.51171875 282.837890625 543.375976562 300.05078125 551.982421875 c 0
 308.58203125 556.248046875 319.875976562 559.598632812 330.051757812 559.598632812 c 0
 341.985351562 559.598632812 348.340820312 557.111328125 373.831054688 556.490234375 c 0
 391.936523438 556.047851562 406.5 541.2109375 406.5 523 c 0
 406.5 504.510742188 391.489257812 489.5 373 489.5 c 0
76 489 m 0
 76 485 75 463 73 440 c 0
 71 417 69 395 69 391 c 0
 69 374 71 363 74 357 c 1
 75 357 l 2
 77 356 77 356 82 356 c 0
 90 356 98 357 108 360 c 0
 109 361 109 362 109 365 c 0
 115 432 116 447 118 491 c 0
 119 503 128 511 140 511 c 0
 152 511 163 501 163 489 c 0
 163 487 161 462 154 376 c 1
 172 384 182 390 189 394 c 0
 198 399 202 401 209 401 c 0
 221 401 231 391 231 379 c 0
 231 371 227 363 220 359 c 0
 201 348 177 337 150 327 c 0
 149 326 143 253 142 225 c 2
 142 221 l 2
 141 209 131 200 120 200 c 0
 108 200 97 211 97 223 c 0
 97 229 97 229 104 313 c 1
 99 312 86 311 82 311 c 0
 41 311 25 334 25 391 c 0
 25 412 26 424 31 490 c 0
 32 502 41 511 53 511 c 0
 65 511 76 501 76 489 c 0
EndSplineSet
EndChar

StartChar: proportional
Encoding: 29 8733 29
Width: 486
VWidth: 0
Flags: HW
LayerCount: 2
Fore
SplineSet
209.130859375 156.255859375 m 1
 184.642578125 183.60546875 150.947265625 220.907226562 134.466796875 233.158203125 c 1
 126.1484375 232.1484375 112.7734375 228.4375 102.961914062 202.829101562 c 0
 94.7197265625 181.318359375 93.91015625 162.541992188 92.556640625 131.141601562 c 0
 92.2724609375 124.540039062 92 118.001953125 92 111.797851562 c 0
 92 97.04296875 94.080078125 85.0634765625 97.287109375 78.93359375 c 0
 99.1025390625 75.46484375 102.694335938 68.6005859375 122.005859375 66.861328125 c 1
 139.69140625 82.8203125 185.450195312 132.041992188 209.130859375 156.255859375 c 1
257.043945312 203.178710938 m 1
 333.23828125 273.883789062 385.190429688 300.5 427.51171875 300.5 c 0
 446.000976562 300.5 461.01171875 285.489257812 461.01171875 267 c 0
 461.01171875 248.510742188 446.000976562 233.5 427.51171875 233.5 c 0
 393.1171875 233.5 334.3515625 183.583007812 301.767578125 153.215820312 c 1
 337.912109375 113.236328125 373.443359375 75.5927734375 394.571289062 59.8251953125 c 0
 402.701171875 53.748046875 408.005859375 43.9873046875 408.005859375 32.9970703125 c 0
 408.005859375 14.509765625 392.997070312 -0.4990234375 374.509765625 -0.4990234375 c 0
 367.013671875 -0.4990234375 360.088867188 1.96875 354.504882812 6.1357421875 c 0
 325.129882812 28.0576171875 289.588867188 66.2646484375 253.868164062 106.1171875 c 1
 253.047851562 105.275390625 185.640625 34.3818359375 172.026367188 21.6767578125 c 0
 157.328125 7.9599609375 145.701171875 -0.5 130.51171875 -0.5 c 0
 100.22265625 -0.5 58.9208984375 7.7314453125 37.8818359375 47.939453125 c 0
 26.2353515625 70.197265625 25 93.068359375 25 111.797851562 c 0
 25 121.0859375 26.0146484375 144.5 26.0224609375 144.831054688 c 0
 26.7099609375 173.014648438 31.1650390625 252.1796875 86.8251953125 286.099609375 c 0
 102.14453125 295.435546875 120.517578125 300.5 140.51171875 300.5 c 0
 165.10546875 300.5 187.340820312 281.022460938 257.043945312 203.178710938 c 1
EndSplineSet
EndChar

StartChar: infinity
Encoding: 30 8734 30
Width: 601
VWidth: 0
Flags: HW
LayerCount: 2
Fore
SplineSet
418.522460938 66.5 m 0
 454.168945312 66.5 475.233398438 79.275390625 489.280273438 99.6689453125 c 0
 494.537109375 107.299804688 509.041015625 132.1484375 509.041015625 174.006835938 c 0
 509.041015625 194.459960938 501.65625 208.487304688 487.32421875 218.561523438 c 0
 475.416992188 226.930664062 456.259765625 233.5 428.522460938 233.5 c 0
 401.140625 233.5 373.778320312 201.3671875 343.859375 159.780273438 c 1
 362.375 129.700195312 381.493164062 98.87109375 397.373046875 81.7099609375 c 0
 409.866210938 68.208984375 417.381835938 66.5 418.522460938 66.5 c 0
25 177.77734375 m 0
 25 248.108398438 96.126953125 300.5 184.522460938 300.5 c 0
 233.479492188 300.5 271.591796875 265.478515625 304.745117188 219.845703125 c 1
 337.127929688 262.094726562 376.369140625 300.5 428.522460938 300.5 c 0
 528.71875 300.5 576.041015625 239.450195312 576.041015625 174.006835938 c 0
 576.041015625 73.6875 517.842773438 -0.5 418.522460938 -0.5 c 0
 370.692382812 -0.5 337.002929688 43.892578125 301.865234375 100.256835938 c 1
 266.475585938 51.8857421875 219.9296875 -0.5 154.522460938 -0.5 c 0
 75.67578125 -0.5 25 107.8828125 25 177.77734375 c 0
184.522460938 233.5 m 0
 136.416015625 233.5 92.6123046875 208.57421875 92.015625 179.3046875 c 0
 92.015625 178.805664062 92 178.296875 92 177.77734375 c 0
 92 155.359375 103.043945312 118.454101562 119.745117188 93.8251953125 c 0
 133.708007812 73.2333984375 147.34765625 66.5 154.522460938 66.5 c 0
 191.911132812 66.5 224.453125 106.4609375 263.291992188 161.665039062 c 1
 242.966796875 192.282226562 212.913085938 233.5 184.522460938 233.5 c 0
EndSplineSet
EndChar

StartChar: orthogonal
Encoding: 31 8735 31
Width: 307
VWidth: 0
Flags: HW
LayerCount: 2
Fore
SplineSet
47.123046875 258.520507812 m 0
 47.123046875 262.34765625 46.9990234375 266.915039062 46.9990234375 267 c 0
 46.9990234375 285.489257812 62.0107421875 300.5 80.5 300.5 c 0
 98.6494140625 300.5 113.447265625 286.036132812 113.985351562 268.015625 c 0
 114.079101562 264.866210938 114.123046875 261.701171875 114.123046875 258.520507812 c 0
 114.123046875 198.879882812 99.3134765625 133.69140625 93.7587890625 66.90234375 c 1
 155.520507812 71.1181640625 168.70703125 72.017578125 196.16796875 72.017578125 c 0
 234.244140625 72.017578125 250.31640625 68.103515625 260.248046875 64.37890625 c 2
 260.28125 64.3662109375 l 2
 272.985351562 59.6025390625 282.037109375 47.3408203125 282.037109375 32.9814453125 c 0
 282.037109375 14.4892578125 267.024414062 -0.5244140625 248.53125 -0.5244140625 c 0
 236.18359375 -0.5244140625 239.861328125 5.017578125 196.16796875 5.017578125 c 0
 168.97265625 5.017578125 135.500976562 2.68359375 108.614257812 0.7744140625 c 0
 90.751953125 -0.494140625 76.3466796875 -1.609375 65.634765625 -1.609375 c 0
 51.9384765625 -1.609375 48.048828125 0.3857421875 43.3388671875 2.857421875 c 0
 39.2314453125 5.013671875 25 14.111328125 25 32.9951171875 c 0
 25 101.009765625 47.123046875 197.935546875 47.123046875 258.520507812 c 0
EndSplineSet
EndChar

StartChar: angle
Encoding: 32 8736 32
Width: 354
VWidth: 0
Flags: HW
LayerCount: 2
Fore
SplineSet
228.452148438 285.291015625 m 0
 228.771484375 285.291015625 237.055664062 300.497070312 256.517578125 300.497070312 c 0
 275.005859375 300.497070312 290.015625 285.487304688 290.015625 266.999023438 c 0
 290.015625 260.251953125 288.016601562 253.96875 284.580078125 248.708984375 c 0
 243.577148438 185.962890625 182.993164062 126.362304688 139.150390625 82.861328125 c 0
 133.499023438 77.2548828125 128.125976562 71.9189453125 123.133789062 66.9189453125 c 1
 126.272460938 66.87890625 129.484375 66.857421875 132.747070312 66.857421875 c 0
 185.188476562 66.857421875 255.579101562 70.9912109375 290.608398438 76.142578125 c 2
 290.673828125 76.15234375 l 2
 292.276367188 76.3876953125 293.915039062 76.509765625 295.58203125 76.509765625 c 0
 314.073242188 76.509765625 329.0859375 61.4970703125 329.0859375 43.005859375 c 0
 329.0859375 26.181640625 316.658203125 12.2373046875 300.423828125 9.857421875 c 0
 259.23046875 3.7998046875 188.74609375 -0.142578125 132.747070312 -0.142578125 c 0
 69.96484375 -0.142578125 54.1611328125 4.6474609375 44.51171875 9.9248046875 c 0
 40.373046875 12.1884765625 25 21.0498046875 25 41.7685546875 c 0
 25 63.56640625 41.357421875 80.197265625 91.970703125 130.415039062 c 0
 135.59375 173.698242188 193.236328125 231.400390625 228.452148438 285.291015625 c 0
EndSplineSet
EndChar

StartChar: uni2221
Encoding: 33 8737 33
Width: 354
VWidth: 0
Flags: HW
LayerCount: 2
Fore
SplineSet
178.51953125 122.291992188 m 1
 164.629882812 108.103515625 151.251953125 94.869140625 139.150390625 82.861328125 c 0
 133.499023438 77.2548828125 128.125976562 71.9189453125 123.133789062 66.9189453125 c 1
 126.272460938 66.87890625 129.484375 66.857421875 132.747070312 66.857421875 c 0
 150.319335938 66.857421875 169.907226562 67.3212890625 189.504882812 68.1328125 c 0
 189.504882812 68.2783203125 189.505859375 68.42578125 189.505859375 68.576171875 c 0
 189.505859375 88.2841796875 184.524414062 108.6015625 178.51953125 122.291992188 c 1
228.452148438 285.291015625 m 0
 228.771484375 285.291015625 237.055664062 300.497070312 256.517578125 300.497070312 c 0
 275.005859375 300.497070312 290.015625 285.487304688 290.015625 266.999023438 c 0
 290.015625 260.251953125 288.016601562 253.96875 284.580078125 248.708984375 c 0
 267.611328125 222.7421875 247.2890625 197.314453125 226.1875 173.342773438 c 1
 246.728515625 145.676757812 255.803710938 104.298828125 256.466796875 72.333984375 c 1
 269.65625 73.494140625 281.364257812 74.783203125 290.608398438 76.142578125 c 2
 290.673828125 76.15234375 l 2
 292.276367188 76.3876953125 293.915039062 76.509765625 295.58203125 76.509765625 c 0
 314.073242188 76.509765625 329.0859375 61.4970703125 329.0859375 43.005859375 c 0
 329.0859375 26.181640625 316.658203125 12.2373046875 300.423828125 9.857421875 c 0
 259.23046875 3.7998046875 188.74609375 -0.142578125 132.747070312 -0.142578125 c 0
 69.96484375 -0.142578125 54.1611328125 4.6474609375 44.51171875 9.9248046875 c 0
 40.373046875 12.1884765625 25 21.0498046875 25 41.7685546875 c 0
 25 63.56640625 41.357421875 80.197265625 91.970703125 130.415039062 c 0
 135.59375 173.698242188 193.236328125 231.400390625 228.452148438 285.291015625 c 0
EndSplineSet
EndChar

StartChar: uni2222
Encoding: 34 8738 34
Width: 321
VWidth: 0
Flags: HW
LayerCount: 2
Fore
SplineSet
159.922851562 202.423828125 m 1
 122.91015625 171.873046875 105.108398438 157.176757812 94.32421875 144.670898438 c 1
 102.51953125 135.252929688 116.5078125 126.716796875 148.431640625 107.235351562 c 1
 158.647460938 123.666015625 163.22265625 143.938476562 163.22265625 166.966796875 c 0
 163.22265625 178.493164062 162.014648438 190.512695312 159.922851562 202.423828125 c 1
235.434570312 368.728515625 m 0
 235.73828125 368.728515625 244.129882812 382.494140625 262.5078125 382.494140625 c 0
 280.995117188 382.494140625 296.00390625 367.485351562 296.00390625 348.998046875 c 0
 296.00390625 341.625976562 293.6171875 334.806640625 289.575195312 329.271484375 c 0
 269.14453125 301.296875 243.377929688 275.139648438 217.060546875 251.265625 c 0
 217.34765625 250.462890625 230.22265625 211.327148438 230.22265625 166.966796875 c 0
 230.22265625 134.422851562 223.44140625 99.7431640625 203.861328125 69.53515625 c 1
 237.0625 43.02734375 269.01953125 7.283203125 284.583984375 -44.3251953125 c 0
 285.508789062 -47.3896484375 286.004882812 -50.638671875 286.004882812 -54.001953125 c 0
 286.004882812 -72.4951171875 270.991210938 -87.5087890625 252.499023438 -87.5087890625 c 0
 237.369140625 -87.5087890625 224.569335938 -77.4599609375 220.42578125 -63.6748046875 c 0
 185.611328125 51.76171875 25 59.5771484375 25 147.44921875 c 0
 25 177.477539062 51.474609375 199.765625 109.364257812 247.555664062 c 0
 153.1953125 283.739257812 205.262695312 327.416015625 235.434570312 368.728515625 c 0
EndSplineSet
EndChar

StartChar: uni2223
Encoding: 35 8739 35
Width: 132
Flags: HW
HStem: -233 21G<49 67> 447 20G<64 82>
VStem: 25 66<-230.05 5.96286> 40 67<222.743 463.707>
LayerCount: 2
Fore
SplineSet
25 -200 m 0
 26 -182 37 292 40 419 c 2
 40 434 l 2
 40 452 55 467 73 467 c 0
 91 467 107 452 107 434 c 0
 101 220 94 -48 91 -200 c 0
 91 -218 76 -233 58 -233 c 0
 40 -233 25 -218 25 -200 c 0
EndSplineSet
EndChar

StartChar: uni2224
Encoding: 36 8740 36
Width: 293
VWidth: 0
Flags: HW
HStem: -233 21G<-10.5029 7.49707> 447 20G<4.49707 22.4971>
VStem: -34.5029 66<-230.05 5.96286> -19.5029 67<222.743 463.707>
LayerCount: 2
Fore
SplineSet
58.4970703125 45 m 0
 40.009765625 45 25 60.009765625 25 78.4970703125 c 0
 25 89.9638671875 30.7734375 100.092773438 39.6328125 106.174804688 c 0
 60.8203125 120.721679688 80.3505859375 136.904296875 99.79296875 153.0625 c 0
 101.305664062 154.3203125 102.8203125 155.581054688 104.336914062 156.84375 c 0
 106.897460938 265.340820312 109.31640625 369.030273438 110.497070312 419 c 2
 110.497070312 434 l 2
 110.497070312 452 125.497070312 467 143.497070312 467 c 0
 161.497070312 467 177.497070312 452 177.497070312 434 c 0
 175.484375 362.19921875 173.358398438 284.3203125 171.30859375 206.783203125 c 1
 188.104492188 216.715820312 206.19140625 224.903320312 226.325195312 230.016601562 c 0
 228.96875 230.6875 231.736328125 231.043945312 234.586914062 231.043945312 c 0
 253.080078125 231.043945312 268.09375 216.03125 268.09375 197.538085938 c 0
 268.09375 181.896484375 257.3515625 168.743164062 242.821289062 165.065429688 c 0
 217.896484375 158.735351562 194.186523438 142.854492188 169.124023438 123.090820312 c 1
 165.935546875 -0.6669921875 163.126953125 -117.443359375 161.497070312 -200 c 0
 161.497070312 -218 146.497070312 -233 128.497070312 -233 c 0
 110.497070312 -233 95.4970703125 -218 95.4970703125 -200 c 0
 95.9970703125 -190.993164062 99.001953125 -67.8115234375 102.254882812 68.9384765625 c 1
 94.279296875 62.82421875 86.0419921875 56.7734375 77.4892578125 50.9013671875 c 0
 72.0380859375 47.1650390625 65.5185546875 45 58.4970703125 45 c 0
EndSplineSet
EndChar

StartChar: uni2225
Encoding: 37 8741 37
Width: 240
Flags: HW
HStem: -233 21G<49 67> 447 20G<64 82>
VStem: 25 66<-230.05 5.96286> 40 67<222.743 463.707>
LayerCount: 2
Fore
SplineSet
133 -200 m 0
 134 -182 145 292 148 419 c 2
 148 434 l 2
 148 452 163 467 181 467 c 0
 199 467 215 452 215 434 c 0
 209 220 202 -48 199 -200 c 0
 199 -218 184 -233 166 -233 c 0
 148 -233 133 -218 133 -200 c 0
25 -200 m 0
 26 -182 37 292 40 419 c 2
 40 434 l 2
 40 452 55 467 73 467 c 0
 91 467 107 452 107 434 c 0
 101 220 94 -48 91 -200 c 0
 91 -218 76 -233 58 -233 c 0
 40 -233 25 -218 25 -200 c 0
EndSplineSet
EndChar

StartChar: uni2226
Encoding: 38 8742 38
Width: 424
VWidth: 0
Flags: HW
HStem: -233 21G<142.497 160.497> 447 20G<157.497 175.497>
VStem: 118.497 66<-230.05 5.96286> 133.497 67<222.743 463.707>
LayerCount: 2
Fore
SplineSet
58.4970703125 0 m 0
 40.009765625 0 25 15.009765625 25 33.4970703125 c 0
 25 44.9638671875 30.7734375 55.0927734375 39.6328125 61.1748046875 c 0
 53.0849609375 70.41015625 93.681640625 98.4443359375 126.508789062 121.819335938 c 1
 129.364257812 242.474609375 132.190429688 363.669921875 133.497070312 419 c 2
 133.497070312 434 l 2
 133.497070312 452 148.497070312 467 166.497070312 467 c 0
 184.497070312 467 200.497070312 452 200.497070312 434 c 0
 198.181640625 351.419921875 195.717773438 260.797851562 193.391601562 171.903320312 c 1
 205.94140625 180.967773438 220.6953125 191.010742188 236.37890625 201.045898438 c 1
 238.537109375 292.747070312 240.478515625 375.876953125 241.497070312 419 c 2
 241.497070312 434 l 2
 241.497070312 452 256.497070312 467 274.497070312 467 c 0
 292.497070312 467 308.497070312 452 308.497070312 434 c 0
 306.770507812 372.422851562 304.9609375 306.375 303.188476562 239.90625 c 1
 323.684570312 250.444335938 342.790039062 258.684570312 357.728515625 262.478515625 c 0
 360.372070312 263.149414062 363.139648438 263.505859375 365.990234375 263.505859375 c 0
 384.483398438 263.505859375 399.497070312 248.493164062 399.497070312 230 c 0
 399.497070312 214.358398438 388.751953125 201.216796875 374.224609375 197.52734375 c 0
 358.749023438 193.596679688 332.329101562 179.250976562 301.076171875 159.815429688 c 1
 297.5 22.6552734375 294.287109375 -109.31640625 292.497070312 -200 c 0
 292.497070312 -218 277.497070312 -233 259.497070312 -233 c 0
 241.497070312 -233 226.497070312 -218 226.497070312 -200 c 0
 227.0546875 -189.967773438 230.71875 -38.2763671875 234.372070312 116.03515625 c 1
 219.96484375 106.21484375 205.423828125 96.12890625 191.178710938 86.1513671875 c 1
 188.384765625 -23.7099609375 185.962890625 -125.709960938 184.497070312 -200 c 0
 184.497070312 -218 169.497070312 -233 151.497070312 -233 c 0
 133.497070312 -233 118.497070312 -218 118.497070312 -200 c 0
 118.9609375 -191.65625 121.573242188 -85.328125 124.541015625 39.0009765625 c 1
 105.963867188 25.7978515625 89.7626953125 14.3134765625 77.4892578125 5.9013671875 c 0
 72.0380859375 2.1650390625 65.5185546875 0 58.4970703125 0 c 0
EndSplineSet
EndChar

StartChar: logicaland
Encoding: 39 8743 39
Width: 360
VWidth: 0
Flags: HW
LayerCount: 2
Fore
SplineSet
62.0001227531 -0.500214433168 m 0
 43.5108916872 -0.500214433168 28.4999804017 14.5106968523 28.4999804017 32.9999279182 c 0
 28.4999804017 39.1881321424 30.1814872258 44.9866985669 33.1121221922 49.9632485099 c 0
 81.0746304727 131.409017288 127.413762765 250.056233079 158.41178156 283.872255971 c 0
 163.592128701 289.523544161 174.758267318 300.5 192 300.5 c 0
 226.96635275 300.5 242.724072015 262.112885543 285.197836757 157.320424794 c 0
 300.634769208 119.23399314 316.978267536 79.0121657284 332.182707503 47.5425109143 c 0
 334.308456596 43.1427046505 335.500338657 38.2087011289 335.500338657 32.9985153776 c 0
 335.500338657 14.5074753486 320.487958723 -0.504904585563 301.996918694 -0.504904585563 c 0
 289.171997186 -0.504904585563 277.459316938 6.7798105918 271.817292497 18.4574890857 c 0
 243.679761436 76.6956347716 210.259477785 167.1858296 190.205172008 210.386399878 c 1
 164.051524746 162.090138607 127.097345093 77.5245261252 90.8454626698 15.9647257841 c 0
 85.0625529097 6.14412928145 74.3011495946 -0.500214433168 62.0001227531 -0.500214433168 c 0
EndSplineSet
EndChar

StartChar: logicalor
Encoding: 40 8744 40
Width: 357
VWidth: 0
Flags: HW
LayerCount: 2
Fore
SplineSet
25 267.0625 m 0
 25 285.549804688 40.009765625 300.55859375 58.4970703125 300.55859375 c 0
 69.8544921875 300.55859375 79.8984375 294.89453125 86 286.178710938 c 0
 131.383789062 221.345703125 146.887695312 124.6328125 166.795898438 78.2099609375 c 1
 195.040039062 121.461914062 228.974609375 216.430664062 269.861328125 284.319335938 c 0
 275.724609375 294.0546875 286.396484375 300.571289062 298.579101562 300.571289062 c 0
 317.068359375 300.571289062 332.079101562 285.560546875 332.079101562 267.071289062 c 0
 332.079101562 260.765625 330.333007812 254.86328125 327.254882812 249.751953125 c 0
 279.422851562 170.333007812 242.657226562 50.6015625 200.161132812 13.93359375 c 0
 192.228515625 7.0888671875 180.599609375 -0.5 164.537109375 -0.5 c 0
 154.44140625 -0.5 145.060546875 2.7802734375 137.784179688 7.3896484375 c 0
 111.076171875 24.3095703125 100.083984375 61.2109375 83.0390625 118.43359375 c 0
 69.0947265625 165.24609375 52.83984375 216.7265625 31.07421875 247.821289062 c 0
 27.232421875 253.318359375 25 259.931640625 25 267.0625 c 0
EndSplineSet
EndChar

StartChar: intersection
Encoding: 41 8745 41
Width: 353
VWidth: 0
Flags: HW
LayerCount: 2
Fore
SplineSet
255.86328125 41.748046875 m 0
 255.86328125 76.7353515625 261.463867188 116.918945312 261.463867188 152.66796875 c 0
 261.463867188 177.622070312 258.163085938 198.130859375 251.948242188 210.391601562 c 0
 248.201171875 217.783203125 239.999023438 233.5 201.5078125 233.5 c 0
 183.099609375 233.5 140.471679688 231.952148438 112.693359375 140.290039062 c 0
 102.223632812 105.744140625 96.1279296875 65.6650390625 91.7724609375 29.0126953125 c 0
 89.796875 12.3291015625 75.64453125 -0.572265625 58.5029296875 -0.572265625 c 0
 40.01171875 -0.572265625 25 14.4404296875 25 32.9306640625 c 0
 25 34.220703125 31.2724609375 102.680664062 48.560546875 159.725585938 c 0
 58.494140625 192.505859375 72.3212890625 224.354492188 94.3818359375 250.40625 c 0
 119.501953125 280.073242188 155.958984375 300.5 201.5078125 300.5 c 0
 239.313476562 300.5 286.9609375 289.517578125 311.748046875 240.618164062 c 0
 325.872070312 212.755859375 328.463867188 182.05859375 328.463867188 152.66796875 c 0
 328.463867188 113.54296875 322.86328125 72.75 322.86328125 41.748046875 c 0
 322.86328125 37.84375 323.009765625 33.05078125 323.009765625 32.962890625 c 0
 323.009765625 14.4736328125 307.998046875 -0.5380859375 289.508789062 -0.5380859375 c 0
 271.416992188 -0.5380859375 256.655273438 13.8349609375 256.029296875 31.8134765625 c 0
 255.9140625 35.109375 255.86328125 38.4208984375 255.86328125 41.748046875 c 0
EndSplineSet
EndChar

StartChar: union
Encoding: 42 8746 42
Width: 356
VWidth: 0
Flags: HW
LayerCount: 2
Fore
SplineSet
179.55078125 -0.5 m 0
 143.72265625 -0.5 25 15.7578125 25 231.260742188 c 0
 25 243.213867188 25.359375 255.752929688 26.1044921875 268.919921875 c 0
 27.1015625 286.5703125 41.70703125 300.553710938 59.552734375 300.553710938 c 0
 78.0419921875 300.553710938 93.0537109375 285.541992188 93.0537109375 267.052734375 c 0
 93.0537109375 264.493164062 92 250.752929688 92 231.260742188 c 0
 92 156.328125 108.053710938 116.122070312 123.909179688 95.234375 c 0
 143.123046875 69.9228515625 166.108398438 66.5 179.55078125 66.5 c 0
 182.524414062 66.5 193.076171875 70.0576171875 207.220703125 96.92578125 c 0
 223.600585938 128.041992188 237.859375 178.049804688 250.963867188 225.659179688 c 0
 255.798828125 243.224609375 260.555664062 260.525390625 265.495117188 276.754882812 c 0
 269.677734375 290.49609375 282.45703125 300.505859375 297.556640625 300.505859375 c 0
 316.049804688 300.505859375 331.063476562 285.4921875 331.063476562 266.999023438 c 0
 331.063476562 263.60546875 330.557617188 260.330078125 329.60546875 257.245117188 c 0
 325.038085938 242.237304688 320.403320312 225.418945312 315.5703125 207.861328125 c 0
 287.892578125 107.309570312 258.216796875 -0.5 179.55078125 -0.5 c 0
EndSplineSet
EndChar

StartChar: integral
Encoding: 43 8747 43
Width: 396
VWidth: 0
Flags: HW
LayerCount: 2
Fore
SplineSet
178.069335938 377.024414062 m 0
 178.069335938 431.413085938 228.220703125 466.521484375 279.212890625 466.521484375 c 0
 326.947265625 466.521484375 366.265625 430.497070312 370.947265625 379 c 0
 371.036132812 378.056640625 371.083007812 377.034179688 371.083007812 376 c 0
 371.083007812 357.509765625 356.071289062 342.498046875 337.58203125 342.498046875 c 0
 320.125 342.498046875 305.768554688 355.87890625 304.21875 372.93359375 c 0
 303.838867188 377.109375 300.795898438 399.521484375 279.212890625 399.521484375 c 0
 256.837890625 399.521484375 245.069335938 386.763671875 245.069335938 377.024414062 c 0
 245.069335938 325.732421875 254.932617188 174.87890625 254.932617188 80.837890625 c 0
 254.932617188 11.6162109375 250.836914062 -59.25390625 237.623046875 -138.5390625 c 0
 234.7421875 -155.827148438 228.239257812 -175.9375 213.674804688 -193.9765625 c 0
 201.978515625 -208.46484375 174.250976562 -233.51953125 122.38671875 -233.51953125 c 0
 97.1630859375 -233.51953125 52.30078125 -226.5859375 33.1044921875 -180.41796875 c 0
 27.55859375 -167.081054688 25 -152.098632812 25 -135.547851562 c 0
 25 -133.661132812 25.033203125 -131.75390625 25.099609375 -129.827148438 c 0
 25.71875 -111.879882812 40.4833984375 -97.5 58.580078125 -97.5 c 0
 77.0693359375 -97.5 92.080078125 -112.510742188 92.080078125 -131 c 0
 92.080078125 -131.392578125 92.0732421875 -131.783203125 92.060546875 -132.135742188 c 2
 92.060546875 -132.172851562 l 2
 92.0205078125 -133.34375 92 -134.46875 92 -135.547851562 c 0
 92 -140.517578125 92 -156.52734375 100.8984375 -162.09375 c 0
 104.640625 -164.435546875 112.396484375 -166.51953125 122.38671875 -166.51953125 c 0
 139.68359375 -166.51953125 165.491210938 -163.733398438 171.536132812 -127.4609375 c 0
 184.060546875 -52.31640625 187.932617188 14.2861328125 187.932617188 80.837890625 c 0
 187.932617188 172.642578125 178.069335938 323.586914062 178.069335938 377.024414062 c 0
EndSplineSet
EndChar

StartChar: uni222C
Encoding: 44 8748 44
Width: 661
VWidth: 0
Flags: HW
LayerCount: 2
Fore
SplineSet
178.069335938 377.024414062 m 0
 178.069335938 431.413085938 228.220703125 466.521484375 279.212890625 466.521484375 c 0
 326.947265625 466.521484375 366.265625 430.497070312 370.947265625 379 c 0
 371.036132812 378.056640625 371.083007812 377.034179688 371.083007812 376 c 0
 371.083007812 357.509765625 356.071289062 342.498046875 337.58203125 342.498046875 c 0
 320.125 342.498046875 305.768554688 355.87890625 304.21875 372.93359375 c 0
 303.838867188 377.109375 300.795898438 399.521484375 279.212890625 399.521484375 c 0
 256.837890625 399.521484375 245.069335938 386.763671875 245.069335938 377.024414062 c 0
 245.069335938 325.732421875 254.932617188 174.87890625 254.932617188 80.837890625 c 0
 254.932617188 11.6162109375 250.836914062 -59.25390625 237.623046875 -138.5390625 c 0
 234.7421875 -155.827148438 228.239257812 -175.9375 213.674804688 -193.9765625 c 0
 201.978515625 -208.46484375 174.250976562 -233.51953125 122.38671875 -233.51953125 c 0
 97.1630859375 -233.51953125 52.30078125 -226.5859375 33.1044921875 -180.41796875 c 0
 27.55859375 -167.081054688 25 -152.098632812 25 -135.547851562 c 0
 25 -133.661132812 25.033203125 -131.75390625 25.099609375 -129.827148438 c 0
 25.71875 -111.879882812 40.4833984375 -97.5 58.580078125 -97.5 c 0
 77.0693359375 -97.5 92.080078125 -112.510742188 92.080078125 -131 c 0
 92.080078125 -131.392578125 92.0732421875 -131.783203125 92.060546875 -132.135742188 c 2
 92.060546875 -132.172851562 l 2
 92.0205078125 -133.34375 92 -134.46875 92 -135.547851562 c 0
 92 -140.517578125 92 -156.52734375 100.8984375 -162.09375 c 0
 104.640625 -164.435546875 112.396484375 -166.51953125 122.38671875 -166.51953125 c 0
 139.68359375 -166.51953125 165.491210938 -163.733398438 171.536132812 -127.4609375 c 0
 184.060546875 -52.31640625 187.932617188 14.2861328125 187.932617188 80.837890625 c 0
 187.932617188 172.642578125 178.069335938 323.586914062 178.069335938 377.024414062 c 0
443.262695312 377.543945312 m 0
 443.262695312 431.932617188 493.4140625 467.041015625 544.40625 467.041015625 c 0
 592.140625 467.041015625 631.458984375 431.017578125 636.140625 379.51953125 c 0
 636.23046875 378.576171875 636.27734375 377.553710938 636.27734375 376.51953125 c 0
 636.27734375 358.029296875 621.265625 343.017578125 602.775390625 343.017578125 c 0
 585.318359375 343.017578125 570.962890625 356.3984375 569.412109375 373.454101562 c 0
 569.032226562 377.62890625 565.990234375 400.041015625 544.40625 400.041015625 c 0
 522.032226562 400.041015625 510.262695312 387.283203125 510.262695312 377.543945312 c 0
 510.262695312 326.251953125 520.125976562 175.3984375 520.125976562 81.357421875 c 0
 520.125976562 12.1357421875 516.03125 -58.734375 502.81640625 -138.018554688 c 0
 499.935546875 -155.307617188 493.432617188 -175.41796875 478.869140625 -193.45703125 c 0
 467.171875 -207.9453125 439.4453125 -233 387.580078125 -233 c 0
 362.356445312 -233 317.494140625 -226.065429688 298.297851562 -179.8984375 c 0
 292.751953125 -166.561523438 290.193359375 -151.578125 290.193359375 -135.028320312 c 0
 290.193359375 -133.141601562 290.227539062 -131.234375 290.293945312 -129.307617188 c 0
 290.912109375 -111.360351562 305.676757812 -96.9794921875 323.7734375 -96.9794921875 c 0
 342.262695312 -96.9794921875 357.274414062 -111.991210938 357.274414062 -130.48046875 c 0
 357.274414062 -130.873046875 357.267578125 -131.263671875 357.254882812 -131.616210938 c 2
 357.254882812 -131.653320312 l 2
 357.213867188 -132.82421875 357.193359375 -133.94921875 357.193359375 -135.028320312 c 0
 357.193359375 -139.998046875 357.193359375 -156.0078125 366.091796875 -161.57421875 c 0
 369.834960938 -163.915039062 377.58984375 -166 387.580078125 -166 c 0
 404.876953125 -166 430.684570312 -163.213867188 436.73046875 -126.94140625 c 0
 449.25390625 -51.796875 453.125976562 14.8056640625 453.125976562 81.357421875 c 0
 453.125976562 173.162109375 443.262695312 324.106445312 443.262695312 377.543945312 c 0
EndSplineSet
EndChar

StartChar: uni222D
Encoding: 45 8749 45
Width: 961
VWidth: 0
Flags: HW
LayerCount: 2
Fore
SplineSet
178.069335938 377.024414062 m 0
 178.069335938 431.413085938 228.220703125 466.521484375 279.212890625 466.521484375 c 0
 326.947265625 466.521484375 366.265625 430.497070312 370.947265625 379 c 0
 371.036132812 378.056640625 371.083007812 377.034179688 371.083007812 376 c 0
 371.083007812 357.509765625 356.071289062 342.498046875 337.58203125 342.498046875 c 0
 320.125 342.498046875 305.768554688 355.87890625 304.21875 372.93359375 c 0
 303.838867188 377.109375 300.795898438 399.521484375 279.212890625 399.521484375 c 0
 256.837890625 399.521484375 245.069335938 386.763671875 245.069335938 377.024414062 c 0
 245.069335938 325.732421875 254.932617188 174.87890625 254.932617188 80.837890625 c 0
 254.932617188 11.6162109375 250.836914062 -59.25390625 237.623046875 -138.5390625 c 0
 234.7421875 -155.827148438 228.239257812 -175.9375 213.674804688 -193.9765625 c 0
 201.978515625 -208.46484375 174.250976562 -233.51953125 122.38671875 -233.51953125 c 0
 97.1630859375 -233.51953125 52.30078125 -226.5859375 33.1044921875 -180.41796875 c 0
 27.55859375 -167.081054688 25 -152.098632812 25 -135.547851562 c 0
 25 -133.661132812 25.033203125 -131.75390625 25.099609375 -129.827148438 c 0
 25.71875 -111.879882812 40.4833984375 -97.5 58.580078125 -97.5 c 0
 77.0693359375 -97.5 92.080078125 -112.510742188 92.080078125 -131 c 0
 92.080078125 -131.392578125 92.0732421875 -131.783203125 92.060546875 -132.135742188 c 2
 92.060546875 -132.172851562 l 2
 92.0205078125 -133.34375 92 -134.46875 92 -135.547851562 c 0
 92 -140.517578125 92 -156.52734375 100.8984375 -162.09375 c 0
 104.640625 -164.435546875 112.396484375 -166.51953125 122.38671875 -166.51953125 c 0
 139.68359375 -166.51953125 165.491210938 -163.733398438 171.536132812 -127.4609375 c 0
 184.060546875 -52.31640625 187.932617188 14.2861328125 187.932617188 80.837890625 c 0
 187.932617188 172.642578125 178.069335938 323.586914062 178.069335938 377.024414062 c 0
464.262695312 377.543945312 m 0
 464.262695312 431.932617188 514.4140625 467.041015625 565.40625 467.041015625 c 0
 613.140625 467.041015625 652.458984375 431.017578125 657.140625 379.51953125 c 0
 657.23046875 378.576171875 657.27734375 377.553710938 657.27734375 376.51953125 c 0
 657.27734375 358.029296875 642.265625 343.017578125 623.775390625 343.017578125 c 0
 606.318359375 343.017578125 591.962890625 356.3984375 590.412109375 373.454101562 c 0
 590.032226562 377.62890625 586.990234375 400.041015625 565.40625 400.041015625 c 0
 543.032226562 400.041015625 531.262695312 387.283203125 531.262695312 377.543945312 c 0
 531.262695312 326.251953125 541.125976562 175.3984375 541.125976562 81.357421875 c 0
 541.125976562 12.1357421875 537.03125 -58.734375 523.81640625 -138.018554688 c 0
 520.935546875 -155.307617188 514.432617188 -175.41796875 499.869140625 -193.45703125 c 0
 488.171875 -207.9453125 460.4453125 -233 408.580078125 -233 c 0
 383.356445312 -233 338.494140625 -226.065429688 319.297851562 -179.8984375 c 0
 313.751953125 -166.561523438 311.193359375 -151.578125 311.193359375 -135.028320312 c 0
 311.193359375 -133.141601562 311.227539062 -131.234375 311.293945312 -129.307617188 c 0
 311.912109375 -111.360351562 326.676757812 -96.9794921875 344.7734375 -96.9794921875 c 0
 363.262695312 -96.9794921875 378.274414062 -111.991210938 378.274414062 -130.48046875 c 0
 378.274414062 -130.873046875 378.267578125 -131.263671875 378.254882812 -131.616210938 c 2
 378.254882812 -131.653320312 l 2
 378.213867188 -132.82421875 378.193359375 -133.94921875 378.193359375 -135.028320312 c 0
 378.193359375 -139.998046875 378.193359375 -156.0078125 387.091796875 -161.57421875 c 0
 390.834960938 -163.915039062 398.58984375 -166 408.580078125 -166 c 0
 425.876953125 -166 451.684570312 -163.213867188 457.73046875 -126.94140625 c 0
 470.25390625 -51.796875 474.125976562 14.8056640625 474.125976562 81.357421875 c 0
 474.125976562 173.162109375 464.262695312 324.106445312 464.262695312 377.543945312 c 0
743.262695312 377.543945312 m 0
 743.262695312 431.932617188 793.4140625 467.041015625 844.40625 467.041015625 c 0
 892.140625 467.041015625 931.458984375 431.017578125 936.140625 379.51953125 c 0
 936.23046875 378.576171875 936.27734375 377.553710938 936.27734375 376.51953125 c 0
 936.27734375 358.029296875 921.265625 343.017578125 902.775390625 343.017578125 c 0
 885.318359375 343.017578125 870.962890625 356.3984375 869.412109375 373.454101562 c 0
 869.032226562 377.62890625 865.990234375 400.041015625 844.40625 400.041015625 c 0
 822.032226562 400.041015625 810.262695312 387.283203125 810.262695312 377.543945312 c 0
 810.262695312 326.251953125 820.125976562 175.3984375 820.125976562 81.357421875 c 0
 820.125976562 12.1357421875 816.03125 -58.734375 802.81640625 -138.018554688 c 0
 799.935546875 -155.307617188 793.432617188 -175.41796875 778.869140625 -193.45703125 c 0
 767.171875 -207.9453125 739.4453125 -233 687.580078125 -233 c 0
 662.356445312 -233 617.494140625 -226.065429688 598.297851562 -179.8984375 c 0
 592.751953125 -166.561523438 590.193359375 -151.578125 590.193359375 -135.028320312 c 0
 590.193359375 -133.141601562 590.227539062 -131.234375 590.293945312 -129.307617188 c 0
 590.912109375 -111.360351562 605.676757812 -96.9794921875 623.7734375 -96.9794921875 c 0
 642.262695312 -96.9794921875 657.274414062 -111.991210938 657.274414062 -130.48046875 c 0
 657.274414062 -130.873046875 657.267578125 -131.263671875 657.254882812 -131.616210938 c 2
 657.254882812 -131.653320312 l 2
 657.213867188 -132.82421875 657.193359375 -133.94921875 657.193359375 -135.028320312 c 0
 657.193359375 -139.998046875 657.193359375 -156.0078125 666.091796875 -161.57421875 c 0
 669.834960938 -163.915039062 677.58984375 -166 687.580078125 -166 c 0
 704.876953125 -166 730.684570312 -163.213867188 736.73046875 -126.94140625 c 0
 749.25390625 -51.796875 753.125976562 14.8056640625 753.125976562 81.357421875 c 0
 753.125976562 173.162109375 743.262695312 324.106445312 743.262695312 377.543945312 c 0
EndSplineSet
EndChar

StartChar: uni222E
Encoding: 46 8750 46
Width: 396
VWidth: 0
Flags: HW
LayerCount: 2
Fore
SplineSet
252.294921875 190.6328125 m 1
 253.487304688 159.751953125 254.44921875 129.142578125 254.794921875 101.865234375 c 1
 267.850585938 115.802734375 277.248046875 133.63671875 277.248046875 153.424804688 c 0
 277.248046875 168.744140625 271.829101562 184.305664062 252.294921875 190.6328125 c 1
185.413085938 186.103515625 m 1
 170.626953125 179.591796875 169.177734375 170.081054688 165.76953125 129.185546875 c 0
 165.509765625 126.061523438 165.374023438 122.885742188 165.374023438 119.733398438 c 0
 165.374023438 113.69140625 166.119140625 88.67578125 178.10546875 77.46875 c 0
 180.469726562 75.2578125 183.243164062 73.3330078125 187.908203125 72.3017578125 c 1
 187.924804688 75.3203125 187.932617188 78.3388671875 187.932617188 81.357421875 c 0
 187.932617188 111.698242188 186.85546875 148.498046875 185.413085938 186.103515625 c 1
178.069335938 377.543945312 m 0
 178.069335938 431.932617188 228.220703125 467.041015625 279.212890625 467.041015625 c 0
 326.947265625 467.041015625 366.265625 431.017578125 370.947265625 379.51953125 c 0
 371.037109375 378.576171875 371.083984375 377.553710938 371.083984375 376.51953125 c 0
 371.083984375 358.029296875 356.072265625 343.017578125 337.58203125 343.017578125 c 0
 320.125 343.017578125 305.76953125 356.3984375 304.21875 373.454101562 c 0
 303.838867188 377.62890625 300.796875 400.041015625 279.212890625 400.041015625 c 0
 256.838867188 400.041015625 245.069335938 387.283203125 245.069335938 377.543945312 c 0
 245.069335938 354.056640625 247.137695312 309.692382812 249.379882812 259.466796875 c 1
 310.287109375 251.918945312 344.248046875 206.861328125 344.248046875 153.424804688 c 0
 344.248046875 94.1005859375 302.911132812 42.4267578125 253.696289062 18.55859375 c 1
 251.663085938 -31.0546875 246.881835938 -82.4716796875 237.623046875 -138.018554688 c 0
 234.7421875 -155.307617188 228.239257812 -175.41796875 213.67578125 -193.45703125 c 0
 201.978515625 -207.9453125 174.251953125 -233 122.38671875 -233 c 0
 97.1630859375 -233 52.30078125 -226.065429688 33.1044921875 -179.8984375 c 0
 27.55859375 -166.561523438 25 -151.578125 25 -135.028320312 c 0
 25 -133.141601562 25.0341796875 -131.234375 25.1005859375 -129.307617188 c 0
 25.71875 -111.360351562 40.4833984375 -96.9794921875 58.580078125 -96.9794921875 c 0
 77.0693359375 -96.9794921875 92.0810546875 -111.991210938 92.0810546875 -130.48046875 c 0
 92.0810546875 -130.873046875 92.07421875 -131.263671875 92.0615234375 -131.616210938 c 2
 92.0615234375 -131.653320312 l 2
 92.0205078125 -132.82421875 92 -133.94921875 92 -135.028320312 c 0
 92 -139.998046875 92 -156.0078125 100.8984375 -161.57421875 c 0
 104.641601562 -163.915039062 112.396484375 -166 122.38671875 -166 c 0
 139.68359375 -166 165.491210938 -163.213867188 171.537109375 -126.94140625 c 0
 179.30078125 -80.3544921875 183.740234375 -37.05078125 185.9921875 4.9931640625 c 1
 133.90234375 10.0166015625 98.3740234375 53.08984375 98.3740234375 119.733398438 c 0
 98.3740234375 125.998046875 98.4072265625 127.129882812 99.525390625 141.313476562 c 0
 101.075195312 160.965820312 101.791015625 185.607421875 115.766601562 209.868164062 c 0
 130.737304688 235.854492188 156.639648438 248.912109375 182.497070312 255.201171875 c 1
 180.209960938 306.5859375 178.069335938 352.647460938 178.069335938 377.543945312 c 0
EndSplineSet
EndChar

StartChar: uni222F
Encoding: 47 8751 47
Width: 661
VWidth: 0
Flags: HW
LayerCount: 2
Fore
SplineSet
520.112304688 87.45703125 m 1
 523.415039062 89.4658203125 526.5234375 91.615234375 529.403320312 93.9150390625 c 0
 543.227539062 104.955078125 550.131835938 116.869140625 550.131835938 136.665039062 c 0
 550.131835938 175.201171875 530.674804688 190.215820312 517.229492188 197.268554688 c 1
 518.759765625 158.581054688 519.973632812 119.9765625 520.112304688 87.45703125 c 1
254.83203125 62.3134765625 m 1
 279.359375 60.3974609375 305.723632812 60.06640625 330.834960938 59.8583984375 c 0
 337.254882812 59.8046875 373.427734375 59.3486328125 373.858398438 59.3486328125 c 0
 393.481445312 59.3486328125 423.3671875 60.380859375 453.048828125 65.3837890625 c 1
 453.1015625 70.7119140625 453.125976562 76.03515625 453.125976562 81.357421875 c 0
 453.125976562 119.099609375 451.458984375 166.836914062 449.495117188 213.684570312 c 1
 438.893554688 214.55859375 427.515625 215.002929688 415.455078125 215.002929688 c 0
 382.232421875 215.002929688 302.431640625 209.74609375 251.875976562 200.756835938 c 1
 253.580078125 158.287109375 254.932617188 115.666015625 254.932617188 80.837890625 c 0
 254.932617188 74.677734375 254.900390625 68.5048828125 254.83203125 62.3134765625 c 1
185.600585938 180.634765625 m 1
 150.545898438 162.763671875 147.99609375 141.018554688 147.99609375 126.391601562 c 0
 147.99609375 111.899414062 149.387695312 89.37890625 187.921875 74.8974609375 c 1
 187.928710938 76.8779296875 187.932617188 78.857421875 187.932617188 80.837890625 c 0
 187.932617188 109.845703125 186.948242188 144.758789062 185.600585938 180.634765625 c 1
178.069335938 377.024414062 m 0
 178.069335938 431.413085938 228.220703125 466.521484375 279.212890625 466.521484375 c 0
 326.947265625 466.521484375 366.265625 430.497070312 370.947265625 379 c 0
 371.037109375 378.056640625 371.083984375 377.034179688 371.083984375 376 c 0
 371.083984375 357.509765625 356.072265625 342.498046875 337.58203125 342.498046875 c 0
 320.125 342.498046875 305.76953125 355.87890625 304.21875 372.93359375 c 0
 303.838867188 377.109375 300.796875 399.521484375 279.212890625 399.521484375 c 0
 256.838867188 399.521484375 245.069335938 386.763671875 245.069335938 377.024414062 c 0
 245.069335938 355.010742188 246.885742188 314.657226562 248.959960938 268.327148438 c 1
 283.078125 273.907226562 319.102539062 276.69921875 353.959960938 279.3984375 c 0
 375.198242188 281.044921875 395.740234375 282.002929688 415.455078125 282.002929688 c 0
 424.532226562 282.002929688 435.090820312 281.858398438 446.532226562 281.200195312 c 1
 444.729492188 321.827148438 443.262695312 356.936523438 443.262695312 377.543945312 c 0
 443.262695312 431.932617188 493.4140625 467.041015625 544.40625 467.041015625 c 0
 592.140625 467.041015625 631.458984375 431.017578125 636.140625 379.51953125 c 0
 636.23046875 378.576171875 636.27734375 377.553710938 636.27734375 376.51953125 c 0
 636.27734375 358.029296875 621.265625 343.017578125 602.775390625 343.017578125 c 0
 585.318359375 343.017578125 570.962890625 356.3984375 569.412109375 373.454101562 c 0
 569.032226562 377.62890625 565.990234375 400.041015625 544.40625 400.041015625 c 0
 522.032226562 400.041015625 510.262695312 387.283203125 510.262695312 377.543945312 c 0
 510.262695312 355.758789062 512.041992188 316.014648438 514.088867188 270.291015625 c 1
 547.795898438 260.314453125 580.009765625 241.940429688 599.396484375 208.205078125 c 0
 607.049804688 194.88671875 617.131835938 170.844726562 617.131835938 136.665039062 c 0
 617.131835938 90.724609375 594.181640625 40.55078125 518.657226562 13.1298828125 c 1
 516.501953125 -34.8056640625 511.737304688 -84.4951171875 502.81640625 -138.018554688 c 0
 499.935546875 -155.307617188 493.432617188 -175.41796875 478.869140625 -193.45703125 c 0
 467.171875 -207.9453125 439.4453125 -233 387.580078125 -233 c 0
 362.356445312 -233 317.494140625 -226.065429688 298.297851562 -179.8984375 c 0
 292.751953125 -166.561523438 290.193359375 -151.578125 290.193359375 -135.028320312 c 0
 290.193359375 -133.141601562 290.227539062 -131.234375 290.293945312 -129.307617188 c 0
 290.912109375 -111.360351562 305.676757812 -96.9794921875 323.7734375 -96.9794921875 c 0
 342.262695312 -96.9794921875 357.274414062 -111.991210938 357.274414062 -130.48046875 c 0
 357.274414062 -130.873046875 357.267578125 -131.263671875 357.254882812 -131.616210938 c 2
 357.254882812 -131.653320312 l 2
 357.213867188 -132.82421875 357.193359375 -133.94921875 357.193359375 -135.028320312 c 0
 357.193359375 -139.998046875 357.193359375 -156.0078125 366.091796875 -161.57421875 c 0
 369.834960938 -163.915039062 377.58984375 -166 387.580078125 -166 c 0
 404.876953125 -166 430.684570312 -163.213867188 436.73046875 -126.94140625 c 0
 444.010742188 -83.255859375 448.3671875 -42.4580078125 450.739257812 -2.8779296875 c 1
 428.067382812 -5.966796875 402.54296875 -7.6513671875 373.858398438 -7.6513671875 c 0
 373.422851562 -7.6513671875 333.473632812 -7.166015625 330.267578125 -7.1396484375 c 0
 305.024414062 -6.9296875 278.525390625 -6.69921875 252.567382812 -4.8134765625 c 1
 250.099609375 -47.3662109375 245.46875 -91.4697265625 237.623046875 -138.5390625 c 0
 234.7421875 -155.827148438 228.239257812 -175.9375 213.67578125 -193.9765625 c 0
 201.978515625 -208.46484375 174.251953125 -233.51953125 122.38671875 -233.51953125 c 0
 97.1630859375 -233.51953125 52.30078125 -226.5859375 33.1044921875 -180.41796875 c 0
 27.55859375 -167.081054688 25 -152.098632812 25 -135.547851562 c 0
 25 -133.661132812 25.0341796875 -131.75390625 25.1005859375 -129.827148438 c 0
 25.71875 -111.879882812 40.4833984375 -97.5 58.580078125 -97.5 c 0
 77.0693359375 -97.5 92.0810546875 -112.510742188 92.0810546875 -131 c 0
 92.0810546875 -131.392578125 92.07421875 -131.783203125 92.0615234375 -132.135742188 c 2
 92.0615234375 -132.172851562 l 2
 92.0205078125 -133.34375 92 -134.46875 92 -135.547851562 c 0
 92 -140.517578125 92 -156.52734375 100.8984375 -162.09375 c 0
 104.641601562 -164.435546875 112.396484375 -166.51953125 122.38671875 -166.51953125 c 0
 139.68359375 -166.51953125 165.491210938 -163.733398438 171.537109375 -127.4609375 c 0
 179.348632812 -80.587890625 183.794921875 -37.0390625 186.034179688 5.248046875 c 1
 154.340820312 13.453125 126.500976562 27.26171875 106.874023438 50.6396484375 c 0
 94.630859375 65.22265625 80.99609375 89.705078125 80.99609375 126.391601562 c 0
 80.99609375 157.06640625 90.9267578125 197.401367188 134.11328125 227.794921875 c 0
 148.455078125 237.887695312 164.833007812 245.8046875 182.612304688 252.103515625 c 1
 180.282226562 304.522460938 178.069335938 351.711914062 178.069335938 377.024414062 c 0
EndSplineSet
EndChar

StartChar: uni2230
Encoding: 48 8752 48
Width: 961
VWidth: 0
Flags: HW
LayerCount: 2
Fore
SplineSet
743.262695312 377.543945312 m 0
 743.262695312 431.932617188 793.4140625 467.041015625 844.40625 467.041015625 c 0
 892.140625 467.041015625 931.458984375 431.017578125 936.140625 379.51953125 c 0
 936.23046875 378.576171875 936.27734375 377.553710938 936.27734375 376.51953125 c 0
 936.27734375 358.029296875 921.265625 343.017578125 902.775390625 343.017578125 c 0
 885.318359375 343.017578125 870.962890625 356.3984375 869.412109375 373.454101562 c 0
 869.032226562 377.62890625 865.990234375 400.041015625 844.40625 400.041015625 c 0
 822.032226562 400.041015625 810.262695312 387.283203125 810.262695312 377.543945312 c 0
 810.262695312 356.475585938 811.926757812 318.610351562 813.887695312 274.783203125 c 1
 818.241210938 273.080078125 822.510742188 271.122070312 826.731445312 268.991210938 c 0
 844.080078125 260.233398438 861.006835938 247.751953125 875.786132812 232.353515625 c 0
 896.618164062 210.6484375 915.369140625 181.282226562 915.369140625 145.834960938 c 0
 915.369140625 144.912109375 915.224609375 93.4716796875 888.765625 57.486328125 c 0
 871.978515625 34.65625 847.524414062 21.5185546875 818.771484375 15.7392578125 c 1
 816.673828125 -33.0029296875 811.899414062 -83.5234375 802.81640625 -138.018554688 c 0
 799.935546875 -155.307617188 793.432617188 -175.41796875 778.869140625 -193.45703125 c 0
 767.171875 -207.9453125 739.4453125 -233 687.580078125 -233 c 0
 662.356445312 -233 617.494140625 -226.065429688 598.297851562 -179.8984375 c 0
 592.751953125 -166.561523438 590.193359375 -151.578125 590.193359375 -135.028320312 c 0
 590.193359375 -133.141601562 590.227539062 -131.234375 590.293945312 -129.307617188 c 0
 590.912109375 -111.360351562 605.676757812 -96.9794921875 623.7734375 -96.9794921875 c 0
 642.262695312 -96.9794921875 657.274414062 -111.991210938 657.274414062 -130.48046875 c 0
 657.274414062 -130.873046875 657.267578125 -131.263671875 657.254882812 -131.616210938 c 2
 657.254882812 -131.653320312 l 2
 657.213867188 -132.82421875 657.193359375 -133.94921875 657.193359375 -135.028320312 c 0
 657.193359375 -139.998046875 657.193359375 -156.0078125 666.091796875 -161.57421875 c 0
 669.834960938 -163.915039062 677.58984375 -166 687.580078125 -166 c 0
 704.876953125 -166 730.684570312 -163.213867188 736.73046875 -126.94140625 c 0
 744.823242188 -78.3818359375 749.303710938 -33.3896484375 751.459960938 10.3271484375 c 1
 707.227539062 8.2666015625 665.35546875 7.2392578125 624.724609375 7.2392578125 c 0
 595.7890625 7.2392578125 567.499023438 7.7626953125 539.455078125 8.80078125 c 1
 537.211914062 -37.7978515625 532.469726562 -86.1044921875 523.81640625 -138.018554688 c 0
 520.935546875 -155.307617188 514.432617188 -175.41796875 499.869140625 -193.45703125 c 0
 488.171875 -207.9453125 460.4453125 -233 408.580078125 -233 c 0
 383.356445312 -233 338.494140625 -226.065429688 319.297851562 -179.8984375 c 0
 313.751953125 -166.561523438 311.193359375 -151.578125 311.193359375 -135.028320312 c 0
 311.193359375 -133.141601562 311.227539062 -131.234375 311.293945312 -129.307617188 c 0
 311.912109375 -111.360351562 326.676757812 -96.9794921875 344.7734375 -96.9794921875 c 0
 363.262695312 -96.9794921875 378.274414062 -111.991210938 378.274414062 -130.48046875 c 0
 378.274414062 -130.873046875 378.267578125 -131.263671875 378.254882812 -131.616210938 c 2
 378.254882812 -131.653320312 l 2
 378.213867188 -132.82421875 378.193359375 -133.94921875 378.193359375 -135.028320312 c 0
 378.193359375 -139.998046875 378.193359375 -156.0078125 387.091796875 -161.57421875 c 0
 390.834960938 -163.915039062 398.58984375 -166 408.580078125 -166 c 0
 425.876953125 -166 451.684570312 -163.213867188 457.73046875 -126.94140625 c 0
 465.943359375 -77.6630859375 470.435546875 -32.05859375 472.5546875 12.267578125 c 1
 402.389648438 16.9306640625 331.760742188 24.802734375 254.310546875 35.744140625 c 1
 252.741210938 -19.3505859375 247.986328125 -76.3564453125 237.623046875 -138.5390625 c 0
 234.7421875 -155.827148438 228.239257812 -175.9375 213.674804688 -193.9765625 c 0
 201.978515625 -208.46484375 174.250976562 -233.51953125 122.38671875 -233.51953125 c 0
 97.1630859375 -233.51953125 52.30078125 -226.5859375 33.1044921875 -180.41796875 c 0
 27.55859375 -167.081054688 25 -152.098632812 25 -135.547851562 c 0
 25 -133.661132812 25.033203125 -131.75390625 25.099609375 -129.827148438 c 0
 25.71875 -111.879882812 40.4833984375 -97.5 58.580078125 -97.5 c 0
 77.0693359375 -97.5 92.080078125 -112.510742188 92.080078125 -131 c 0
 92.080078125 -131.392578125 92.0732421875 -131.783203125 92.060546875 -132.135742188 c 2
 92.060546875 -132.172851562 l 2
 92.0205078125 -133.34375 92 -134.46875 92 -135.547851562 c 0
 92 -140.517578125 92 -156.52734375 100.8984375 -162.09375 c 0
 104.640625 -164.435546875 112.396484375 -166.51953125 122.38671875 -166.51953125 c 0
 139.68359375 -166.51953125 165.491210938 -163.733398438 171.536132812 -127.4609375 c 0
 181.86328125 -65.4990234375 186.307617188 -9.3447265625 187.548828125 45.76171875 c 1
 140.4453125 55.2626953125 102.72265625 95.7138671875 102.72265625 145.877929688 c 0
 102.72265625 160.651367188 109.493164062 205.467773438 134.997070312 235.752929688 c 0
 147.530273438 250.634765625 163.454101562 260.85546875 181.928710938 267.43359375 c 1
 179.8671875 313.611328125 178.069335938 354.20703125 178.069335938 377.024414062 c 0
 178.069335938 431.413085938 228.220703125 466.521484375 279.212890625 466.521484375 c 0
 326.947265625 466.521484375 366.265625 430.497070312 370.947265625 379 c 0
 371.036132812 378.056640625 371.083007812 377.034179688 371.083007812 376 c 0
 371.083007812 357.509765625 356.071289062 342.498046875 337.58203125 342.498046875 c 0
 320.125 342.498046875 305.768554688 355.87890625 304.21875 372.93359375 c 0
 303.838867188 377.109375 300.795898438 399.521484375 279.212890625 399.521484375 c 0
 256.837890625 399.521484375 245.069335938 386.763671875 245.069335938 377.024414062 c 0
 245.069335938 356.595703125 246.633789062 320.374023438 248.516601562 278.23828125 c 1
 329.936523438 284.608398438 399.862304688 287.176757812 467.247070312 287.641601562 c 1
 465.577148438 325.524414062 464.262695312 358.033203125 464.262695312 377.543945312 c 0
 464.262695312 431.932617188 514.4140625 467.041015625 565.40625 467.041015625 c 0
 613.140625 467.041015625 652.458984375 431.017578125 657.140625 379.51953125 c 0
 657.23046875 378.576171875 657.27734375 377.553710938 657.27734375 376.51953125 c 0
 657.27734375 358.029296875 642.265625 343.017578125 623.775390625 343.017578125 c 0
 606.318359375 343.017578125 591.962890625 356.3984375 590.412109375 373.454101562 c 0
 590.032226562 377.62890625 586.990234375 400.041015625 565.40625 400.041015625 c 0
 543.032226562 400.041015625 531.262695312 387.283203125 531.262695312 377.543945312 c 0
 531.262695312 358.537109375 532.6171875 325.860351562 534.322265625 287.46875 c 1
 584.602539062 286.909179688 635.13671875 285.489257812 689.8984375 283.954101562 c 0
 708.23046875 283.439453125 727.040039062 282.912109375 746.478515625 282.3984375 c 1
 744.701171875 322.516601562 743.262695312 357.138671875 743.262695312 377.543945312 c 0
749.427734375 215.297851562 m 1
 728.22265625 215.852539062 707.8046875 216.424804688 687.989257812 216.98046875 c 0
 634.5859375 218.478515625 585.583984375 219.849609375 537.279296875 220.4296875 c 1
 539.334960938 171.822265625 541.125976562 121.431640625 541.125976562 81.357421875 c 0
 541.125976562 79.498046875 541.1171875 77.6376953125 541.1171875 75.7763671875 c 0
 568.609375 74.751953125 596.33203125 74.2392578125 624.724609375 74.2392578125 c 0
 665.666015625 74.2392578125 708.03125 75.3115234375 753.12109375 77.482421875 c 0
 753.12109375 78.7744140625 753.125976562 80.0654296875 753.125976562 81.357421875 c 0
 753.125976562 119.532226562 751.420898438 167.93359375 749.427734375 215.297851562 c 1
820.120117188 85.474609375 m 1
 827.229492188 88.603515625 831.471679688 92.6552734375 834.752929688 97.1171875 c 0
 846.530273438 113.135742188 848.369140625 145.329101562 848.369140625 145.834960938 c 0
 848.369140625 160.328125 835.432617188 180.258789062 817.302734375 195.399414062 c 1
 818.830078125 156.549804688 820.024414062 117.881835938 820.120117188 85.474609375 c 1
470.201171875 220.66015625 m 1
 402.797851562 220.25 333.3125 217.725585938 251.448242188 211.258789062 c 1
 252.984375 174.131835938 254.315429688 136.385742188 254.768554688 103.358398438 c 1
 333.544921875 92.056640625 404.244140625 84.0224609375 474.125 79.2939453125 c 1
 474.125 79.982421875 474.125976562 80.669921875 474.125976562 81.357421875 c 0
 474.125976562 120.974609375 472.2890625 171.604492188 470.201171875 220.66015625 c 1
187.53125 116.62890625 m 1
 187.057617188 140.013671875 186.205078125 165.431640625 185.19921875 191.095703125 c 1
 178.60546875 182.584960938 174.130859375 170.234375 170.381835938 152.16796875 c 0
 169.923828125 149.9609375 169.72265625 147.866210938 169.72265625 145.877929688 c 0
 169.72265625 134.8671875 176.463867188 123.392578125 187.53125 116.62890625 c 1
EndSplineSet
EndChar

StartChar: uni2231
Encoding: 49 8753 49
Width: 481
VWidth: 0
Flags: HW
LayerCount: 2
Fore
SplineSet
295.323242188 134.504882812 m 0
 298.458984375 134.504882812 305.092773438 133.62109375 315.9375 133.62109375 c 0
 331.571289062 133.62109375 342.013671875 135.623046875 348.831054688 137.85546875 c 1
 323.56640625 167.400390625 295.234375 178.53515625 264.79296875 178.53515625 c 0
 260.862304688 178.53515625 256.8515625 178.325195312 252.7734375 177.907226562 c 1
 254.03125 143.412109375 254.932617188 109.788085938 254.932617188 81.357421875 c 0
 254.932617188 12.1357421875 250.836914062 -58.734375 237.623046875 -138.01953125 c 0
 234.7421875 -155.307617188 228.239257812 -175.41796875 213.674804688 -193.45703125 c 0
 201.978515625 -207.9453125 174.250976562 -233 122.38671875 -233 c 0
 97.1630859375 -233 52.30078125 -226.06640625 33.1044921875 -179.8984375 c 0
 27.55859375 -166.561523438 25 -151.579101562 25 -135.028320312 c 0
 25 -133.141601562 25.033203125 -131.234375 25.099609375 -129.307617188 c 0
 25.71875 -111.360351562 40.4833984375 -96.98046875 58.580078125 -96.98046875 c 0
 77.0693359375 -96.98046875 92.080078125 -111.991210938 92.080078125 -130.48046875 c 0
 92.080078125 -130.873046875 92.0732421875 -131.263671875 92.060546875 -131.616210938 c 2
 92.060546875 -131.653320312 l 2
 92.0205078125 -132.82421875 92 -133.94921875 92 -135.028320312 c 0
 92 -139.998046875 92 -156.0078125 100.8984375 -161.57421875 c 0
 104.640625 -163.916015625 112.396484375 -166 122.38671875 -166 c 0
 139.68359375 -166 165.491210938 -163.213867188 171.536132812 -126.94140625 c 0
 184.060546875 -51.796875 187.932617188 14.8056640625 187.932617188 81.357421875 c 0
 187.932617188 103.418945312 187.36328125 128.89453125 186.498046875 155.612304688 c 1
 161.728515625 141.948242188 136.5546875 122.30859375 112.782226562 97.05078125 c 0
 106.662109375 90.5673828125 97.9921875 86.5107421875 88.3818359375 86.5107421875 c 0
 69.896484375 86.5107421875 54.888671875 101.518554688 54.888671875 120.004882812 c 0
 54.888671875 128.879882812 58.3486328125 136.954101562 63.9912109375 142.94921875 c 0
 99.8994140625 181.102539062 140.7109375 211.3203125 183.657226562 228.813476562 c 1
 180.993164062 290.440429688 178.069335938 348.447265625 178.069335938 377.543945312 c 0
 178.069335938 431.932617188 228.220703125 467.041015625 279.212890625 467.041015625 c 0
 326.947265625 467.041015625 366.265625 431.016601562 370.947265625 379.51953125 c 0
 371.036132812 378.576171875 371.083007812 377.553710938 371.083007812 376.51953125 c 0
 371.083007812 358.029296875 356.071289062 343.017578125 337.58203125 343.017578125 c 0
 320.125 343.017578125 305.768554688 356.3984375 304.21875 373.453125 c 0
 303.838867188 377.62890625 300.795898438 400.041015625 279.212890625 400.041015625 c 0
 256.837890625 400.041015625 245.069335938 387.283203125 245.069335938 377.543945312 c 0
 245.069335938 351.819335938 247.55078125 301.049804688 250.0234375 244.96484375 c 1
 254.939453125 245.342773438 259.86328125 245.53515625 264.79296875 245.53515625 c 0
 307.610351562 245.53515625 348.703125 229.943359375 382.918945312 198.61328125 c 1
 385.276367188 209.989257812 387.427734375 222.491210938 389.241210938 234.884765625 c 0
 391.608398438 251.063476562 405.55859375 263.502929688 422.390625 263.502929688 c 0
 440.881835938 263.502929688 455.89453125 248.490234375 455.89453125 229.999023438 c 0
 455.89453125 228.79296875 446.499023438 142.465820312 421.821289062 114.255859375 c 1
 397.12890625 74.01953125 351.791992188 66.62109375 315.9375 66.62109375 c 0
 308.623046875 66.62109375 300.875 66.9404296875 292.63671875 67.611328125 c 0
 275.3671875 69.013671875 261.821289062 83.439453125 261.821289062 101.00390625 c 0
 261.821289062 119.493164062 276.833007812 134.504882812 295.323242188 134.504882812 c 0
EndSplineSet
EndChar

StartChar: uni2232
Encoding: 50 8754 50
Width: 470
VWidth: 0
Flags: HW
LayerCount: 2
Fore
SplineSet
178.069335938 377.543945312 m 0
 178.069335938 431.932617188 228.220703125 467.041015625 279.212890625 467.041015625 c 0
 326.947265625 467.041015625 366.265625 431.016601562 370.947265625 379.51953125 c 0
 371.036132812 378.576171875 371.083007812 377.553710938 371.083007812 376.51953125 c 0
 371.083007812 358.029296875 356.071289062 343.017578125 337.58203125 343.017578125 c 0
 320.125 343.017578125 305.768554688 356.3984375 304.21875 373.453125 c 0
 303.838867188 377.62890625 300.795898438 400.041015625 279.212890625 400.041015625 c 0
 256.837890625 400.041015625 245.069335938 387.283203125 245.069335938 377.543945312 c 0
 245.069335938 360.470703125 246.162109375 332.3671875 247.620117188 299 c 1
 299.111328125 291.12109375 342.14453125 260.833984375 369.37109375 219.315429688 c 1
 373.10546875 253.016601562 374.278320312 263.590820312 381.24609375 277.52734375 c 0
 386.744140625 288.522460938 398.112304688 296.080078125 411.231445312 296.080078125 c 0
 429.72265625 296.080078125 444.734375 281.067382812 444.734375 262.577148438 c 0
 444.734375 257.206054688 443.467773438 252.127929688 441.177734375 247.561523438 c 0
 432.618164062 227.073242188 442.983398438 154.189453125 400.141601562 130.577148438 c 1
 400.623046875 125.072265625 400.868164062 119.51953125 400.868164062 113.931640625 c 0
 400.868164062 21.3720703125 337.259765625 -46.3876953125 247.870117188 -62.3857421875 c 1
 245.319335938 -86.8486328125 241.962890625 -111.98046875 237.623046875 -138.01953125 c 0
 234.7421875 -155.307617188 228.239257812 -175.41796875 213.674804688 -193.45703125 c 0
 201.978515625 -207.9453125 174.250976562 -233 122.38671875 -233 c 0
 97.1630859375 -233 52.30078125 -226.06640625 33.1044921875 -179.8984375 c 0
 27.55859375 -166.561523438 25 -151.579101562 25 -135.028320312 c 0
 25 -133.141601562 25.033203125 -131.234375 25.099609375 -129.307617188 c 0
 25.71875 -111.360351562 40.4833984375 -96.98046875 58.580078125 -96.98046875 c 0
 77.0693359375 -96.98046875 92.080078125 -111.991210938 92.080078125 -130.48046875 c 0
 92.080078125 -130.873046875 92.0732421875 -131.263671875 92.060546875 -131.616210938 c 2
 92.060546875 -131.653320312 l 2
 92.0205078125 -132.82421875 92 -133.94921875 92 -135.028320312 c 0
 92 -139.998046875 92 -156.0078125 100.8984375 -161.57421875 c 0
 104.640625 -163.916015625 112.396484375 -166 122.38671875 -166 c 0
 139.68359375 -166 165.491210938 -163.213867188 171.536132812 -126.94140625 c 0
 175.125976562 -105.403320312 178.004882812 -84.56640625 180.286132812 -64.2314453125 c 1
 96.166015625 -52.76953125 27.5380859375 13.134765625 27.5380859375 96.3994140625 c 0
 27.5380859375 181.272460938 83.6015625 276.0234375 180.651367188 296.8359375 c 1
 179.177734375 330.76171875 178.069335938 359.630859375 178.069335938 377.543945312 c 0
183.6796875 228.29296875 m 1
 126.467773438 209.7890625 94.5380859375 149.709960938 94.5380859375 96.3994140625 c 0
 94.5380859375 46.990234375 138.017578125 10.9541015625 185.87109375 2.763671875 c 1
 187.340820312 29.3076171875 187.932617188 55.3359375 187.932617188 81.357421875 c 0
 187.932617188 123.033203125 185.900390625 176.897460938 183.6796875 228.29296875 c 1
253.211914062 7.771484375 m 1
 297.986328125 21.390625 333.868164062 55.8623046875 333.868164062 113.931640625 c 0
 333.868164062 115.491210938 333.838867188 117.043945312 333.782226562 118.588867188 c 0
 333.383789062 118.588867188 332.983398438 118.586914062 332.583984375 118.586914062 c 0
 305.955078125 118.586914062 279.817382812 121.348632812 262.841796875 124.61328125 c 0
 259.83984375 125.188476562 256.98046875 126.162109375 254.322265625 127.4765625 c 1
 254.706054688 111.162109375 254.932617188 95.607421875 254.932617188 81.357421875 c 0
 254.932617188 57.126953125 254.430664062 32.6953125 253.211914062 7.771484375 c 1
252.451171875 186.568359375 m 1
 257.366210938 189.400390625 263.06640625 191.020507812 269.141601562 191.020507812 c 0
 275.39453125 191.020507812 283.422851562 188.158203125 310.795898438 186.356445312 c 1
 295.954101562 207.087890625 274.9375 222.634765625 250.6875 229.744140625 c 1
 251.303710938 215.471679688 251.904296875 200.975585938 252.451171875 186.568359375 c 1
EndSplineSet
EndChar

StartChar: uni2233
Encoding: 51 8755 51
Width: 523
VWidth: 0
Flags: HW
LayerCount: 2
Fore
SplineSet
178.069335938 377.543945312 m 0
 178.069335938 431.932617188 228.220703125 467.041015625 279.212890625 467.041015625 c 0
 326.947265625 467.041015625 366.265625 431.016601562 370.947265625 379.51953125 c 0
 371.036132812 378.576171875 371.083007812 377.553710938 371.083007812 376.51953125 c 0
 371.083007812 358.029296875 356.071289062 343.017578125 337.58203125 343.017578125 c 0
 320.125 343.017578125 305.768554688 356.3984375 304.21875 373.453125 c 0
 303.838867188 377.62890625 300.795898438 400.041015625 279.212890625 400.041015625 c 0
 256.837890625 400.041015625 245.069335938 387.283203125 245.069335938 377.543945312 c 0
 245.069335938 360.6484375 246.139648438 332.951171875 247.575195312 300.040039062 c 1
 284.28515625 296.159179688 317.021484375 280.97265625 343.25 258.336914062 c 1
 352.03125 261.432617188 369.235351562 262.642578125 370.673828125 262.642578125 c 2
 370.708984375 262.620117188 l 1
 408.694335938 262.620117188 452.649414062 241.934570312 472.334960938 237.012695312 c 0
 486.8984375 233.372070312 497.700195312 220.189453125 497.700195312 204.504882812 c 0
 497.700195312 186.01171875 482.686523438 170.998046875 464.193359375 170.998046875 c 0
 450.18359375 170.998046875 420.728515625 185.251953125 392.116210938 192.333007812 c 1
 402.919921875 168.150390625 408.868164062 141.462890625 408.868164062 113.931640625 c 0
 408.868164062 18.5869140625 341.375 -50.4423828125 247.733398438 -63.6884765625 c 1
 245.19921875 -87.7412109375 241.885742188 -112.442382812 237.623046875 -138.01953125 c 0
 234.7421875 -155.307617188 228.239257812 -175.41796875 213.674804688 -193.45703125 c 0
 201.978515625 -207.9453125 174.250976562 -233 122.38671875 -233 c 0
 97.1630859375 -233 52.30078125 -226.06640625 33.1044921875 -179.8984375 c 0
 27.55859375 -166.561523438 25 -151.579101562 25 -135.028320312 c 0
 25 -133.141601562 25.033203125 -131.234375 25.099609375 -129.307617188 c 0
 25.71875 -111.360351562 40.4833984375 -96.98046875 58.580078125 -96.98046875 c 0
 77.0693359375 -96.98046875 92.080078125 -111.991210938 92.080078125 -130.48046875 c 0
 92.080078125 -130.873046875 92.0732421875 -131.263671875 92.060546875 -131.616210938 c 2
 92.060546875 -131.653320312 l 2
 92.0205078125 -132.82421875 92 -133.94921875 92 -135.028320312 c 0
 92 -139.998046875 92 -156.0078125 100.8984375 -161.57421875 c 0
 104.640625 -163.916015625 112.396484375 -166 122.38671875 -166 c 0
 139.68359375 -166 165.491210938 -163.213867188 171.536132812 -126.94140625 c 0
 175.19921875 -104.965820312 178.12109375 -83.720703125 180.423828125 -62.994140625 c 1
 99.931640625 -48.62109375 35.5380859375 15.744140625 35.5380859375 96.3994140625 c 0
 35.5380859375 178.9375 88.55859375 270.81640625 180.733398438 294.952148438 c 1
 179.21875 329.69140625 178.069335938 359.30078125 178.069335938 377.543945312 c 0
183.803710938 225.422851562 m 1
 131.544921875 204.172851562 102.538085938 147.211914062 102.538085938 96.3994140625 c 0
 102.538085938 49.7294921875 141.331054688 14.990234375 185.959960938 4.3798828125 c 1
 187.364257812 30.3642578125 187.932617188 55.865234375 187.932617188 81.357421875 c 0
 187.932617188 122.2578125 185.974609375 174.897460938 183.803710938 225.422851562 c 1
253.1015625 5.5537109375 m 1
 301.573242188 17.3583984375 341.868164062 52.39453125 341.868164062 113.931640625 c 0
 341.868164062 125.314453125 340.346679688 136.357421875 337.506835938 146.836914062 c 1
 330.575195312 130.896484375 324.495117188 113.559570312 320.697265625 98.37109375 c 0
 317.0625 83.77734375 303.879882812 72.9765625 288.194335938 72.9765625 c 0
 270.459960938 72.9765625 255.924804688 86.78515625 254.763671875 104.227539062 c 1
 254.873046875 96.310546875 254.932617188 88.662109375 254.932617188 81.357421875 c 0
 254.932617188 56.4091796875 254.400390625 31.2470703125 253.1015625 5.5537109375 c 1
254.716796875 107.403320312 m 1
 255.459960938 120.435546875 270.784179688 169.647460938 294.979492188 211.127929688 c 1
 281.984375 221.169921875 266.916015625 228.35546875 250.600585938 231.7734375 c 1
 252.419921875 189.719726562 254.12890625 145.592773438 254.716796875 107.403320312 c 1
EndSplineSet
EndChar

StartChar: therefore
Encoding: 52 8756 52
Width: 294
Flags: HW
HStem: 112 66<-78.8757 -17.1243>
VStem: -82 68<115.293 174.707>
LayerCount: 2
Fore
SplineSet
111 234 m 0
 111 252 127 267 145 267 c 0
 163 267 179 252 179 234 c 0
 179 216 163 201 145 201 c 0
 127 201 111 216 111 234 c 0
25 66 m 0
 25 84 41 99 59 99 c 0
 77 99 93 84 93 66 c 0
 93 48 77 33 59 33 c 0
 41 33 25 48 25 66 c 0
201 66 m 0
 201 84 217 99 235 99 c 0
 253 99 269 84 269 66 c 0
 269 48 253 33 235 33 c 0
 217 33 201 48 201 66 c 0
EndSplineSet
EndChar

StartChar: uni2235
Encoding: 53 8757 53
Width: 294
Flags: HW
HStem: 112 66<-80.8757 -19.1243>
VStem: -84 68<115.293 174.707>
LayerCount: 2
Fore
SplineSet
97 66 m 0
 97 84 113 99 131 99 c 0
 149 99 165 84 165 66 c 0
 165 48 149 33 131 33 c 0
 113 33 97 48 97 66 c 0
25 234 m 0
 25 252 41 267 59 267 c 0
 77 267 93 252 93 234 c 0
 93 216 77 201 59 201 c 0
 41 201 25 216 25 234 c 0
201 234 m 0
 201 252 217 267 235 267 c 0
 253 267 269 252 269 234 c 0
 269 216 253 201 235 201 c 0
 217 201 201 216 201 234 c 0
EndSplineSet
EndChar

StartChar: uni2236
Encoding: 54 8758 54
Width: 119
Flags: HW
HStem: 30 67<29.4854 90.5146> 192 68<28.2926 88.5146>
VStem: 26 68<33.4854 93.7074 196.673 255.327>
LayerCount: 2
Fore
SplineSet
26 67 m 0
 26 85 42 100 60 100 c 0
 78 100 94 85 94 67 c 0
 94 49 78 33 60 33 c 0
 42 33 26 49 26 67 c 0
25 233 m 0
 25 251 40 267 58 267 c 0
 76 267 92 251 92 233 c 0
 92 215 76 199 58 199 c 0
 40 199 25 215 25 233 c 0
EndSplineSet
EndChar

StartChar: uni2237
Encoding: 55 8759 55
Width: 285
Flags: HW
HStem: 30 67<29.4854 90.5146> 192 68<28.2926 88.5146>
VStem: 26 68<33.4854 93.7074 196.673 255.327>
LayerCount: 2
Fore
SplineSet
26 67 m 0
 26 85 42 100 60 100 c 0
 78 100 94 85 94 67 c 0
 94 49 78 33 60 33 c 0
 42 33 26 49 26 67 c 0
25 233 m 0
 25 251 40 267 58 267 c 0
 76 267 92 251 92 233 c 0
 92 215 76 199 58 199 c 0
 40 199 25 215 25 233 c 0
192 67 m 0
 192 85 208 100 226 100 c 0
 244 100 260 85 260 67 c 0
 260 49 244 33 226 33 c 0
 208 33 192 49 192 67 c 0
191 233 m 0
 191 251 206 267 224 267 c 0
 242 267 258 251 258 233 c 0
 258 215 242 199 224 199 c 0
 206 199 191 215 191 233 c 0
EndSplineSet
EndChar

StartChar: uni2238
Encoding: 56 8760 56
Width: 327
Flags: HW
HStem: 112 66<28.1243 89.8757>
VStem: 25 68<115.293 174.707>
LayerCount: 2
Fore
SplineSet
270 127 m 0
 148 121 72 117 59 116 c 0
 41 116 25 132 25 150 c 0
 25 168 39 182 57 183 c 0
 179 189 255 193 268 194 c 0
 286 194 302 178 302 160 c 0
 302 142 288 128 270 127 c 0
128 267 m 0
 128 285 144 300 162 300 c 0
 180 300 196 285 196 267 c 0
 196 249 180 234 162 234 c 0
 144 234 128 249 128 267 c 0
EndSplineSet
EndChar

StartChar: uni2239
Encoding: 57 8761 57
Width: 434
Flags: HW
HStem: 30 67<29.4854 90.5146> 192 68<28.2926 88.5146>
VStem: 26 68<33.4854 93.7074 196.673 255.327>
LayerCount: 2
Fore
SplineSet
270 127 m 0
 148 121 72 117 59 116 c 0
 41 116 25 132 25 150 c 0
 25 168 39 182 57 183 c 0
 179 189 255 193 268 194 c 0
 286 194 302 178 302 160 c 0
 302 142 288 128 270 127 c 0
341 67 m 0
 341 85 357 100 375 100 c 0
 393 100 409 85 409 67 c 0
 409 49 393 33 375 33 c 0
 357 33 341 49 341 67 c 0
340 233 m 0
 340 251 355 267 373 267 c 0
 391 267 407 251 407 233 c 0
 407 215 391 199 373 199 c 0
 355 199 340 215 340 233 c 0
EndSplineSet
EndChar

StartChar: uni223A
Encoding: 58 8762 58
Width: 330
Flags: HW
HStem: 112 66<28.1243 89.8757>
VStem: 25 68<115.293 174.707>
LayerCount: 2
Fore
SplineSet
270 127 m 0
 148 121 72 117 59 116 c 0
 41 116 25 132 25 150 c 0
 25 168 39 182 57 183 c 0
 179 189 255 193 268 194 c 0
 286 194 302 178 302 160 c 0
 302 142 288 128 270 127 c 0
27 267 m 0
 27 285 43 300 61 300 c 0
 79 300 95 285 95 267 c 0
 95 249 79 234 61 234 c 0
 43 234 27 249 27 267 c 0
237 267 m 0
 237 285 253 300 271 300 c 0
 289 300 305 285 305 267 c 0
 305 249 289 234 271 234 c 0
 253 234 237 249 237 267 c 0
26 33 m 0
 26 51 42 66 60 66 c 0
 78 66 94 51 94 33 c 0
 94 15 78 0 60 0 c 0
 42 0 26 15 26 33 c 0
236 33 m 0
 236 51 252 66 270 66 c 0
 288 66 304 51 304 33 c 0
 304 15 288 0 270 0 c 0
 252 0 236 15 236 33 c 0
EndSplineSet
EndChar

StartChar: uni223B
Encoding: 59 8763 59
Width: 432
Flags: HW
HStem: 112 66<26.1243 87.8757>
VStem: 23 68<115.293 174.707>
LayerCount: 2
Fore
SplineSet
257 70 m 0
 230 70 216 92 202 114 c 0
 188 136 175 158 148 158 c 0
 127 158 115 138 103 117 c 0
 91 96 79 75 58 75 c 0
 40 75 25 90 25 108 c 0
 25 118 30 129 40 143 c 0
 41 143 41 143 41 144 c 0
 78 205 105 225 148 225 c 0
 188 225 215 206 244 158 c 0
 250 148 254 142 258 138 c 1
 297 141 314 169 329 193 c 0
 341 213 352 231 373 231 c 0
 391 231 407 215 407 197 c 0
 407 185 401 178 395 170 c 0
 391 165 387 161 384 155 c 0
 344 95 313 74 261 71 c 2
 259 71 l 2
 258 71 258 71 257 70 c 0
187 33 m 0
 187 51 203 66 221 66 c 0
 239 66 255 51 255 33 c 0
 255 15 239 0 221 0 c 0
 203 0 187 15 187 33 c 0
187 267 m 0
 187 285 203 300 221 300 c 0
 239 300 255 285 255 267 c 0
 255 249 239 234 221 234 c 0
 203 234 187 249 187 267 c 0
EndSplineSet
EndChar

StartChar: similar
Encoding: 60 8764 60
Width: 432
Flags: HW
LayerCount: 2
Fore
SplineSet
257 70 m 0
 230 70 216 92 202 114 c 0
 188 136 175 158 148 158 c 0
 127 158 115 138 103 117 c 0
 91 96 79 75 58 75 c 0
 40 75 25 90 25 108 c 0
 25 118 30 129 40 143 c 0
 41 143 41 143 41 144 c 0
 78 205 105 225 148 225 c 0
 188 225 215 206 244 158 c 0
 250 148 254 142 258 138 c 1
 297 141 314 169 329 193 c 0
 341 213 352 231 373 231 c 0
 391 231 407 215 407 197 c 0
 407 185 401 178 395 170 c 0
 391 165 387 161 384 155 c 0
 344 95 313 74 261 71 c 2
 259 71 l 2
 258 71 258 71 257 70 c 0
EndSplineSet
EndChar

StartChar: uni223D
Encoding: 61 8765 61
Width: 432
Flags: HW
LayerCount: 2
Fore
SplineSet
257 231 m 0
 230 231 216 209 202 187 c 0
 188 165 175 143 148 143 c 0
 127 143 115 163 103 184 c 0
 91 205 79 226 58 226 c 0
 40 226 25 211 25 193 c 0
 25 183 30 172 40 158 c 0
 41 158 41 158 41 157 c 0
 78 96 105 76 148 76 c 0
 188 76 215 95 244 143 c 0
 250 153 254 159 258 163 c 1
 297 160 314 132 329 108 c 0
 341 88 352 70 373 70 c 0
 391 70 407 86 407 104 c 0
 407 116 401 123 395 131 c 0
 391 136 387 140 384 146 c 0
 344 206 313 227 261 230 c 2
 259 230 l 2
 258 230 258 230 257 231 c 0
EndSplineSet
EndChar

StartChar: uni223E
Encoding: 62 8766 62
Width: 559
VWidth: 0
Flags: HW
LayerCount: 2
Fore
SplineSet
150.5859375 233.5 m 0
 92.7783203125 233.5 92 185.225585938 92 162.640625 c 0
 92 95.076171875 111.205078125 81.3486328125 125.973632812 74.4501953125 c 0
 135.578125 69.9638671875 149.81640625 66.5 170.5859375 66.5 c 0
 189.075195312 66.5 204.0859375 51.4892578125 204.0859375 33 c 0
 204.0859375 14.5107421875 189.075195312 -0.5 170.5859375 -0.5 c 0
 123.868164062 -0.5 69.76171875 12.9658203125 42.595703125 67.6240234375 c 0
 27.09375 98.8125 25 132.65234375 25 162.640625 c 0
 25 180.974609375 25 220.876953125 51.7333984375 255.514648438 c 0
 74.3994140625 284.880859375 110.048828125 300.5 150.5859375 300.5 c 0
 236.793945312 300.5 281.407226562 211.2734375 307.569335938 158.94921875 c 0
 335.969726562 102.146484375 393.05859375 66.7783203125 429.325195312 66.583984375 c 0
 431.985351562 67.5283203125 441.426757812 74.1669921875 449.749023438 86.763671875 c 0
 459.974609375 102.241210938 467.1484375 123.502929688 467.1484375 140.470703125 c 0
 467.1484375 176.708007812 441.629882812 227.938476562 401.643554688 233.86328125 c 0
 385.4921875 236.255859375 373.083007812 250.19140625 373.083007812 267.00390625 c 0
 373.083007812 285.495117188 388.095703125 300.5078125 406.586914062 300.5078125 c 0
 407.353515625 300.5078125 441.900390625 299.564453125 476.565429688 269.208984375 c 0
 511.923828125 238.24609375 532.408203125 191.580078125 534.064453125 145.21484375 c 0
 534.12109375 143.630859375 534.1484375 142.048828125 534.1484375 140.470703125 c 0
 534.1484375 76.171875 486.211914062 -0.5 429.5859375 -0.5 c 0
 374.837890625 -0.5 292.181640625 39.6689453125 245.846679688 132.571289062 c 0
 223.0546875 178.267578125 192.728515625 233.5 150.5859375 233.5 c 0
EndSplineSet
EndChar

StartChar: uni223F
Encoding: 63 8767 63
Width: 473
VWidth: 0
Flags: HW
LayerCount: 2
Fore
SplineSet
58.501953125 126.497070312 m 0
 40.01171875 126.497070312 25 141.508789062 25 159.999023438 c 0
 25 165.73046875 26.4423828125 171.127929688 28.9833984375 175.84765625 c 0
 41.7041015625 199.470703125 100.875976562 300.5 182.5 300.5 c 0
 209.859375 300.5 232.793945312 287.49609375 248.0078125 269.7578125 c 0
 289.482421875 221.401367188 292.106445312 126.71875 312.665039062 80.609375 c 0
 314.556640625 76.365234375 319.224609375 66.662109375 322.374023438 66.609375 c 0
 328.508789062 68.7333984375 352.119140625 85.8349609375 385.096679688 146.055664062 c 0
 386.9921875 149.516601562 395.840820312 163.572265625 414.541015625 163.572265625 c 0
 433.03125 163.572265625 448.041992188 148.561523438 448.041992188 130.071289062 c 0
 448.041992188 124.255859375 446.557617188 118.784179688 443.904296875 113.944335938 c 0
 389.752929688 15.0615234375 348.8046875 -0.5 322.5 -0.5 c 0
 304.631835938 -0.5 276.127929688 6.2861328125 255.965820312 44.0859375 c 0
 226.837890625 98.6953125 223.06640625 206.331054688 193.298828125 229.936523438 c 0
 190.16015625 232.42578125 187.772460938 233.5 182.5 233.5 c 0
 156.118164062 233.5 115.219726562 194.672851562 87.978515625 144.081054688 c 0
 82.3623046875 133.64453125 71.2607421875 126.497070312 58.501953125 126.497070312 c 0
EndSplineSet
EndChar

StartChar: uni2240
Encoding: 64 8768 64
Width: 210
Flags: HW
LayerCount: 2
Fore
SplineSet
185 192 m 0
 185 165 163 150 141 136 c 0
 119 122 97 109 97 82 c 0
 97 61 118 50 139 38 c 0
 160 26 181 13 181 -8 c 0
 181 -26 165 -40 147 -40 c 0
 137 -40 127 -36 113 -26 c 0
 113 -25 112 -24 111 -24 c 0
 50 13 31 39 31 82 c 0
 31 122 49 149 97 178 c 0
 107 184 113 188 117 192 c 1
 114 231 87 249 63 264 c 0
 43 276 25 287 25 308 c 0
 25 326 41 342 59 342 c 0
 71 342 77 336 85 330 c 0
 90 326 95 321 101 318 c 0
 161 278 182 248 185 196 c 2
 185 194 l 2
 185 193 184 193 185 192 c 0
EndSplineSet
EndChar

StartChar: uni2241
Encoding: 65 8769 65
Width: 432
Flags: HW
HStem: 447 20G<274 290>
VStem: 25 65<-107.515 -44.422> 250 65<402.216 463.515>
LayerCount: 2
Fore
SplineSet
265 300 m 0
 283 300 299 284 299 266 c 0
 299 261.35779754 274.605884134 206.621789697 248.895678705 150.054627971 c 1
 252.390192816 144.593242769 255.195096444 140.804903595 258 138 c 0
 297 141 314 169 329 193 c 0
 341 213 352 231 373 231 c 0
 391 231 407 215 407 197 c 0
 407 185 401 178 395 170 c 0
 391 165 387 161 384 155 c 0
 344 95 313 74 261 71 c 2
 259 71 l 2
 258 71 258 71 257 70 c 0
 241.304262279 70 230.001707513 77.4346173076 220.538474686 87.9819332815 c 1
 203.668605168 51.1856973364 190.618456282 22.8550334574 190 21 c 0
 186 9 172 0 159 0 c 0
 141 0 125 16 125 34 c 0
 125 36.3383651415 149.310194523 91.2391628506 174.972735593 148.588422849 c 1
 167.621002731 154.371635409 158.964981008 158 148 158 c 0
 127 158 115 138 103 117 c 0
 91 96 79 75 58 75 c 0
 40 75 25 90 25 108 c 0
 25 118 30 129 40 143 c 0
 41 143 41 143 41 144 c 0
 78 205 105 225 148 225 c 0
 168.717455081 225 185.947554984 219.903096278 201.774409062 208.319882597 c 1
 219.365714918 247.441355702 233.22434324 278.138216566 234 280 c 0
 239 292 251 300 265 300 c 0
EndSplineSet
EndChar

StartChar: uni2242
Encoding: 66 8770 66
Width: 446
Flags: HW
VStem: 27 277<130.047 179.953>
LayerCount: 2
Fore
SplineSet
259 70 m 0
 232 70 218 92 204 114 c 0
 190 136 177 158 150 158 c 0
 129 158 117 138 105 117 c 0
 93 96 81 75 60 75 c 0
 42 75 27 90 27 108 c 0
 27 118 32 129 42 143 c 0
 43 143 43 143 43 144 c 0
 80 205 107 225 150 225 c 0
 190 225 217 206 246 158 c 0
 252 148 256 142 260 138 c 1
 299 141 316 169 331 193 c 0
 343 213 354 231 375 231 c 0
 393 231 409 215 409 197 c 0
 409 185 403 178 397 170 c 0
 393 165 389 161 386 155 c 0
 346 95 315 74 263 71 c 2
 261 71 l 2
 260 71 260 71 259 70 c 0
389 282 m 4
 268 282 72.0380859375 281 59 281 c 4
 41 281 25 297 25 315 c 4
 25 333 38.97265625 347.856445312 57 348 c 4
 183 349 373.961914062 349 387 349 c 4
 405 349 421 333 421 315 c 4
 421 297 407.02734375 282 389 282 c 4
EndSplineSet
EndChar

StartChar: uni2243
Encoding: 67 8771 67
Width: 446
Flags: HW
LayerCount: 2
Fore
SplineSet
265 70 m 0
 238 70 224 92 210 114 c 0
 196 136 183 158 156 158 c 0
 135 158 123 138 111 117 c 0
 99 96 87 75 66 75 c 0
 48 75 33 90 33 108 c 0
 33 118 38 129 48 143 c 0
 49 143 49 143 49 144 c 0
 86 205 113 225 156 225 c 0
 196 225 223 206 252 158 c 0
 258 148 262 142 266 138 c 1
 305 141 322 169 337 193 c 0
 349 213 360 231 381 231 c 0
 399 231 415 215 415 197 c 0
 415 185 409 178 403 170 c 0
 399 165 395 161 392 155 c 0
 352 95 321 74 269 71 c 2
 267 71 l 2
 266 71 266 71 265 70 c 0
389 -55 m 4
 268 -55 72.0380859375 -56 59 -56 c 4
 41 -56 25 -40 25 -22 c 4
 25 -4 38.97265625 10.8564453125 57 11 c 4
 183 12 373.961914062 12 387 12 c 4
 405 12 421 -4 421 -22 c 4
 421 -40 407.02734375 -55 389 -55 c 4
EndSplineSet
EndChar

StartChar: uni2244
Encoding: 68 8772 68
Width: 446
Flags: HW
HStem: 447 20G<282 298>
VStem: 33 65<-107.515 -44.422> 258 65<402.216 463.515>
LayerCount: 2
Fore
SplineSet
318 300 m 0
 336 300 352 284 352 266 c 0
 352 263.098632812 331.717773438 215.456054688 304.303710938 152.336914062 c 1
 318.625976562 163.323242188 328.16015625 178.856445312 337 193 c 0
 349 213 360 231 381 231 c 0
 399 231 415 215 415 197 c 0
 415 185 409 178 403 170 c 0
 399 165 395 161 392 155 c 0
 352 95 321 74 269 71 c 2
 268.807617188 71 l 1
 260.204101562 51.3583984375 251.458007812 31.4267578125 242.84765625 11.830078125 c 1
 317.96875 12 379.778320312 12 387 12 c 0
 405 12 421 -4 421 -22 c 0
 421 -40 407.02734375 -55 389 -55 c 0
 337.393554688 -55 272.150390625 -55.181640625 213.279296875 -55.390625 c 1
 182.999023438 -124.169921875 159.624023438 -177.127929688 159 -179 c 0
 155 -191 141 -200 128 -200 c 0
 110 -200 94 -184 94 -166 c 0
 94 -164.153320312 113.782226562 -117.828125 140.682617188 -55.669921875 c 1
 96.15234375 -55.8515625 64.01953125 -56 59 -56 c 0
 41 -56 25 -40 25 -22 c 0
 25 -4 38.97265625 10.8564453125 57 11 c 0
 91.4287109375 11.2734375 130.708984375 11.4716796875 169.8828125 11.6162109375 c 1
 183.95703125 43.9755859375 198.645507812 77.6669921875 212.673828125 109.80859375 c 0
 211.780273438 111.202148438 210.890625 112.6015625 210 114 c 0
 196 136 183 158 156 158 c 0
 135 158 123 138 111 117 c 0
 99 96 87 75 66 75 c 0
 48 75 33 90 33 108 c 0
 33 118 38 129 48 143 c 0
 49 143 49 143 49 144 c 0
 86 205 113 225 156 225 c 0
 190.9453125 225 215.96875 210.498046875 241.072265625 174.827148438 c 1
 266.668945312 233.399414062 285.665039062 276.795898438 287 280 c 0
 292 292 304 300 318 300 c 0
EndSplineSet
EndChar

StartChar: congruent
Encoding: 69 8773 69
Width: 447
Flags: HW
HStem: 447 20G<215 231>
VStem: -34 65<-107.515 -44.422> 191 65<402.216 463.515>
LayerCount: 2
Fore
SplineSet
264 179 m 0
 237 179 223 201 209 223 c 0
 195 245 182 267 155 267 c 0
 134 267 122 247 110 226 c 0
 98 205 86 184 65 184 c 0
 47 184 32 199 32 217 c 0
 32 227 37 238 47 252 c 0
 48 252 48 252 48 253 c 0
 85 314 112 334 155 334 c 0
 195 334 222 315 251 267 c 0
 257 257 261 251 265 247 c 1
 304 250 321 278 336 302 c 0
 348 322 359 340 380 340 c 0
 398 340 414 324 414 306 c 0
 414 294 408 287 402 279 c 0
 398 274 394 270 391 264 c 0
 351 204 320 183 268 180 c 2
 266 180 l 2
 265 180 265 180 264 179 c 0
389 53 m 0
 268 53 72.0380859375 52 59 52 c 0
 41 52 25 68 25 86 c 0
 25 104 38.97265625 118.856445312 57 119 c 0
 183 120 373.961914062 120 387 120 c 0
 405 120 421 104 421 86 c 0
 421 68 407.02734375 53 389 53 c 0
390 -50 m 0
 269 -50 73.0380859375 -51 60 -51 c 0
 42 -51 26 -35 26 -17 c 0
 26 1 39.97265625 15.8564453125 58 16 c 0
 184 17 374.961914062 17 388 17 c 0
 406 17 422 1 422 -17 c 0
 422 -35 408.02734375 -50 390 -50 c 0
EndSplineSet
EndChar

StartChar: uni2246
Encoding: 70 8774 70
Width: 447
Flags: HW
HStem: 447 20G<215 231>
VStem: -34 65<-107.515 -44.422> 191 65<402.216 463.515>
LayerCount: 2
Fore
SplineSet
264 179 m 0
 237 179 223 201 209 223 c 0
 195 245 182 267 155 267 c 0
 134 267 122 247 110 226 c 0
 98 205 86 184 65 184 c 0
 47 184 32 199 32 217 c 0
 32 227 37 238 47 252 c 0
 48 252 48 252 48 253 c 0
 85 314 112 334 155 334 c 0
 195 334 222 315 251 267 c 0
 257 257 261 251 265 247 c 1
 304 250 321 278 336 302 c 0
 348 322 359 340 380 340 c 0
 398 340 414 324 414 306 c 0
 414 294 408 287 402 279 c 0
 398 274 394 270 391 264 c 0
 351 204 320 183 268 180 c 2
 266 180 l 2
 265 180 265 180 264 179 c 0
264 164 m 0
 282 164 298 148 298 130 c 0
 298 128.999023438 296.84765625 125.448242188 294.799804688 119.926757812 c 1
 344.852539062 120 381.538085938 120 387 120 c 0
 405 120 421 104 421 86 c 0
 421 68 407.02734375 53 389 53 c 0
 352.912109375 53 310.15625 52.9111328125 267.573242188 52.7861328125 c 1
 262.717773438 41.1728515625 257.594726562 29.0048828125 252.456054688 16.8486328125 c 1
 323.643554688 17 381.055664062 17 388 17 c 0
 406 17 422 1 422 -17 c 0
 422 -35 408.02734375 -50 390 -50 c 0
 341.188476562 -50 280.177734375 -50.1630859375 223.897460938 -50.3564453125 c 1
 213.170898438 -75.5205078125 205.509765625 -93.47265625 205 -95 c 0
 201 -107 187 -116 174 -116 c 0
 156 -116 140 -100 140 -82 c 0
 140 -80.689453125 144.680664062 -68.6005859375 151.943359375 -50.6279296875 c 1
 102.14453125 -50.8291015625 65.3974609375 -51 60 -51 c 0
 42 -51 26 -35 26 -17 c 0
 26 1 39.97265625 15.8564453125 58 16 c 0
 94.9931640625 16.2939453125 137.586914062 16.5009765625 179.6328125 16.6474609375 c 1
 184.592773438 28.57421875 189.66015625 40.7197265625 194.603515625 52.5419921875 c 1
 123.72265625 52.2783203125 65.8818359375 52 59 52 c 0
 41 52 25 68 25 86 c 0
 25 104 38.97265625 118.856445312 57 119 c 0
 107.090820312 119.397460938 167.448242188 119.63671875 222.8125 119.78125 c 1
 228.415039062 133.09765625 232.190429688 142.05859375 233 144 c 0
 238 156 250 164 264 164 c 0
EndSplineSet
EndChar

StartChar: uni2247
Encoding: 71 8775 71
Width: 447
Flags: HW
HStem: 447 20G<215 231>
VStem: -34 65<-107.515 -44.422> 191 65<402.216 463.515>
LayerCount: 2
Fore
SplineSet
373 467 m 0
 391 467 407 451 407 433 c 0
 407 429.326171875 391.765625 391.28515625 369.682617188 338.381835938 c 1
 372.846679688 339.430664062 376.265625 340 380 340 c 0
 398 340 414 324 414 306 c 0
 414 294 408 287 402 279 c 0
 398 274 394 270 391 264 c 0
 361.469726562 219.704101562 336.84375 196.6640625 305.052734375 186.431640625 c 1
 295.283203125 163.793945312 285.53125 141.329101562 276.166015625 119.896484375 c 1
 335.564453125 120 380.880859375 120 387 120 c 0
 405 120 421 104 421 86 c 0
 421 68 407.02734375 53 389 53 c 0
 346.958007812 53 295.8671875 52.87890625 246.543945312 52.7216796875 c 1
 241.357421875 41.1064453125 235.94921875 29.0703125 230.413085938 16.7978515625 c 1
 311.481445312 17 380.3515625 17 388 17 c 0
 406 17 422 1 422 -17 c 0
 422 -35 408.02734375 -50 390 -50 c 0
 334.163085938 -50 262.36328125 -50.212890625 199.942382812 -50.4423828125 c 1
 170.33203125 -115.629882812 141.880859375 -178.203125 128 -212 c 0
 124 -224 110 -233 97 -233 c 0
 79 -233 63 -217 63 -199 c 0
 63 -195.40625 90.994140625 -132.016601562 127.139648438 -50.7294921875 c 1
 90.2626953125 -50.8828125 64.455078125 -51 60 -51 c 0
 42 -51 26 -35 26 -17 c 0
 26 1 39.97265625 15.8564453125 58 16 c 0
 88.3837890625 16.2412109375 122.545898438 16.423828125 157.080078125 16.5634765625 c 1
 162.362304688 28.4375 167.698242188 40.4384765625 173.038085938 52.4599609375 c 1
 112.286132812 52.2236328125 65.1689453125 52 59 52 c 0
 41 52 25 68 25 86 c 0
 25 104 38.97265625 118.856445312 57 119 c 0
 101.124023438 119.350585938 153.21484375 119.578125 202.841796875 119.725585938 c 1
 213.7578125 144.446289062 224.28515625 168.400390625 233.962890625 190.618164062 c 1
 224.243164062 199.045898438 216.622070312 211.022460938 209 223 c 0
 195 245 182 267 155 267 c 0
 134 267 122 247 110 226 c 0
 98 205 86 184 65 184 c 0
 47 184 32 199 32 217 c 0
 32 227 37 238 47 252 c 0
 48 252 48 252 48 253 c 0
 85 314 112 334 155 334 c 0
 195 334 222 315 251 267 c 0
 254.79296875 260.677734375 257.787109375 255.954101562 260.487304688 252.32421875 c 1
 295.849609375 335.412109375 337.232421875 435.08203125 342 447 c 0
 347 459 359 467 373 467 c 0
EndSplineSet
EndChar

StartChar: approxequal
Encoding: 72 8776 72
Width: 433
Flags: HW
LayerCount: 2
Fore
SplineSet
258 151 m 0
 231 151 217 173 203 195 c 0
 189 217 176 239 149 239 c 0
 128 239 116 219 104 198 c 0
 92 177 80 156 59 156 c 0
 41 156 26 171 26 189 c 0
 26 199 31 210 41 224 c 0
 42 224 42 224 42 225 c 0
 79 286 106 306 149 306 c 0
 189 306 216 287 245 239 c 0
 251 229 255 223 259 219 c 1
 298 222 315 250 330 274 c 0
 342 294 353 312 374 312 c 0
 392 312 408 296 408 278 c 0
 408 266 402 259 396 251 c 0
 392 246 388 242 385 236 c 0
 345 176 314 155 262 152 c 2
 260 152 l 2
 259 152 259 152 258 151 c 0
257 -7 m 0
 230 -7 216 15 202 37 c 0
 188 59 175 81 148 81 c 0
 127 81 115 61 103 40 c 0
 91 19 79 -2 58 -2 c 0
 40 -2 25 13 25 31 c 0
 25 41 30 52 40 66 c 0
 41 66 41 66 41 67 c 0
 78 128 105 148 148 148 c 0
 188 148 215 129 244 81 c 0
 250 71 254 65 258 61 c 1
 297 64 314 92 329 116 c 0
 341 136 352 154 373 154 c 0
 391 154 407 138 407 120 c 0
 407 108 401 101 395 93 c 0
 391 88 387 84 384 78 c 0
 344 18 313 -3 261 -6 c 2
 259 -6 l 2
 258 -6 258 -6 257 -7 c 0
EndSplineSet
EndChar

StartChar: uni2249
Encoding: 73 8777 73
Width: 433
Flags: HW
HStem: 447 20G<271 287>
VStem: 22 65<-107.515 -44.422> 247 65<402.216 463.515>
LayerCount: 2
Fore
SplineSet
309 383 m 0
 327 383 343 367 343 349 c 0
 343 341.80078125 327.372070312 310.129882812 290.630859375 228.786132812 c 1
 308.794921875 239.705078125 319.854492188 257.767578125 330 274 c 0
 342 294 353 312 374 312 c 0
 392 312 408 296 408 278 c 0
 408 266 402 259 396 251 c 0
 392 246 388 242 385 236 c 0
 345 176 314 155 262 152 c 2
 260 152 l 2
 259 152 259 152 258 151 c 0
 257.299804688 151 256.608398438 151.014648438 255.92578125 151.043945312 c 0
 247.734375 132.505859375 240.008789062 114.97265625 232.708007812 98.3427734375 c 1
 236.459960938 93.041015625 240.212890625 87.267578125 244 81 c 0
 250 71 254 65 258 61 c 1
 297 64 314 92 329 116 c 0
 341 136 352 154 373 154 c 0
 391 154 407 138 407 120 c 0
 407 108 401 101 395 93 c 0
 391 88 387 84 384 78 c 0
 344 18 313 -3 261 -6 c 2
 259 -6 l 2
 258 -6 258 -6 257 -7 c 0
 231.508789062 -7 217.60546875 12.6103515625 204.349609375 33.3154296875 c 1
 188.735351562 -2.7841796875 175.494140625 -34.015625 164 -62 c 0
 160 -74 146 -83 133 -83 c 0
 115 -83 99 -67 99 -49 c 0
 99 -45.1181640625 121.514648438 8.232421875 152.788085938 80.759765625 c 1
 151.2421875 80.91796875 149.647460938 81 148 81 c 0
 127 81 115 61 103 40 c 0
 91 19 79 -2 58 -2 c 0
 40 -2 25 13 25 31 c 0
 25 41 30 52 40 66 c 0
 41 66 41 66 41 67 c 0
 78 128 105 148 148 148 c 0
 159.537109375 148 169.993164062 146.418945312 179.727539062 143.017578125 c 1
 187.165039062 160.159179688 194.830078125 177.797851562 202.590820312 195.642578125 c 1
 188.745117188 217.426757812 175.737304688 239 149 239 c 0
 128 239 116 219 104 198 c 0
 92 177 80 156 59 156 c 0
 41 156 26 171 26 189 c 0
 26 199 31 210 41 224 c 0
 42 224 42 224 42 225 c 0
 79 286 106 306 149 306 c 0
 182.4140625 306 206.756835938 292.741210938 230.771484375 260.395507812 c 1
 233.188476562 265.946289062 235.599609375 271.484375 238 277 c 0
 275 362 272 348 278 363 c 0
 283 375 295 383 309 383 c 0
EndSplineSet
EndChar

StartChar: uni224A
Encoding: 74 8778 74
Width: 446
Flags: HW
LayerCount: 2
Fore
SplineSet
266 188 m 0
 239 188 225 210 211 232 c 0
 197 254 184 276 157 276 c 0
 136 276 124 256 112 235 c 0
 100 214 88 193 67 193 c 0
 49 193 34 208 34 226 c 0
 34 236 39 247 49 261 c 0
 50 261 50 261 50 262 c 0
 87 323 114 343 157 343 c 0
 197 343 224 324 253 276 c 0
 259 266 263 260 267 256 c 1
 306 259 323 287 338 311 c 0
 350 331 361 349 382 349 c 0
 400 349 416 333 416 315 c 0
 416 303 410 296 404 288 c 0
 400 283 396 279 393 273 c 0
 353 213 322 192 270 189 c 2
 268 189 l 2
 267 189 267 189 266 188 c 0
265 30 m 0
 238 30 224 52 210 74 c 0
 196 96 183 118 156 118 c 0
 135 118 123 98 111 77 c 0
 99 56 87 35 66 35 c 0
 48 35 33 50 33 68 c 0
 33 78 38 89 48 103 c 0
 49 103 49 103 49 104 c 0
 86 165 113 185 156 185 c 0
 196 185 223 166 252 118 c 0
 258 108 262 102 266 98 c 1
 305 101 322 129 337 153 c 0
 349 173 360 191 381 191 c 0
 399 191 415 175 415 157 c 0
 415 145 409 138 403 130 c 0
 399 125 395 121 392 115 c 0
 352 55 321 34 269 31 c 2
 267 31 l 2
 266 31 266 31 265 30 c 0
389 -83 m 0
 268 -83 72.0380859375 -84 59 -84 c 0
 41 -84 25 -68 25 -50 c 0
 25 -32 38.97265625 -17.1435546875 57 -17 c 0
 183 -16 373.961914062 -16 387 -16 c 0
 405 -16 421 -32 421 -50 c 0
 421 -68 407.02734375 -83 389 -83 c 0
EndSplineSet
EndChar

StartChar: uni224B
Encoding: 75 8779 75
Width: 446
Flags: HW
LayerCount: 2
Fore
SplineSet
258 230 m 0
 231 230 217 252 203 274 c 0
 189 296 176 318 149 318 c 0
 128 318 116 298 104 277 c 0
 92 256 80 235 59 235 c 0
 41 235 26 250 26 268 c 0
 26 278 31 289 41 303 c 0
 42 303 41.4814453125 303.14453125 42 304 c 0
 79 365 105 383 148 383 c 0
 188 383 216.146484375 366.088867188 245 318 c 0
 251 308 255 302 259 298 c 1
 298 301 315 329 330 353 c 0
 342 373 353 391 374 391 c 0
 392 391 408 375 408 357 c 0
 408 345 402 338 396 330 c 0
 392 325 388 321 385 315 c 0
 345 255 314 234 262 231 c 2
 260 231 l 2
 259 231 259 231 258 230 c 0
257 72 m 0
 230 72 216 94 202 116 c 0
 188 138 175 160 148 160 c 0
 127 160 115 140 103 119 c 0
 91 98 79 77 58 77 c 0
 40 77 25 92 25 110 c 0
 25 120 30 131 40 145 c 0
 41 145 41 145 41 146 c 0
 78 207 105 227 148 227 c 0
 188 227 215 208 244 160 c 0
 250 150 254 144 258 140 c 1
 297 143 314 171 329 195 c 0
 341 215 352 233 373 233 c 0
 391 233 407 217 407 199 c 0
 407 187 401 180 395 172 c 0
 391 167 387 163 384 157 c 0
 344 97 313 76 261 73 c 2
 259 73 l 2
 258 73 258 73 257 72 c 0
271 -83 m 0
 244 -83 230 -61 216 -39 c 0
 202 -17 189 5 162 5 c 0
 141 5 129 -15 117 -36 c 0
 105 -57 93 -78 72 -78 c 0
 54 -78 39 -63 39 -45 c 0
 39 -35 44 -24 54 -10 c 0
 55 -10 55 -10 55 -9 c 0
 92 52 119 72 162 72 c 0
 202 72 229 53 258 5 c 0
 264 -5 268 -11 272 -15 c 1
 311 -12 328 16 343 40 c 0
 355 60 366 78 387 78 c 0
 405 78 421 62 421 44 c 0
 421 32 415 25 409 17 c 0
 405 12 401 8 398 2 c 0
 358 -58 327 -79 275 -82 c 2
 273 -82 l 2
 272 -82 272 -82 271 -83 c 0
EndSplineSet
EndChar

StartChar: uni224C
Encoding: 76 8780 76
Width: 447
Flags: HW
LayerCount: 2
Fore
SplineSet
389 53 m 0
 268 53 72.0380859375 52 59 52 c 0
 41 52 25 68 25 86 c 0
 25 104 38.97265625 118.856445312 57 119 c 0
 183 120 373.961914062 120 387 120 c 0
 405 120 421 104 421 86 c 0
 421 68 407.02734375 53 389 53 c 0
390 -50 m 0
 269 -50 73.0380859375 -51 60 -51 c 0
 42 -51 26 -35 26 -17 c 0
 26 1 39.97265625 15.8564453125 58 16 c 0
 184 17 374.961914062 17 388 17 c 0
 406 17 422 1 422 -17 c 0
 422 -35 408.02734375 -50 390 -50 c 0
257 349 m 0
 230 349 216 327 202 305 c 0
 188 283 175 261 148 261 c 0
 127 261 115 281 103 302 c 0
 91 323 79 344 58 344 c 0
 40 344 25 329 25 311 c 0
 25 301 30 290 40 276 c 0
 41 276 41 276 41 275 c 0
 78 214 105 194 148 194 c 0
 188 194 215 213 244 261 c 0
 250 271 254 277 258 281 c 1
 297 278 314 250 329 226 c 0
 341 206 352 188 373 188 c 0
 391 188 407 204 407 222 c 0
 407 234 401 241 395 249 c 0
 391 254 387 258 384 264 c 0
 344 324 313 345 261 348 c 2
 259 348 l 2
 258 348 258 348 257 349 c 0
EndSplineSet
EndChar

StartChar: uni224D
Encoding: 77 8781 77
Width: 401
VWidth: 0
Flags: HW
LayerCount: 2
Fore
SplineSet
64.48828125 -0.4931640625 m 4
 46.0029296875 -0.4931640625 30.994140625 14.5146484375 30.994140625 33 c 4
 30.994140625 42.396484375 34.8720703125 50.89453125 41.11328125 56.9794921875 c 4
 83 97.818359375 131.887695312 133.5 200.497070312 133.5 c 4
 277.165039062 133.5 317.995117188 98.9453125 364.565429688 58.1962890625 c 4
 371.584960938 52.0546875 376.020507812 43.0322265625 376.020507812 32.982421875 c 4
 376.020507812 14.4970703125 361.01171875 -0.51171875 342.526367188 -0.51171875 c 4
 334.08984375 -0.51171875 326.37890625 2.6142578125 320.454101562 7.7822265625 c 4
 271.486328125 50.6279296875 248.046875 66.5 200.497070312 66.5 c 4
 157.107421875 66.5 125.995117188 46.181640625 87.876953125 9.0166015625 c 4
 81.826171875 3.134765625 73.5771484375 -0.4931640625 64.48828125 -0.4931640625 c 4
40.19921875 238.94140625 m 0
 40.19921875 239.260742188 25 247.545898438 25 267.001953125 c 0
 25 285.489257812 40.009765625 300.5 58.498046875 300.5 c 0
 69.4521484375 300.5 73.1630859375 298.6015625 110.305664062 271.637695312 c 0
 141.469726562 249.014648438 162.959960938 233.413085938 202.391601562 233.413085938 c 0
 241.595703125 233.413085938 265.698242188 255.5390625 303.466796875 291.319335938 c 0
 309.471679688 297.0078125 317.577148438 300.498046875 326.493164062 300.498046875 c 0
 344.978515625 300.498046875 359.986328125 285.490234375 359.986328125 267.004882812 c 0
 359.986328125 262.646484375 359.986328125 252.592773438 347.967773438 241.203125 c 0
 312.677734375 207.759765625 270.634765625 166.413085938 202.391601562 166.413085938 c 0
 141.216796875 166.413085938 105.784179688 192.135742188 71.0048828125 217.383789062 c 0
 61.18359375 224.513671875 51.2373046875 231.723632812 40.19921875 238.94140625 c 0
EndSplineSet
EndChar

StartChar: uni224E
Encoding: 78 8782 78
Width: 639
VWidth: 0
Flags: HW
LayerCount: 2
Fore
SplineSet
529.15234375 99.0029296875 m 0
 557.13671875 99.0029296875 580.123046875 101.5078125 580.638671875 101.5078125 c 0
 599.12890625 101.5078125 614.141601562 86.4951171875 614.141601562 68.0048828125 c 0
 614.141601562 50.7314453125 601.041015625 36.494140625 584.173828125 34.6923828125 c 0
 565.490234375 32.6904296875 546.94921875 32.0029296875 529.15234375 32.0029296875 c 0
 503.512695312 32.0029296875 479.392578125 33.431640625 458.947265625 34.6298828125 c 0
 443.16796875 35.5537109375 429.49609375 36.3193359375 419.8203125 36.3193359375 c 0
 419.493164062 36.3193359375 419.170898438 36.3154296875 418.853515625 36.3154296875 c 0
 412.848632812 7.150390625 401.877929688 -46.125 358.123046875 -71.142578125 c 0
 344.223632812 -79.08984375 327.63671875 -83.5 309.5703125 -83.5 c 0
 283.79296875 -83.5 238.290039062 -72.408203125 222.616210938 1.8779296875 c 0
 219.38671875 17.1845703125 217.951171875 31.9970703125 217.103515625 44.15625 c 1
 197.014648438 43.0595703125 168.873046875 41.5244140625 138.37890625 41.5244140625 c 0
 110.928710938 41.5244140625 81.5537109375 42.7255859375 53.626953125 46.86328125 c 0
 37.4091796875 49.2578125 25 63.1943359375 25 80.005859375 c 0
 25 98.4970703125 40.0126953125 113.509765625 58.50390625 113.509765625 c 0
 64.927734375 113.509765625 85.873046875 108.524414062 138.37890625 108.524414062 c 0
 168.036132812 108.524414062 240.556640625 112.244140625 241.58984375 112.244140625 c 0
 242.729492188 112.244140625 243.755859375 112.283203125 244.852539062 112.283203125 c 0
 253.939453125 112.283203125 278.396484375 109.14453125 282.098632812 75.8291015625 c 0
 283.579101562 62.5126953125 283.576171875 37.5498046875 288.173828125 15.7568359375 c 0
 289.103515625 11.353515625 293.907226562 -9.5634765625 302.344726562 -14.83203125 c 0
 303.739257812 -15.703125 305.392578125 -16.5 309.5703125 -16.5 c 0
 333.84375 -16.5 343.693359375 3.66796875 353.35546875 50.4853515625 c 0
 357.061523438 68.4462890625 359.509765625 80.306640625 370.173828125 89.904296875 c 0
 380.813476562 99.48046875 393.760742188 103.319335938 419.8203125 103.319335938 c 0
 447.610351562 103.319335938 486.909179688 99.0029296875 529.15234375 99.0029296875 c 0
483.982421875 176.45703125 m 0
 442.572265625 176.45703125 410.200195312 169.170898438 388.586914062 169.170898438 c 0
 388.486328125 169.170898438 388.384765625 169.170898438 388.283203125 169.170898438 c 0
 348.11328125 169.170898438 343.249023438 199.899414062 340.92578125 214.577148438 c 0
 337.465820312 236.4296875 336.42578125 272.983398438 329.625976562 296.537109375 c 0
 325.5390625 310.697265625 321.31640625 313.678710938 321.249023438 313.858398438 c 0
 321.249023438 313.900390625 321.11328125 314.001953125 319.795898438 314.001953125 c 0
 295.422851562 314.001953125 287.654296875 288.125976562 279.28515625 229.643554688 c 0
 277.82421875 219.436523438 276.395507812 209.282226562 274.419921875 199.404296875 c 0
 268.103515625 167.825195312 232.409179688 167.825195312 207.791992188 167.825195312 c 0
 164.818359375 167.825195312 117.569335938 171.756835938 66.076171875 172.50390625 c 0
 47.796875 172.768554688 33.052734375 187.67578125 33.052734375 206 c 0
 33.052734375 224.489257812 48.0634765625 239.5 66.552734375 239.5 c 0
 94.0595703125 239.5 173.506835938 234.825195312 207.791992188 234.825195312 c 0
 209.37890625 234.825195312 210.897460938 234.838867188 212.33984375 234.864257812 c 0
 219.737304688 286.030273438 227.388671875 338.948242188 269.149414062 366.388671875 c 0
 277.595703125 371.938476562 295.159179688 381.001953125 319.795898438 381.001953125 c 0
 345.348632812 381.001953125 382.422851562 368.84765625 396.970703125 303.46484375 c 0
 401.2734375 284.124023438 402.983398438 264.767578125 404.484375 248.75390625 c 0
 404.850585938 244.842773438 405.252929688 241.081054688 405.65625 237.62890625 c 0
 450.993164062 242.58203125 458.999023438 243.45703125 483.982421875 243.45703125 c 0
 512.94921875 243.45703125 545.737304688 240.41796875 579.44921875 230.016601562 c 0
 593.126953125 225.796875 603.078125 213.047851562 603.078125 197.993164062 c 0
 603.078125 179.5 588.064453125 164.486328125 569.571289062 164.486328125 c 0
 557.6328125 164.486328125 537.256835938 176.45703125 483.982421875 176.45703125 c 0
EndSplineSet
EndChar

StartChar: uni224F
Encoding: 79 8783 79
Width: 624
VWidth: 0
Flags: HW
LayerCount: 2
Fore
SplineSet
475.9296875 128.455078125 m 0
 434.51953125 128.455078125 402.147460938 121.168945312 380.534179688 121.168945312 c 0
 380.432617188 121.168945312 380.33203125 121.168945312 380.23046875 121.168945312 c 0
 340.060546875 121.168945312 335.197265625 151.897460938 332.873046875 166.575195312 c 0
 329.413085938 188.427734375 332.372070312 191.981445312 325.573242188 215.536132812 c 0
 321.486328125 229.6953125 317.263671875 232.676757812 317.196289062 232.856445312 c 0
 317.196289062 232.8984375 317.060546875 233 315.743164062 233 c 0
 291.370117188 233 279.602539062 240.124023438 271.232421875 181.641601562 c 0
 269.771484375 171.434570312 268.342773438 161.280273438 266.3671875 151.40234375 c 0
 260.05078125 119.823242188 224.356445312 119.823242188 199.739257812 119.823242188 c 0
 156.765625 119.823242188 109.516601562 123.755859375 58.0234375 124.501953125 c 0
 39.744140625 124.766601562 25 139.673828125 25 157.998046875 c 0
 25 176.487304688 40.0107421875 191.498046875 58.5 191.498046875 c 0
 86.0068359375 191.498046875 165.454101562 186.823242188 199.739257812 186.823242188 c 0
 201.326171875 186.823242188 204.080078125 185.435546875 204.286132812 186.862304688 c 0
 211.684570312 238.028320312 223.334960938 257.946289062 265.096679688 285.38671875 c 0
 273.54296875 290.936523438 291.106445312 300 315.743164062 300 c 0
 341.295898438 300 378.370117188 287.845703125 392.916992188 222.462890625 c 0
 397.220703125 203.122070312 394.932617188 216.765625 396.431640625 200.751953125 c 0
 396.797851562 196.840820312 397.200195312 193.079101562 397.603515625 189.626953125 c 0
 442.940429688 194.581054688 450.946289062 195.455078125 475.9296875 195.455078125 c 0
 504.896484375 195.455078125 537.684570312 192.416015625 571.396484375 182.015625 c 0
 585.07421875 177.795898438 595.025390625 165.045898438 595.025390625 149.991210938 c 0
 595.025390625 131.498046875 580.01171875 116.484375 561.518554688 116.484375 c 0
 549.580078125 116.484375 529.204101562 128.455078125 475.9296875 128.455078125 c 0
566.743164062 0 m 0
 445.743164062 0 75.78125 -1 62.7431640625 -1 c 0
 44.7431640625 -1 28.7431640625 15 28.7431640625 33 c 0
 28.7431640625 51 42.7158203125 65.8564453125 60.7431640625 66 c 0
 186.743164062 67 551.705078125 67 564.743164062 67 c 0
 582.743164062 67 598.743164062 51 598.743164062 33 c 0
 598.743164062 15 584.770507812 0 566.743164062 0 c 0
EndSplineSet
EndChar

StartChar: uni2250
Encoding: 80 8784 80
Width: 327
Flags: HW
HStem: 112 66<28.1243 89.8757>
VStem: 25 68<115.293 174.707>
LayerCount: 2
Fore
SplineSet
59 37 m 0
 41 37 25 53 25 71 c 0
 25 89 39 103 58 104 c 0
 62 104 99 105 145 107 c 0
 184 109 230 111 268 112 c 0
 286 112 302 96 302 78 c 0
 302 60 288 46 269 45 c 0
 265 45 228 44 182 42 c 0
 143 40 97 38 59 37 c 0
58 240 m 0
 64 240 111 242 158 244 c 0
 205 246 251 249 257 249 c 1
 258 250 l 1
 276 250 292 234 292 216 c 0
 292 198 278 184 260 183 c 0
 253 183 133 177 59 173 c 0
 41 173 26 189 26 207 c 0
 26 225 40 239 58 240 c 0
128 350 m 0
 128 368 144 383 162 383 c 0
 180 383 196 368 196 350 c 0
 196 332 180 317 162 317 c 0
 144 317 128 332 128 350 c 0
EndSplineSet
EndChar

StartChar: uni2251
Encoding: 81 8785 81
Width: 327
Flags: HW
HStem: 112 66<28.1243 89.8757>
VStem: 25 68<115.293 174.707>
LayerCount: 2
Fore
SplineSet
59 37 m 0
 41 37 25 53 25 71 c 0
 25 89 39 103 58 104 c 0
 62 104 99 105 145 107 c 0
 184 109 230 111 268 112 c 0
 286 112 302 96 302 78 c 0
 302 60 288 46 269 45 c 0
 265 45 228 44 182 42 c 0
 143 40 97 38 59 37 c 0
58 240 m 0
 64 240 111 242 158 244 c 0
 205 246 251 249 257 249 c 1
 258 250 l 1
 276 250 292 234 292 216 c 0
 292 198 278 184 260 183 c 0
 253 183 133 177 59 173 c 0
 41 173 26 189 26 207 c 0
 26 225 40 239 58 240 c 0
128 350 m 0
 128 368 144 383 162 383 c 0
 180 383 196 368 196 350 c 0
 196 332 180 317 162 317 c 0
 144 317 128 332 128 350 c 0
132 -50 m 0
 132 -32 148 -17 166 -17 c 0
 184 -17 200 -32 200 -50 c 0
 200 -68 184 -83 166 -83 c 0
 148 -83 132 -68 132 -50 c 0
EndSplineSet
EndChar

StartChar: uni2252
Encoding: 82 8786 82
Width: 327
Flags: HW
HStem: 112 66<28.1243 89.8757>
VStem: 25 68<115.293 174.707>
LayerCount: 2
Fore
SplineSet
59 37 m 0
 41 37 25 53 25 71 c 0
 25 89 39 103 58 104 c 0
 62 104 99 105 145 107 c 0
 184 109 230 111 268 112 c 0
 286 112 302 96 302 78 c 0
 302 60 288 46 269 45 c 0
 265 45 228 44 182 42 c 0
 143 40 97 38 59 37 c 0
58 240 m 0
 64 240 111 242 158 244 c 0
 205 246 251 249 257 249 c 1
 258 250 l 1
 276 250 292 234 292 216 c 0
 292 198 278 184 260 183 c 0
 253 183 133 177 59 173 c 0
 41 173 26 189 26 207 c 0
 26 225 40 239 58 240 c 0
26 350 m 0
 26 368 42 383 60 383 c 0
 78 383 94 368 94 350 c 0
 94 332 78 317 60 317 c 0
 42 317 26 332 26 350 c 0
232 -50 m 0
 232 -32 248 -17 266 -17 c 0
 284 -17 300 -32 300 -50 c 0
 300 -68 284 -83 266 -83 c 0
 248 -83 232 -68 232 -50 c 0
EndSplineSet
EndChar

StartChar: uni2253
Encoding: 83 8787 83
Width: 327
Flags: HW
HStem: 112 66<28.1243 89.8757>
VStem: 25 68<115.293 174.707>
LayerCount: 2
Fore
SplineSet
59 37 m 0
 41 37 25 53 25 71 c 0
 25 89 39 103 58 104 c 0
 62 104 99 105 145 107 c 0
 184 109 230 111 268 112 c 0
 286 112 302 96 302 78 c 0
 302 60 288 46 269 45 c 0
 265 45 228 44 182 42 c 0
 143 40 97 38 59 37 c 0
58 240 m 0
 64 240 111 242 158 244 c 0
 205 246 251 249 257 249 c 1
 258 250 l 1
 276 250 292 234 292 216 c 0
 292 198 278 184 260 183 c 0
 253 183 133 177 59 173 c 0
 41 173 26 189 26 207 c 0
 26 225 40 239 58 240 c 0
224 350 m 0
 224 368 240 383 258 383 c 0
 276 383 292 368 292 350 c 0
 292 332 276 317 258 317 c 0
 240 317 224 332 224 350 c 0
35 -50 m 0
 35 -32 51 -17 69 -17 c 0
 87 -17 103 -32 103 -50 c 0
 103 -68 87 -83 69 -83 c 0
 51 -83 35 -68 35 -50 c 0
EndSplineSet
EndChar

StartChar: uni2254
Encoding: 84 8788 84
Width: 441
Flags: HW
HStem: 30 67<143.485 204.515> 192 68<142.293 202.515>
VStem: 140 68<33.4854 93.7074 196.673 255.327>
LayerCount: 2
Fore
SplineSet
173 37 m 0
 155 37 139 53 139 71 c 0
 139 89 153 103 172 104 c 0
 176 104 213 105 259 107 c 0
 298 109 344 111 382 112 c 0
 400 112 416 96 416 78 c 0
 416 60 402 46 383 45 c 0
 379 45 342 44 296 42 c 0
 257 40 211 38 173 37 c 0
172 240 m 0
 178 240 225 242 272 244 c 0
 319 246 365 249 371 249 c 1
 372 250 l 1
 390 250 406 234 406 216 c 0
 406 198 392 184 374 183 c 0
 367 183 247 177 173 173 c 0
 155 173 140 189 140 207 c 0
 140 225 154 239 172 240 c 0
25 233 m 0
 25 251 40 267 58 267 c 0
 76 267 92 251 92 233 c 0
 92 215 76 199 58 199 c 0
 40 199 25 215 25 233 c 0
26 67 m 0
 26 85 42 100 60 100 c 0
 78 100 94 85 94 67 c 0
 94 49 78 33 60 33 c 0
 42 33 26 49 26 67 c 0
EndSplineSet
EndChar

StartChar: uni2255
Encoding: 85 8789 85
Width: 441
Flags: HW
HStem: 30 67<29.4854 90.5146> 192 68<28.2926 88.5146>
VStem: 26 68<33.4854 93.7074 196.673 255.327>
LayerCount: 2
Fore
SplineSet
59 37 m 0
 41 37 25 53 25 71 c 0
 25 89 39 103 58 104 c 0
 62 104 99 105 145 107 c 0
 184 109 230 111 268 112 c 0
 286 112 302 96 302 78 c 0
 302 60 288 46 269 45 c 0
 265 45 228 44 182 42 c 0
 143 40 97 38 59 37 c 0
58 240 m 0
 64 240 111 242 158 244 c 0
 205 246 251 249 257 249 c 1
 258 250 l 1
 276 250 292 234 292 216 c 0
 292 198 278 184 260 183 c 0
 253 183 133 177 59 173 c 0
 41 173 26 189 26 207 c 0
 26 225 40 239 58 240 c 0
347 233 m 0
 347 251 362 267 380 267 c 0
 398 267 414 251 414 233 c 0
 414 215 398 199 380 199 c 0
 362 199 347 215 347 233 c 0
348 67 m 0
 348 85 364 100 382 100 c 0
 400 100 416 85 416 67 c 0
 416 49 400 33 382 33 c 0
 364 33 348 49 348 67 c 0
EndSplineSet
EndChar

StartChar: uni2256
Encoding: 86 8790 86
Width: 327
Flags: HW
HStem: 337 67<103.081 135.53>
VStem: 34 69<280.661 328> 136 67<287.012 335.73>
LayerCount: 2
Fore
SplineSet
59 0 m 0
 41 0 25 16 25 34 c 0
 25 52 39 66 58 67 c 0
 60.25 67 72.9404296875 67.31640625 91.80078125 67.94921875 c 1
 83.49609375 84.4013671875 79 106.1328125 79 132 c 0
 79 156.563476562 84.560546875 177.181640625 94.6171875 192.790039062 c 1
 82.7939453125 192.16796875 71.439453125 191.564453125 61 191 c 0
 43 191 28 207 28 225 c 0
 28 243 42 257 60 258 c 0
 66 258 113 260 160 262 c 0
 207 264 253 267 259 267 c 1
 260 268 l 1
 278 268 294 252 294 234 c 0
 294 216 280 202 262 201 c 0
 259.610351562 201 244.053710938 200.30078125 221.655273438 199.220703125 c 1
 237.8671875 182.99609375 248 160.86328125 248 137 c 0
 248 114.938476562 237.487304688 92.0986328125 221.530273438 73.4619140625 c 1
 237.633789062 74.083984375 253.40625 74.6162109375 268 75 c 0
 286 75 302 59 302 41 c 0
 302 23 288 9 269 8 c 0
 265 8 228 7 182 5 c 0
 143 3 97 1 59 0 c 0
149 151 m 2
 148 150 l 1
 148 149 l 1
 148 147 l 2
 146 142 146 140 146 132 c 0
 146 122 147 112 150 102 c 1
 168 111 181 126 181 137 c 0
 181 148 170 159 158 159 c 0
 152 159 151 158 149 151 c 2
EndSplineSet
EndChar

StartChar: uni2257
Encoding: 87 8791 87
Width: 327
Flags: HW
HStem: 337 67<105.081 137.53>
VStem: 36 69<280.661 328> 138 67<287.012 335.73>
LayerCount: 2
Fore
SplineSet
59 -83 m 0
 41 -83 25 -67 25 -49 c 0
 25 -31 39 -17 58 -16 c 0
 62 -16 99 -15 145 -13 c 0
 184 -11 230 -9 268 -8 c 0
 286 -8 302 -24 302 -42 c 0
 302 -60 288 -74 269 -75 c 0
 265 -75 228 -76 182 -78 c 0
 143 -80 97 -82 59 -83 c 0
58 120 m 0
 64 120 111 122 158 124 c 0
 205 126 251 129 257 129 c 1
 258 130 l 1
 276 130 292 114 292 96 c 0
 292 78 278 64 260 63 c 0
 253 63 133 57 59 53 c 0
 41 53 26 69 26 87 c 0
 26 105 40 119 58 120 c 0
154 308 m 2
 153 307 l 1
 153 306 l 1
 153 304 l 2
 151 299 151 297 151 289 c 0
 151 279 152 269 155 259 c 1
 173 268 186 283 186 294 c 0
 186 305 175 316 163 316 c 0
 157 316 156 315 154 308 c 2
150 190 m 0
 109 190 84 228 84 289 c 0
 84 347 115 383 163 383 c 0
 212 383 253 342 253 294 c 0
 253 244 199 190 150 190 c 0
EndSplineSet
EndChar

StartChar: uni2258
Encoding: 88 8792 88
Width: 327
Flags: HW
HStem: 337 67<105.081 137.53>
VStem: 36 69<280.661 328> 138 67<287.012 335.73>
LayerCount: 2
Fore
SplineSet
101.377929688 245.64453125 m 0
 101.099609375 245.64453125 92.7109375 234.009765625 75.9951171875 234.009765625 c 0
 57.509765625 234.009765625 42.5009765625 249.017578125 42.5009765625 267.50390625 c 0
 42.5009765625 275.850585938 45.5615234375 283.48828125 50.619140625 289.35546875 c 0
 64.4873046875 305.442382812 76.0185546875 338.80859375 108.568359375 361.814453125 c 0
 127.234375 375.0078125 151.596679688 383 181 383 c 0
 237.818359375 383 250.3984375 337.375976562 257.930664062 310.057617188 c 0
 268.49609375 271.739257812 270.5 280.364257812 270.5 267.498046875 c 0
 270.5 249.006835938 255.487304688 233.994140625 236.99609375 233.994140625 c 0
 223.936523438 233.994140625 212.079101562 241.544921875 206.565429688 253.490234375 c 0
 195.326171875 277.841796875 190.813476562 306.520507812 185.174804688 315.629882812 c 0
 184.564453125 315.78125 183.287109375 316 181 316 c 0
 149.272460938 316 139.14453125 303.547851562 121.235351562 274.331054688 c 0
 115.860351562 265.5625 109.966796875 255.603515625 101.377929688 245.64453125 c 0
59 -83 m 0
 41 -83 25 -67 25 -49 c 0
 25 -31 39 -17 58 -16 c 0
 62 -16 99 -15 145 -13 c 0
 184 -11 230 -9 268 -8 c 0
 286 -8 302 -24 302 -42 c 0
 302 -60 288 -74 269 -75 c 0
 265 -75 228 -76 182 -78 c 0
 143 -80 97 -82 59 -83 c 0
58 120 m 0
 64 120 111 122 158 124 c 0
 205 126 251 129 257 129 c 1
 258 130 l 1
 276 130 292 114 292 96 c 0
 292 78 278 64 260 63 c 0
 253 63 133 57 59 53 c 0
 41 53 26 69 26 87 c 0
 26 105 40 119 58 120 c 0
EndSplineSet
EndChar

StartChar: uni2259
Encoding: 89 8793 89
Width: 327
Flags: HW
HStem: 337 67<105.081 137.53>
VStem: 36 69<280.661 328> 138 67<287.012 335.73>
LayerCount: 2
Fore
SplineSet
84.9951171875 210.510742188 m 0
 66.509765625 210.510742188 51.501953125 225.51953125 51.501953125 244.004882812 c 0
 51.501953125 253.247070312 55.25390625 261.62109375 61.31640625 267.68359375 c 0
 104.642578125 311.009765625 125.458984375 336.545898438 138.032226562 351.916992188 c 0
 151.770507812 368.712890625 163.047851562 382.5 184 382.5 c 0
 208.212890625 382.5 218.970703125 360.518554688 223.81640625 350.618164062 c 0
 229.73046875 338.53515625 235.55078125 323.623046875 241.614257812 308.309570312 c 0
 249.514648438 288.352539062 258.080078125 267.45703125 263.166992188 258.48046875 c 0
 265.924804688 253.61328125 267.5 247.98828125 267.5 242 c 0
 267.5 223.509765625 252.489257812 208.499023438 233.999023438 208.499023438 c 0
 221.499023438 208.499023438 210.587890625 215.360351562 204.833007812 225.51953125 c 0
 197.583007812 238.314453125 197.583007812 238.314453125 175.76953125 292.509765625 c 1
 161.625 275.840820312 140.571289062 252.205078125 108.68359375 220.31640625 c 0
 102.611328125 214.263671875 94.23828125 210.510742188 84.9951171875 210.510742188 c 0
59 -83 m 0
 41 -83 25 -67 25 -49 c 0
 25 -31 39 -17 58 -16 c 0
 62 -16 99 -15 145 -13 c 0
 184 -11 230 -9 268 -8 c 0
 286 -8 302 -24 302 -42 c 0
 302 -60 288 -74 269 -75 c 0
 265 -75 228 -76 182 -78 c 0
 143 -80 97 -82 59 -83 c 0
58 120 m 0
 64 120 111 122 158 124 c 0
 205 126 251 129 257 129 c 1
 258 130 l 1
 276 130 292 114 292 96 c 0
 292 78 278 64 260 63 c 0
 253 63 133 57 59 53 c 0
 41 53 26 69 26 87 c 0
 26 105 40 119 58 120 c 0
EndSplineSet
EndChar

StartChar: uni225A
Encoding: 90 8794 90
Width: 327
Flags: HW
HStem: 337 67<105.081 137.53>
VStem: 36 69<280.661 328> 138 67<287.012 335.73>
LayerCount: 2
Fore
SplineSet
45.4619140625 349.064453125 m 0
 45.4619140625 367.552734375 60.4716796875 382.5625 78.958984375 382.5625 c 0
 90.46484375 382.5625 100.623046875 376.749023438 106.698242188 367.838867188 c 0
 125.235351562 340.650390625 146.497070312 302.581054688 161.252929688 284.181640625 c 1
 173.122070312 304.1171875 188.018554688 338.435546875 202.635742188 365.126953125 c 0
 208.326171875 375.51953125 219.366210938 382.572265625 232.041015625 382.572265625 c 0
 250.530273438 382.572265625 265.541992188 367.561523438 265.541992188 349.071289062 c 0
 265.541992188 343.255859375 264.056640625 337.784179688 261.403320312 332.944335938 c 0
 245.641601562 304.162109375 230.248046875 266.685546875 213.1484375 240.776367188 c 0
 203.122070312 225.583984375 188.3203125 207.48828125 164.450195312 207.48828125 c 0
 127.903320312 207.48828125 103.693359375 246.59375 73.2890625 295.704101562 c 0
 65.67578125 308 58.228515625 320.001953125 51.3017578125 330.161132812 c 0
 47.6025390625 335.595703125 45.4619140625 342.08203125 45.4619140625 349.064453125 c 0
59 -83 m 0
 41 -83 25 -67 25 -49 c 0
 25 -31 39 -17 58 -16 c 0
 62 -16 99 -15 145 -13 c 0
 184 -11 230 -9 268 -8 c 0
 286 -8 302 -24 302 -42 c 0
 302 -60 288 -74 269 -75 c 0
 265 -75 228 -76 182 -78 c 0
 143 -80 97 -82 59 -83 c 0
58 120 m 0
 64 120 111 122 158 124 c 0
 205 126 251 129 257 129 c 1
 258 130 l 1
 276 130 292 114 292 96 c 0
 292 78 278 64 260 63 c 0
 253 63 133 57 59 53 c 0
 41 53 26 69 26 87 c 0
 26 105 40 119 58 120 c 0
EndSplineSet
EndChar

StartChar: uni225B
Encoding: 91 8795 91
Width: 327
Flags: HW
HStem: 347 64<31.3641 80.8942 191.462 242.876> 447 20G<127 145>
VStem: 103 67<396 463.515>
LayerCount: 2
Fore
SplineSet
59 -83 m 0
 41 -83 25 -67 25 -49 c 0
 25 -31 39 -17 58 -16 c 0
 62 -16 99 -15 145 -13 c 0
 184 -11 230 -9 268 -8 c 0
 286 -8 302 -24 302 -42 c 0
 302 -60 288 -74 269 -75 c 0
 265 -75 228 -76 182 -78 c 0
 143 -80 97 -82 59 -83 c 0
58 100 m 0
 64 100 111 102 158 104 c 0
 205 106 251 109 257 109 c 1
 258 110 l 1
 276 110 292 94 292 76 c 0
 292 58 278 44 260 43 c 0
 253 43 133 37 59 33 c 0
 41 33 26 49 26 67 c 0
 26 85 40 99 58 100 c 0
79 327 m 0
 87 327 92 324 100 320 c 0
 105 317 112 313 121 310 c 1
 121 352 l 2
 122 369 136 383 154 383 c 0
 172 383 188 367 188 349 c 2
 188 312 l 1
 211 323 224 328 230 328 c 0
 248 328 264 312 264 294 c 0
 264 280 256 268 244 263 c 0
 219 253 219 253 209 248 c 1
 238 219 l 2
 244 213 248 204 248 195 c 0
 248 177 233 162 215 162 c 0
 205 162 197 165 191 171 c 2
 154 209 l 1
 153 208 146 200 140 192 c 0
 134 184 127 175 126 174 c 0
 120 166 111 162 100 162 c 0
 82 162 67 177 67 195 c 0
 67 209 68 211 99 247 c 1
 97 248 83 254 65 263 c 0
 54 268 46 280 46 293 c 0
 46 311 61 327 79 327 c 0
EndSplineSet
EndChar

StartChar: uni225C
Encoding: 92 8796 92
Width: 327
Flags: HW
HStem: 337 67<105.081 137.53>
VStem: 36 69<280.661 328> 138 67<287.012 335.73>
LayerCount: 2
Fore
SplineSet
164.993164062 261.791015625 m 1
 163.303710938 265.534179688 158.431640625 276.2578125 152.87890625 287.331054688 c 1
 148.165039062 279.475585938 143.270507812 271.151367188 138.516601562 262.985351562 c 1
 164.993164062 261.791015625 l 1
248.510742188 225.9453125 m 0
 248.510742188 207.684570312 233.670898438 192.46484375 214.94921875 192.46484375 c 0
 214.188476562 192.46484375 214.188476562 192.46484375 80.4677734375 198.534179688 c 0
 62.447265625 199.34765625 48.462890625 214.254882812 48.462890625 231.98828125 c 0
 48.462890625 240.790039062 48.5 240.853515625 62.013671875 264.430664062 c 0
 114.0625 355.23828125 124.657226562 370.041015625 136.92578125 377.426757812 c 0
 139.892578125 379.212890625 145.059570312 382.5 155 382.5 c 0
 176.727539062 382.5 187.418945312 367.147460938 209.38671875 324.09375 c 0
 216.125976562 310.885742188 248.510742188 246.353515625 248.510742188 225.9453125 c 0
59 -83 m 0
 41 -83 25 -67 25 -49 c 0
 25 -31 39 -17 58 -16 c 0
 62 -16 99 -15 145 -13 c 0
 184 -11 230 -9 268 -8 c 0
 286 -8 302 -24 302 -42 c 0
 302 -60 288 -74 269 -75 c 0
 265 -75 228 -76 182 -78 c 0
 143 -80 97 -82 59 -83 c 0
58 120 m 0
 64 120 111 122 158 124 c 0
 205 126 251 129 257 129 c 1
 258 130 l 1
 276 130 292 114 292 96 c 0
 292 78 278 64 260 63 c 0
 253 63 133 57 59 53 c 0
 41 53 26 69 26 87 c 0
 26 105 40 119 58 120 c 0
EndSplineSet
EndChar

StartChar: uni225D
Encoding: 93 8797 93
Width: 633
Flags: HW
HStem: 349 45<26.4531 79.9531 130 226.406> 467 44<145.17 199.664>
VStem: 77 45<200.496 284 285 348.4> 84 46<396 454.89>
LayerCount: 2
Fore
SplineSet
59 -83 m 0
 41 -83 25 -67 25 -49 c 0
 25 -31 39 -17 58 -16 c 0
 62 -16 99.0166015625 -15.3583984375 145 -13 c 0
 184 -11 536 -1 574 0 c 0
 592 0 608 -16 608 -34 c 0
 608 -52 594 -66 575 -67 c 0
 571 -67 227.983398438 -75.6416015625 182 -78 c 0
 143 -80 97 -82 59 -83 c 0
58 120 m 0
 64 120 111 122 158 124 c 0
 205 126 557 137 563 137 c 1
 564 138 l 1
 582 138 598 122 598 104 c 0
 598 86 584 72 566 71 c 0
 559 71 133.108398438 53 59 53 c 0
 41 53 26 69 26 87 c 0
 26 105 40 119 58 120 c 0
146 336 m 2
 146 338 l 2
 147 341 147 342 146 343 c 0
 131 351 118 355 108 355 c 0
 88 355 70 313 70 267 c 0
 70 250 73 245 82 245 c 0
 88 245 94 247 101 250 c 0
 108 253 114 256 120 256 c 0
 141 264 147 271 147 289 c 2
 147 290 l 2
 146 306 146 313 146 336 c 2
194 338 m 0
 194 333 195 306 196 280 c 0
 197 254 198 228 198 223 c 0
 198 211 187 200 175 200 c 0
 163 200 153 210 152 222 c 1
 132 209 102 200 82 200 c 0
 47 200 26 225 26 267 c 0
 26 344 60 400 108 400 c 0
 119 400 129 398 147 391 c 1
 148 415 151 449 156 491 c 0
 157 502 167 511 178 511 c 0
 191 511 200 502 200 489 c 2
 200 485 l 1
 196 435 194 383 194 338 c 0
316 329 m 2
 316 330 317 331 317 332 c 0
 318 333 318 334 318 335 c 2
 318 336 l 2
 318 341 315 348 310 355 c 1
 292 348 283 333 274 296 c 1
 293 299 305 309 316 328 c 1
 316 329 l 2
294 245 m 0
 306 245 317 250 327 254 c 0
 337 258 347 263 359 263 c 0
 371 263 382 253 382 241 c 0
 382 232 377 225 370 221 c 0
 343 206 320 200 294 200 c 0
 253 200 226 228 226 271 c 0
 226 339 267 400 312 400 c 0
 340 400 362 372 362 336 c 0
 362 297 320 256 275 251 c 1
 278 246 282 245 294 245 c 0
485 351 m 1
 485 346 484 316 483 286 c 0
 482 256 481 226 481 221 c 0
 480 209 471 200 459 200 c 0
 447 200 436 211 436 223 c 0
 437 225 437 228 437 244 c 0
 437 248 438 250 438 254 c 0
 438 258 438 261 438 265 c 2
 438 282 l 1
 438 284 l 1
 439 285 l 1
 440 336 440 336 441 349 c 1
 440 348 439 349 437 349 c 0
 436 349 435 349 434 349 c 2
 429 349 l 2
 423 349 420 349 416 348 c 0
 415 348 413 348 412 348 c 0
 411 348 410 347 409 347 c 0
 397 347 387 357 387 369 c 0
 387 387 398 393 433 393 c 0
 434 393 435 394 436 394 c 0
 437 394 438 394 439 394 c 2
 445 394 l 1
 455 471 484 511 531 511 c 0
 553 511 576 490 576 471 c 0
 576 459 566 448 554 448 c 0
 549 448 545 453 542 458 c 0
 539 463 536 467 531 467 c 0
 512 467 498 442 491 396 c 1
 513 397 532 398 548 399 c 0
 551 399 553 400 556 400 c 0
 559 400 562 400 565 400 c 2
 567 400 l 2
 579 400 589 389 589 377 c 0
 589 365 580 356 568 355 c 0
 545 353 502 351 485 351 c 1
EndSplineSet
EndChar

StartChar: uni225E
Encoding: 94 8798 94
Width: 344
Flags: HW
HStem: 347 45<109.165 162.945 235.641 282.395>
VStem: 39 46<200.916 269.859 272 321.531> 159 45<233.279 306.396> 282 44<200.179 345.582>
LayerCount: 2
Fore
SplineSet
69 -83 m 0
 51 -83 35 -67 35 -49 c 0
 35 -31 49 -17 68 -16 c 0
 72 -16 109 -15 155 -13 c 0
 194 -11 240 -9 278 -8 c 0
 296 -8 312 -24 312 -42 c 0
 312 -60 298 -74 279 -75 c 0
 275 -75 238 -76 192 -78 c 0
 153 -80 107 -82 69 -83 c 0
68 120 m 0
 74 120 121 122 168 124 c 0
 215 126 261 129 267 129 c 1
 268 130 l 1
 286 130 302 114 302 96 c 0
 302 78 288 64 270 63 c 0
 263 63 143 57 69 53 c 0
 51 53 36 69 36 87 c 0
 36 105 50 119 68 120 c 0
271 229 m 2
 271 235 271 250 272 264 c 0
 273 278 274 293 274 299 c 0
 274 334 268 347 252 347 c 0
 231 347 203 302 193 251 c 0
 191 241 182 233 171 233 c 0
 158 233 148 243 148 256 c 0
 148 269 150 276 152 282 c 0
 154 288 155 294 155 307 c 0
 155 323 151 336 143 346 c 0
 142 346 142 346 141 347 c 0
 104 347 77 314 74 265 c 0
 72 214 66 200 47 200 c 0
 34 200 25 209 25 222 c 2
 25 224 l 2
 26 231 26 231 26 232 c 0
 26 234 26 236 27 237 c 0
 27 239 28 240 28 242 c 0
 28 244 28 246 28 248 c 0
 28 252 28 256 29 262 c 0
 29 264 30 267 30 270 c 2
 30 271 l 1
 31 272 l 1
 31 283 l 1
 36 366 47 400 70 400 c 0
 82 400 91 391 92 379 c 1
 111 387 128 391 141 391 c 0
 164 391 176 383 189 357 c 1
 207 380 229 392 252 392 c 0
 296 392 319 360 319 299 c 0
 319 285 318 274 317 264 c 0
 316 254 315 243 315 229 c 2
 315 223 l 1
 316 223 l 1
 316 211 305 200 293 200 c 0
 281 200 271 210 271 222 c 2
 271 229 l 2
EndSplineSet
EndChar

StartChar: uni225F
Encoding: 95 8799 95
Width: 327
Flags: HW
HStem: 112 66<29.1243 90.8757>
VStem: 26 68<115.293 174.707>
LayerCount: 2
Fore
SplineSet
153.930664062 295.458984375 m 0
 135.442382812 295.458984375 120.431640625 310.46875 120.431640625 328.95703125 c 0
 120.431640625 340.84375 126.63671875 351.29296875 136.049804688 357.283203125 c 0
 147.763671875 364.737304688 181.294921875 382.625 210.712890625 382.625 c 0
 221.487304688 382.625 240.373046875 379.857421875 251.720703125 362.290039062 c 0
 256.245117188 355.286132812 258.961914062 346.91015625 258.961914062 332.638671875 c 0
 258.961914062 284.932617188 224.267578125 249.232421875 178.8203125 218.2890625 c 0
 173.455078125 214.63671875 166.975585938 212.5 160.000976562 212.5 c 0
 141.513671875 212.5 126.50390625 227.509765625 126.50390625 245.998046875 c 0
 126.50390625 257.51171875 132.325195312 267.67578125 141.1796875 273.7109375 c 0
 157.83984375 285.053710938 169.321289062 295.068359375 177.091796875 303.693359375 c 1
 175.130859375 302.639648438 173.381835938 301.627929688 171.950195312 300.716796875 c 0
 166.690429688 297.372070312 160.532226562 295.458984375 153.930664062 295.458984375 c 0
130 157 m 0
 130 175 146 190 164 190 c 0
 182 190 198 175 198 157 c 0
 198 139 182 124 164 124 c 0
 146 124 130 139 130 157 c 0
59 -83 m 0
 41 -83 25 -67 25 -49 c 0
 25 -31 39 -17 58 -16 c 0
 62 -16 99 -15 145 -13 c 0
 184 -11 230 -9 268 -8 c 0
 286 -8 302 -24 302 -42 c 0
 302 -60 288 -74 269 -75 c 0
 265 -75 228 -76 182 -78 c 0
 143 -80 97 -82 59 -83 c 0
58 100 m 0
 64 100 111 102 158 104 c 0
 205 106 251 109 257 109 c 1
 258 110 l 1
 276 110 292 94 292 76 c 0
 292 58 278 44 260 43 c 0
 253 43 133 37 59 33 c 0
 41 33 26 49 26 67 c 0
 26 85 40 99 58 100 c 0
EndSplineSet
EndChar

StartChar: notequal
Encoding: 96 8800 96
Width: 327
Flags: HW
HStem: 447 20G<274 290>
VStem: 25 65<-107.515 -44.422> 250 65<402.216 463.515>
LayerCount: 2
Fore
SplineSet
58 240 m 0
 64 240 111 242 158 244 c 0
 159.565990904 244.066637911 161.130871656 244.134385974 162.693199677 244.203096235 c 0
 167.49003775 255.17823421 172.269473016 266.132573142 177 277 c 0
 214 362 207 348 213 363 c 0
 218 375 230 383 244 383 c 0
 262 383 278 367 278 349 c 0
 278 342.400066298 267.014969273 315.229567124 237.663053779 248.068500221 c 1
 247.895861037 248.632282695 254.89937922 249 257 249 c 2
 258 250 l 1
 276 250 292 234 292 216 c 0
 292 198 278 184 260 183 c 0
 257.215414962 183 236.54935517 182.050541163 208.01067706 180.655213751 c 1
 204.804010526 173.39357482 201.468349507 165.845076266 198 158 c 0
 190.336531131 140.665963273 183.005991713 124.197543118 176.002306997 108.515767801 c 1
 206.975380639 109.956387268 239.705378913 111.255404708 268 112 c 0
 286 112 302 96 302 78 c 0
 302 60 288 46 269 45 c 0
 265 45 228 44 182 42 c 0
 170.306565073 41.4003366704 157.983836956 40.8006733409 145.436134274 40.2279645863 c 1
 127.983084419 1.18150182166 113.221045453 -32.2444110699 101 -62 c 0
 97 -74 83 -83 70 -83 c 0
 52 -83 36 -67 36 -49 c 0
 36 -45.9442585236 50.335513246 -12.2268786101 71.9620751666 37.3696003248 c 1
 67.5561020228 37.2349362695 63.2285208491 37.1112768645 59 37 c 0
 41 37 25 53 25 71 c 0
 25 89 39 103 58 104 c 0
 60.624833256 104 77.4597751064 104.430609351 101.723159077 105.291828054 c 1
 111.710449266 128.022238893 122.327405675 152.156749867 133.193391706 176.896609631 c 1
 107.182386982 175.561262308 81.0492169918 174.191849567 59 173 c 0
 41 173 26 189 26 207 c 0
 26 225 40 239 58 240 c 0
EndSplineSet
EndChar

StartChar: equivalence
Encoding: 97 8801 97
Width: 328
Flags: HW
HStem: 447 20G<258 274>
VStem: 9 65<-107.515 -44.422> 234 65<402.216 463.515>
LayerCount: 2
Fore
SplineSet
58 186 m 0
 64 186 111 188 158 190 c 0
 205 192 251 195 257 195 c 1
 258 196 l 1
 276 196 292 180 292 162 c 0
 292 144 278 130 260 129 c 0
 253 129 133 123 59 119 c 0
 41 119 26 135 26 153 c 0
 26 171 40 185 58 186 c 0
60 -50 m 0
 42 -50 26 -34 26 -16 c 0
 26 2 40 16 59 17 c 0
 63 17 100 18 146 20 c 0
 185 22 231 24 269 25 c 0
 287 25 303 9 303 -9 c 0
 303 -27 289 -41 270 -42 c 0
 266 -42 229 -43 183 -45 c 0
 144 -47 98 -49 60 -50 c 0
57 340 m 0
 63 340 110 342 157 344 c 0
 204 346 250 349 256 349 c 1
 257 350 l 1
 275 350 291 334 291 316 c 0
 291 298 277 284 259 283 c 0
 252 283 132 277 58 273 c 0
 40 273 25 289 25 307 c 0
 25 325 39 339 57 340 c 0
EndSplineSet
EndChar

StartChar: uni2262
Encoding: 98 8802 98
Width: 328
Flags: HW
HStem: 447 20G<258 274>
VStem: 9 65<-107.515 -44.422> 234 65<402.216 463.515>
LayerCount: 2
Fore
SplineSet
57 340 m 0
 63 340 110 342 157 344 c 0
 173.44140625 344.69921875 189.760742188 345.521484375 204.288085938 346.294921875 c 1
 216.690429688 373.395507812 208.411132812 351.528320312 213 363 c 0
 218 375 230 383 244 383 c 0
 262 383 278 367 278 349 c 0
 278 347.493164062 277.6796875 345.69921875 276.8671875 343.124023438 c 0
 285.295898438 336.782226562 291 326.748046875 291 316 c 0
 291 298 277 284 259 283 c 0
 258.05078125 283 255.022460938 282.889648438 250.313476562 282.688476562 c 1
 240.471679688 261.015625 227.33203125 231.919921875 209.89453125 192.541015625 c 1
 234.631835938 193.874023438 253.32421875 195 257 195 c 2
 258 196 l 1
 276 196 292 180 292 162 c 0
 292 144 278 130 260 129 c 0
 256.37109375 129 222.372070312 127.387695312 180.157226562 125.27734375 c 1
 163.684570312 87.9794921875 147.760742188 51.8154296875 133.704101562 19.4794921875 c 1
 137.716796875 19.64453125 141.821289062 19.818359375 146 20 c 0
 185 22 231 24 269 25 c 0
 287 25 303 9 303 -9 c 0
 303 -27 289 -41 270 -42 c 0
 266 -42 229 -43 183 -45 c 0
 158.392578125 -46.26171875 130.997070312 -47.5234375 104.583984375 -48.5341796875 c 1
 102.61328125 -53.2470703125 100.749023438 -57.7421875 99 -62 c 0
 95 -74 81 -83 68 -83 c 0
 50 -83 34 -67 34 -49 c 0
 34 -48.2421875 35.0107421875 -45.2705078125 36.896484375 -40.380859375 c 1
 30.27734375 -34.078125 26 -25.306640625 26 -16 c 0
 26 2 40 16 59 17 c 0
 59.3515625 17 59.9580078125 17.0078125 60.8037109375 17.0234375 c 0
 73.130859375 45.86328125 88.828125 82.0849609375 105.977539062 121.489257812 c 1
 89.3642578125 120.623046875 73.3203125 119.774414062 59 119 c 0
 41 119 26 135 26 153 c 0
 26 171 40 185 58 186 c 0
 63.0322265625 186 96.90234375 187.40625 135.424804688 189.040039062 c 1
 148.55078125 219.122070312 161.8828125 249.653320312 174.697265625 279.053710938 c 1
 136.469726562 277.13671875 92.294921875 274.853515625 58 273 c 0
 40 273 25 289 25 307 c 0
 25 325 39 339 57 340 c 0
EndSplineSet
EndChar

StartChar: uni2263
Encoding: 99 8803 99
Width: 328
Flags: HW
HStem: 447 20G<258 274>
VStem: 9 65<-107.515 -44.422> 234 65<402.216 463.515>
LayerCount: 2
Fore
SplineSet
58 123 m 0
 64 123 111 125 158 127 c 0
 205 129 251 132 257 132 c 1
 258 133 l 1
 276 133 292 117 292 99 c 0
 292 81 278 67 260 66 c 0
 253 66 133 60 59 56 c 0
 41 56 26 72 26 90 c 0
 26 108 40 122 58 123 c 0
60 -50 m 0
 42 -50 26 -34 26 -16 c 0
 26 2 40 16 59 17 c 0
 63 17 100 18 146 20 c 0
 185 22 231 24 269 25 c 0
 287 25 303 9 303 -9 c 0
 303 -27 289 -41 270 -42 c 0
 266 -42 229 -43 183 -45 c 0
 144 -47 98 -49 60 -50 c 0
57 340 m 0
 63 340 110 342 157 344 c 0
 204 346 250 349 256 349 c 1
 257 350 l 1
 275 350 291 334 291 316 c 0
 291 298 277 284 259 283 c 0
 252 283 132 277 58 273 c 0
 40 273 25 289 25 307 c 0
 25 325 39 339 57 340 c 0
58 231 m 0
 64 231 111 233 158 235 c 0
 205 237 251 240 257 240 c 1
 258 241 l 1
 276 241 292 225 292 207 c 0
 292 189 278 175 260 174 c 0
 253 174 133 168 59 164 c 0
 41 164 26 180 26 198 c 0
 26 216 40 230 58 231 c 0
EndSplineSet
EndChar

StartChar: lessequal
Encoding: 100 8804 100
Width: 314
Flags: HW
LayerCount: 2
Fore
SplineSet
25 39.9462890625 m 4
 25 58.4375 40.01171875 73.44921875 58.5029296875 73.44921875 c 4
 63.8740234375 73.44921875 68.951171875 72.1826171875 73.453125 69.931640625 c 4
 140.013671875 36.6513671875 196.604492188 14.6640625 264.950195312 -19.51171875 c 4
 275.9453125 -25.009765625 283.502929688 -36.3779296875 283.502929688 -49.4970703125 c 4
 283.502929688 -67.98828125 268.491210938 -83 250 -83 c 4
 244.62890625 -83 239.553710938 -81.7275390625 234.984375 -79.443359375 c 4
 173.150390625 -48.5263671875 107.122070312 -21.7802734375 43.4873046875 10 c 4
 32.556640625 15.458984375 25 26.8271484375 25 39.9462890625 c 4
256 349 m 0
 274 349 289 334 289 316 c 0
 289 304 283 293 274 287 c 0
 247 269 217 253 189 239 c 0
 158 223 129 208 110 193 c 1
 122 177 148 162 212 133 c 0
 268 108 274 103 274 82 c 0
 274 64 259 49 241 49 c 0
 224 49 117 100 84 125 c 0
 55 146 40 171 40 198 c 0
 40 231 59 247 164 303 c 0
 183 313 196 320 217 332 c 0
 242 347 247 349 256 349 c 0
EndSplineSet
EndChar

StartChar: greaterequal
Encoding: 101 8805 101
Width: 307
Flags: HW
LayerCount: 2
Fore
SplineSet
58.505859375 -83 m 4
 40.013671875 -83 25 -67.986328125 25 -49.494140625 c 4
 25 -35.0302734375 34.1865234375 -22.7001953125 47.0634765625 -17.99609375 c 4
 48.958984375 -17.3037109375 236.002929688 83.421875 237.500976562 83.96875 c 4
 241.080078125 85.275390625 244.944335938 85.9873046875 248.97265625 85.9873046875 c 4
 267.465820312 85.9873046875 282.479492188 70.9736328125 282.479492188 52.4814453125 c 4
 282.479492188 38.017578125 273.2890625 25.69921875 260.440429688 21.005859375 c 4
 258.544921875 20.3134765625 71.5 -80.4072265625 70.0029296875 -80.958984375 c 4
 66.3984375 -82.287109375 62.53515625 -83 58.505859375 -83 c 4
47.505859375 82 m 0
 47.505859375 107 85.505859375 131 123.505859375 155 c 0
 152.505859375 173 182.505859375 192 196.505859375 212 c 1
 179.505859375 225 154.505859375 238 127.505859375 251 c 0
 104.505859375 262 80.505859375 274 60.505859375 287 c 0
 51.505859375 292 45.505859375 304 45.505859375 316 c 0
 45.505859375 334 60.505859375 349 78.505859375 349 c 0
 87.505859375 349 89.505859375 348 99.505859375 342 c 0
 109.505859375 336 125.505859375 326 162.505859375 308 c 0
 247.505859375 265 266.505859375 249 266.505859375 216 c 0
 266.505859375 178 242.505859375 152 159.505859375 98 c 0
 152.505859375 94 144.505859375 88 135.505859375 81 c 0
 116.505859375 66 93.505859375 49 80.505859375 49 c 0
 62.505859375 49 47.505859375 64 47.505859375 82 c 0
EndSplineSet
EndChar

StartChar: uni2266
Encoding: 102 8806 102
Width: 327
Flags: HW
HStem: 37 67<32.4854 270.213> 45 67<188.15 302.515> 173 67<33.44 159.797> 183 61<66.5018 261 262 293.219>
VStem: 29 277<48.4478 100.552>
LayerCount: 2
Fore
SplineSet
255 451 m 4
 273 451 288 436 288 418 c 4
 288 406 282 395 273 389 c 4
 246 371 216 355 188 341 c 4
 157 325 128 310 109 295 c 5
 121 279 147 264 211 235 c 4
 267 210 273 205 273 184 c 4
 273 166 258 151 240 151 c 4
 223 151 116 202 83 227 c 4
 54 248 39 273 39 300 c 4
 39 333 58 349 163 405 c 4
 182 415 195 422 216 434 c 4
 241 449 246 451 255 451 c 4
59 -103 m 0
 41 -103 25 -87 25 -69 c 0
 25 -51 39 -37 58 -36 c 0
 62 -36 99 -35 145 -33 c 0
 184 -31 230 -29 268 -28 c 0
 286 -28 302 -44 302 -62 c 0
 302 -80 288 -94 269 -95 c 0
 265 -95 228 -96 182 -98 c 0
 143 -100 97 -102 59 -103 c 0
58 100 m 0
 64 100 111 102 158 104 c 0
 205 106 251 109 257 109 c 1
 258 110 l 1
 276 110 292 94 292 76 c 0
 292 58 278 44 260 43 c 0
 253 43 133 37 59 33 c 0
 41 33 26 49 26 67 c 0
 26 85 40 99 58 100 c 0
EndSplineSet
EndChar

StartChar: uni2267
Encoding: 103 8807 103
Width: 327
Flags: HW
HStem: 0 21G<55 70.5> 280 20G<53 66.5>
VStem: 31 219
LayerCount: 2
Fore
SplineSet
59 -103 m 0
 41 -103 25 -87 25 -69 c 0
 25 -51 39 -37 58 -36 c 0
 62 -36 99 -35 145 -33 c 0
 184 -31 230 -29 268 -28 c 0
 286 -28 302 -44 302 -62 c 0
 302 -80 288 -94 269 -95 c 0
 265 -95 228 -96 182 -98 c 0
 143 -100 97 -102 59 -103 c 0
58 100 m 0
 64 100 111 102 158 104 c 0
 205 106 251 109 257 109 c 1
 258 110 l 1
 276 110 292 94 292 76 c 0
 292 58 278 44 260 43 c 0
 253 43 133 37 59 33 c 0
 41 33 26 49 26 67 c 0
 26 85 40 99 58 100 c 0
51 166 m 0
 51 191 89 215 127 239 c 0
 156 257 186 276 200 296 c 1
 183 309 158 322 131 335 c 0
 108 346 84 358 64 371 c 0
 55 376 49 388 49 400 c 0
 49 418 64 433 82 433 c 0
 91 433 93 432 103 426 c 0
 113 420 129 410 166 392 c 0
 251 349 270 333 270 300 c 0
 270 262 246 236 163 182 c 0
 156 178 148 172 139 165 c 0
 120 150 97 133 84 133 c 0
 66 133 51 148 51 166 c 0
EndSplineSet
EndChar

StartChar: uni2268
Encoding: 104 8808 104
Width: 327
Flags: HW
HStem: 447 20G<278 294>
VStem: 29 65<-107.515 -44.422> 254 65<402.216 463.515>
LayerCount: 2
Fore
SplineSet
255 451 m 0
 273 451 288 436 288 418 c 0
 288 406 282 395 273 389 c 0
 246 371 216 355 188 341 c 0
 157 325 128 310 109 295 c 1
 121 279 147 264 211 235 c 0
 267 210 273 205 273 184 c 0
 273 166 258 151 240 151 c 0
 223 151 116 202 83 227 c 0
 54 248 39 273 39 300 c 0
 39 333 58 349 163 405 c 0
 182 415 195 422 216 434 c 0
 241 449 246 451 255 451 c 0
59 -103 m 0
 41 -103 25 -87 25 -69 c 0
 25 -51 39 -37 58 -36 c 0
 61.017578125 -36 82.8203125 -35.4306640625 113.099609375 -34.2919921875 c 1
 118.709960938 -21.787109375 124.46875 -8.98828125 130.134765625 3.5849609375 c 1
 106.149414062 2.349609375 82.3369140625 1.099609375 62 0 c 0
 44 0 29 16 29 34 c 0
 29 52 43 66 61 67 c 0
 66.9814453125 67 113.709960938 68.9873046875 160.563476562 70.9814453125 c 1
 170.78515625 93.603515625 177.946289062 109.470703125 179 112 c 0
 184 124 196 132 210 132 c 0
 228 132 244 116 244 98 c 0
 244 96.4306640625 240.610351562 87.853515625 235.016601562 74.755859375 c 1
 248.30078125 75.4921875 257.532226562 76 260 76 c 2
 261 77 l 1
 279 77 295 61 295 43 c 0
 295 25 281 11 263 10 c 0
 260.02734375 10 236.681640625 8.91796875 205.133789062 7.3671875 c 1
 199.502929688 -5.1015625 193.620117188 -18.0576171875 187.748046875 -30.9482421875 c 1
 215.129882812 -29.7255859375 243.260742188 -28.6513671875 268 -28 c 0
 286 -28 302 -44 302 -62 c 0
 302 -80 288 -94 269 -95 c 0
 265 -95 228 -96 182 -98 c 0
 173.76953125 -98.421875 165.227539062 -98.84375 156.514648438 -99.2568359375 c 1
 143.140625 -128.443359375 133.524414062 -149.428710938 133 -151 c 0
 129 -163 115 -172 102 -172 c 0
 84 -172 68 -156 68 -138 c 0
 68 -136.665039062 73.84375 -122.828125 82.8515625 -102.28125 c 1
 74.658203125 -102.555664062 66.666015625 -102.797851562 59 -103 c 0
EndSplineSet
EndChar

StartChar: uni2269
Encoding: 105 8809 105
Width: 327
Flags: HW
HStem: 0 21G<62 77.5> 280 20G<60 73.5>
VStem: 38 219
LayerCount: 2
Fore
SplineSet
58 166 m 0
 58 191 96 215 134 239 c 0
 163 257 193 276 207 296 c 1
 190 309 165 322 138 335 c 0
 115 346 91 358 71 371 c 0
 62 376 56 388 56 400 c 0
 56 418 71 433 89 433 c 0
 98 433 100 432 110 426 c 0
 120 420 136 410 173 392 c 0
 258 349 277 333 277 300 c 0
 277 262 253 236 170 182 c 0
 163 178 155 172 146 165 c 0
 127 150 104 133 91 133 c 0
 73 133 58 148 58 166 c 0
59 -102 m 0
 41 -102 25 -86 25 -68 c 0
 25 -50 39 -36 58 -35 c 0
 61.017578125 -35 82.8203125 -34.4306640625 113.099609375 -33.2919921875 c 1
 118.709960938 -20.787109375 124.46875 -7.98828125 130.134765625 4.5849609375 c 1
 106.149414062 3.349609375 82.3369140625 2.099609375 62 1 c 0
 44 1 29 17 29 35 c 0
 29 53 43 67 61 68 c 0
 66.9814453125 68 113.708984375 69.9873046875 160.563476562 71.9814453125 c 1
 170.78515625 94.603515625 177.946289062 110.470703125 179 113 c 0
 184 125 196 133 210 133 c 0
 228 133 244 117 244 99 c 0
 244 97.4306640625 240.610351562 88.853515625 235.016601562 75.755859375 c 1
 248.30078125 76.4921875 257.532226562 77 260 77 c 2
 261 78 l 1
 279 78 295 62 295 44 c 0
 295 26 281 12 263 11 c 0
 260.02734375 11 236.681640625 9.91796875 205.133789062 8.3671875 c 1
 199.502929688 -4.1015625 193.620117188 -17.0576171875 187.748046875 -29.9482421875 c 1
 215.129882812 -28.7255859375 243.260742188 -27.6513671875 268 -27 c 0
 286 -27 302 -43 302 -61 c 0
 302 -79 288 -93 269 -94 c 0
 265 -94 228 -95 182 -97 c 0
 173.76953125 -97.421875 165.227539062 -97.84375 156.514648438 -98.2568359375 c 1
 143.140625 -127.443359375 133.524414062 -148.428710938 133 -150 c 0
 129 -162 115 -171 102 -171 c 0
 84 -171 68 -155 68 -137 c 0
 68 -135.665039062 73.84375 -121.828125 82.8515625 -101.28125 c 1
 74.6572265625 -101.555664062 66.666015625 -101.797851562 59 -102 c 0
EndSplineSet
EndChar

StartChar: uni226A
Encoding: 106 8810 106
Width: 543
Flags: HW
HStem: 0 84<174.734 237.53 418.734 481.53> 280 20G<236.5 250 483 494>
LayerCount: 2
Fore
SplineSet
241 300 m 4
 259 300 274 285 274 267 c 4
 274 255 268 244 259 238 c 4
 232 220 202 204 174 190 c 4
 143 174 114 159 95 144 c 5
 107 128 133 113 197 84 c 4
 253 59 259 54 259 33 c 4
 259 15 244 0 226 0 c 4
 209 0 102 51 69 76 c 4
 40 97 25 122 25 149 c 4
 25 182 44 198 149 254 c 4
 168 264 181 271 202 283 c 4
 227 298 232 300 241 300 c 4
485 300 m 0
 503 300 518 285 518 267 c 0
 518 255 512 244 503 238 c 0
 476 220 446 204 418 190 c 0
 387 174 358 159 339 144 c 1
 351 128 377 113 441 84 c 0
 497 59 503 54 503 33 c 0
 503 15 488 0 470 0 c 0
 453 0 346 51 313 76 c 0
 284 97 269 122 269 149 c 0
 269 182 288 198 393 254 c 0
 411 263 411 263 467 295 c 0
 475 298 481 300 485 300 c 0
EndSplineSet
EndChar

StartChar: uni226B
Encoding: 107 8811 107
Width: 492
Flags: HW
HStem: 0 21G<51 66.5 272 287.5> 202 98<68.1282 100.375 289.128 321.375>
LayerCount: 2
Fore
SplineSet
248 33 m 4
 248 58 286 82 324 106 c 4
 353 124 383 143 397 163 c 5
 380 176 355 189 328 202 c 4
 305 213 281 225 261 238 c 4
 252 243 246 255 246 267 c 4
 246 285 261 300 279 300 c 4
 288 300 290 299 300 293 c 4
 310 287 326 277 363 259 c 4
 448 216 467 200 467 167 c 4
 467 129 443 103 360 49 c 4
 353 45 345 39 336 32 c 4
 317 17 294 0 281 0 c 4
 263 0 248 15 248 33 c 4
27 33 m 0
 27 58 65 82 103 106 c 0
 132 124 162 143 176 163 c 1
 159 176 134 189 107 202 c 0
 84 213 60 225 40 238 c 0
 31 243 25 255 25 267 c 0
 25 285 40 300 58 300 c 0
 67 300 69 299 79 293 c 0
 89 287 105 277 142 259 c 0
 227 216 246 200 246 167 c 0
 246 129 222 103 139 49 c 0
 132 45 124 39 115 32 c 0
 96 17 73 0 60 0 c 0
 42 0 27 15 27 33 c 0
EndSplineSet
EndChar

StartChar: uni226C
Encoding: 108 8812 108
Width: 319
VWidth: 0
Flags: HW
LayerCount: 2
Fore
SplineSet
174.0859375 96.6728515625 m 1
 191.825195312 125.140625 221.888671875 175.813476562 226.655273438 199.580078125 c 0
 226.655273438 199.599609375 226.661132812 199.64453125 226.661132812 199.745117188 c 0
 226.661132812 204.909179688 219.021484375 222.088867188 191.541992188 244.856445312 c 1
 185.22265625 234.373046875 166.9609375 204.076171875 166.9609375 143.471679688 c 0
 166.9609375 126.057617188 169.400390625 110.80078125 174.0859375 96.6728515625 c 1
99.9609375 143.471679688 m 0
 99.9609375 162.685546875 99.9609375 223.69140625 135.391601562 281.533203125 c 1
 110.2890625 294.822265625 80.9892578125 307.145507812 48.763671875 316.942382812 c 0
 35.0146484375 321.107421875 25 333.890625 25 348.994140625 c 0
 25 367.486328125 40.013671875 382.5 58.5068359375 382.5 c 0
 61.896484375 382.5 65.1689453125 381.99609375 68.25390625 381.057617188 c 0
 108.948242188 368.6875 145.765625 352.881835938 177.369140625 335.095703125 c 1
 189.01953125 347.532226562 201.685546875 359.94140625 215.189453125 373.041992188 c 0
 221.220703125 378.893554688 229.4453125 382.498046875 238.50390625 382.498046875 c 0
 256.989257812 382.498046875 271.997070312 367.490234375 271.997070312 349.004882812 c 0
 271.997070312 339.578125 268.094726562 331.055664062 261.833007812 324.962890625 c 0
 251.481445312 314.919921875 242.120117188 305.666992188 233.690429688 296.9296875 c 1
 259.120117188 275.935546875 293.661132812 240.650390625 293.661132812 199.745117188 c 0
 293.661132812 176.853515625 280.549804688 137.330078125 213.127929688 33.1982421875 c 1
 224.223632812 20.3828125 224.223632812 20.3828125 270.37890625 -26.5048828125 c 0
 276.325195312 -32.564453125 280 -40.8603515625 280 -50.0078125 c 0
 280 -68.4931640625 264.9921875 -83.5009765625 246.506835938 -83.5009765625 c 0
 237.16796875 -83.5009765625 228.717773438 -79.6708984375 222.640625 -73.498046875 c 0
 182.025390625 -32.23828125 182.025390625 -32.23828125 174.799804688 -24.3896484375 c 1
 164.635742188 -39.3271484375 154.310546875 -54.2978515625 143.997070312 -69.142578125 c 0
 137.9453125 -77.8525390625 127.868164062 -83.5595703125 116.46875 -83.5595703125 c 0
 97.98046875 -83.5595703125 82.9716796875 -68.55078125 82.9716796875 -50.0625 c 0
 82.9716796875 -42.9755859375 85.177734375 -36.3984375 88.9775390625 -30.9189453125 c 0
 103.32421875 -10.267578125 117.739257812 10.7109375 131.568359375 31.298828125 c 1
 112.493164062 62.5869140625 99.9609375 98.505859375 99.9609375 143.471679688 c 0
EndSplineSet
EndChar

StartChar: uni226D
Encoding: 109 8813 109
Width: 401
VWidth: 0
Flags: HW
HStem: 447 20G<274 290>
VStem: 25 65<-107.515 -44.422> 250 65<402.216 463.515>
LayerCount: 2
Fore
SplineSet
40.19921875 238.94140625 m 0
 40.19921875 239.260742188 25 247.545898438 25 267.001953125 c 0
 25 285.489257812 40.009765625 300.5 58.498046875 300.5 c 0
 69.4521484375 300.5 73.1630859375 298.6015625 110.305664062 271.637695312 c 0
 139.208514801 250.656138525 159.790440801 235.714098078 194.081141597 233.656221403 c 1
 200.424343676 248.154204327 206.754794484 262.652838583 213 277 c 0
 250 362 241 348 247 363 c 0
 252 375 264 383 278 383 c 0
 296 383 312 367 312 349 c 0
 312 343.290828231 304.585017539 322.188956109 283.955494557 273.124062773 c 1
 290.119954032 278.698753628 296.565210441 284.781075424 303.466796875 291.319335938 c 0
 309.471679688 297.0078125 317.577148438 300.498046875 326.493164062 300.498046875 c 0
 344.978515625 300.498046875 359.986328125 285.490234375 359.986328125 267.004882812 c 0
 359.986328125 262.646484375 359.986328125 252.592773438 347.967773438 241.203125 c 0
 319.596613873 214.316589581 286.860877685 182.321953133 239.655633047 170.809851483 c 0
 237.813007679 166.630436339 235.928053398 162.361042308 234 158 c 0
 230.142371761 149.274412316 226.369104608 140.768163457 222.679423699 132.471180474 c 1
 285.473590038 126.45479451 322.70002278 94.828520107 364.565429688 58.1962890625 c 0
 371.584960938 52.0546875 376.020507812 43.0322265625 376.020507812 32.982421875 c 0
 376.020507812 14.4970703125 361.01171875 -0.51171875 342.526367188 -0.51171875 c 0
 334.08984375 -0.51171875 326.37890625 2.6142578125 320.454101562 7.7822265625 c 0
 271.486328125 50.6279296875 248.046875 66.5 200.497070312 66.5 c 0
 197.993946132 66.5 195.531681818 66.4323790658 193.106575106 66.2978037392 c 0
 170.469353821 15.7715425598 151.857006132 -25.8264198413 137 -62 c 0
 133 -74 119 -83 106 -83 c 0
 88 -83 72 -67 72 -49 c 0
 72 -46.2856650131 83.3111735031 -19.3784312853 100.996209492 21.3610630414 c 1
 96.6984035422 17.4804393216 92.3356047042 13.3637668624 87.876953125 9.0166015625 c 0
 81.826171875 3.134765625 73.5771484375 -0.4931640625 64.48828125 -0.4931640625 c 0
 46.0029296875 -0.4931640625 30.994140625 14.5146484375 30.994140625 33 c 0
 30.994140625 42.396484375 34.8720703125 50.89453125 41.11328125 56.9794921875 c 0
 71.1348130001 86.2499956907 104.752774953 112.871210883 146.650776153 125.604417674 c 1
 152.955358695 139.946401909 159.45320265 154.724814455 166.0576109 169.757726833 c 1
 125.920652968 177.517456546 98.2621274489 197.596379537 71.0048828125 217.383789062 c 0
 61.18359375 224.513671875 51.2373046875 231.723632812 40.19921875 238.94140625 c 0
EndSplineSet
EndChar

StartChar: uni226E
Encoding: 110 8814 110
Width: 299
Flags: HW
HStem: 447 20G<274 290>
VStem: 25 65<-107.515 -44.422> 250 65<402.216 463.515>
LayerCount: 2
Fore
SplineSet
234 383 m 0
 252 383 268 367 268 349 c 0
 268 344.396484375 263.178710938 329.783203125 250.494140625 298.5703125 c 1
 263.981445312 294.41796875 274 281.7109375 274 267 c 0
 274 255 268 244 259 238 c 0
 244.288085938 228.192382812 228.685546875 218.977539062 213.000976562 210.357421875 c 1
 206.123046875 194.58203125 198.478515625 177.177734375 190 158 c 0
 180.833984375 137.267578125 172.14453125 117.772460938 163.919921875 99.3818359375 c 1
 173.637695312 94.70703125 184.606445312 89.6162109375 197 84 c 0
 253 59 259 54 259 33 c 0
 259 15 244 0 226 0 c 0
 216.010742188 0 174.94921875 17.6083984375 136.084960938 37.203125 c 1
 119.219726562 -0.548828125 104.904296875 -33.015625 93 -62 c 0
 89 -74 75 -83 62 -83 c 0
 44 -83 28 -67 28 -49 c 0
 28 -45.3193359375 48.796875 2.841796875 78.0810546875 69.6552734375 c 1
 74.6494140625 71.90625 71.595703125 74.033203125 69 76 c 0
 40 97 25 122 25 149 c 0
 25 182 44 198 149 254 c 0
 153.609375 256.42578125 157.865234375 258.674804688 161.967773438 260.862304688 c 0
 164.321289062 266.256835938 166.666015625 271.638671875 169 277 c 0
 206 362 197 348 203 363 c 0
 208 375 220 383 234 383 c 0
117.459960938 159.294921875 m 1
 109.032226562 154.170898438 101.44140625 149.084960938 95 144 c 1
 97.771484375 140.303710938 101.291015625 136.662109375 105.852539062 132.887695312 c 1
 109.6640625 141.557617188 113.5390625 150.373046875 117.459960938 159.294921875 c 1
EndSplineSet
EndChar

StartChar: uni226F
Encoding: 111 8815 111
Width: 290
Flags: HW
HStem: 0 21G<62 77.5> 280 20G<60 73.5>
VStem: 38 219
LayerCount: 2
Fore
SplineSet
231 383 m 0
 249 383 265 367 265 349 c 0
 265 341.673828125 252.7890625 309 216.11328125 224.415039062 c 1
 248.259765625 203.944335938 257 189.3828125 257 167 c 0
 257 129 233 103 150 49 c 0
 144.9375 46.107421875 139.353515625 42.1689453125 133.245117188 37.5625 c 0
 116.310546875 -0.3427734375 101.942382812 -32.923828125 90 -62 c 0
 86 -74 72 -83 59 -83 c 0
 41 -83 25 -67 25 -49 c 0
 25 -46.572265625 34.046875 -24.794921875 48.6083984375 8.9208984375 c 1
 42.1103515625 14.9775390625 38 23.578125 38 33 c 0
 38 50.7451171875 57.146484375 67.9873046875 81.84765625 85.0830078125 c 1
 96.7490234375 119.033203125 113.455078125 156.971679688 130.529296875 195.884765625 c 1
 126.41796875 197.923828125 122.233398438 199.961914062 118 202 c 0
 95 213 71 225 51 238 c 0
 42 243 36 255 36 267 c 0
 36 285 51 300 69 300 c 0
 78 300 80 299 90 293 c 0
 100 287 116 277 153 259 c 0
 154.42578125 258.279296875 155.83203125 257.565429688 157.220703125 256.859375 c 1
 160.161132812 263.595703125 163.08984375 270.314453125 166 277 c 0
 203 362 194 348 200 363 c 0
 205 375 217 383 231 383 c 0
EndSplineSet
EndChar

StartChar: uni2270
Encoding: 112 8816 112
Width: 378
VWidth: 0
Flags: HW
HStem: 447 20G<312 328>
VStem: 63 65<-107.515 -44.422> 288 65<402.216 463.515>
LayerCount: 2
Fore
SplineSet
70.99609375 32.9970703125 m 0
 70.99609375 51.48828125 86.0078125 66.5 104.499023438 66.5 c 0
 109.870117188 66.5 114.947265625 65.2333984375 119.44921875 62.982421875 c 0
 120.13671875 62.638671875 120.822265625 62.296875 121.504882812 61.9560546875 c 1
 128.72265625 78.609375 136.0390625 95.470703125 143.336914062 112.275390625 c 1
 114.018554688 128.72265625 87.814453125 146.262695312 74.43359375 165.62890625 c 0
 68.3388671875 174.448242188 63 185.991210938 63 200 c 0
 63 244.772460938 106.470703125 272.493164062 162.358398438 308.131835938 c 0
 193.241210938 327.825195312 226.49609375 349.203125 254.176757812 373.970703125 c 0
 255.484375 375.137695312 256.8828125 376.203125 258.358398438 377.15625 c 0
 273.768554688 412.98828125 284.642578125 438.60546875 288 447 c 0
 293 459 305 467 319 467 c 0
 337 467 353 451 353 433 c 0
 353 424 295.573242188 292.748046875 236 158 c 0
 233.872070312 153.185546875 231.643554688 148.138671875 229.327148438 142.885742188 c 1
 256.865234375 128.399414062 284.265625 113.067382812 303.912109375 96.7568359375 c 0
 311.315429688 90.6103515625 316.032226562 81.33984375 316.032226562 70.9755859375 c 0
 316.032226562 52.4892578125 301.024414062 37.48046875 282.538085938 37.48046875 c 0
 274.416015625 37.48046875 266.965820312 40.3779296875 261.122070312 45.21484375 c 0
 246.858398438 57.0556640625 225.572265625 68.9140625 202.21484375 81.1630859375 c 1
 195.482421875 65.787109375 188.495117188 49.80078125 181.434570312 33.61328125 c 1
 218.453125 16.880859375 252.529296875 2.4423828125 297.516601562 -20.05078125 c 0
 308.51171875 -25.548828125 316.069335938 -36.9169921875 316.069335938 -50.0361328125 c 0
 316.069335938 -68.52734375 301.057617188 -83.5390625 282.56640625 -83.5390625 c 0
 277.1953125 -83.5390625 272.1171875 -82.2724609375 267.55078125 -79.982421875 c 0
 227.926757812 -60.169921875 192.088867188 -44.7158203125 154.71484375 -27.798828125 c 1
 126.79296875 -92.1455078125 101.342773438 -151.381835938 90 -179 c 0
 86 -191 72 -200 59 -200 c 0
 41 -200 25 -184 25 -166 c 0
 25 -162.513671875 55.8095703125 -90.1064453125 94.865234375 0.3740234375 c 0
 93.080078125 1.2578125 91.2861328125 2.1494140625 89.4833984375 3.05078125 c 0
 78.552734375 8.509765625 70.99609375 19.8779296875 70.99609375 32.9970703125 c 0
206.07421875 256.498046875 m 1
 171.537109375 234.416015625 142.489257812 216.73046875 131.482421875 201.384765625 c 1
 139.768554688 192.658203125 153.596679688 183.600585938 170.239257812 174.166992188 c 1
 182.946289062 203.376953125 195.119140625 231.334960938 206.07421875 256.498046875 c 1
EndSplineSet
EndChar

StartChar: uni2271
Encoding: 113 8817 113
Width: 382
VWidth: 0
Flags: HW
HStem: 447 20G<316 332>
VStem: 67 65<-107.515 -44.422> 292 65<402.216 463.515>
LayerCount: 2
Fore
SplineSet
90.994140625 349.06640625 m 0
 90.994140625 367.5546875 106.00390625 382.564453125 124.491210938 382.564453125 c 0
 136.123046875 382.564453125 146.376953125 376.624023438 152.426757812 367.548828125 c 0
 176.133789062 331.98828125 202.770507812 311.7734375 227.4609375 296.455078125 c 1
 260.501953125 372.509765625 286.46484375 433.161132812 292 447 c 0
 297 459 309 467 323 467 c 0
 341 467 357 451 357 433 c 0
 357 426.334960938 325.509765625 352.633789062 284.9765625 260.116210938 c 0
 286.770507812 258.591796875 288.499023438 257.021484375 290.155273438 255.393554688 c 0
 300.451171875 245.275390625 310.038085938 229.545898438 310.038085938 210.5234375 c 0
 310.038085938 193.740234375 304.506835938 165.919921875 274.046875 139.944335938 c 0
 257.419921875 125.764648438 237.623046875 114.627929688 215.79296875 103.6953125 c 1
 203.361328125 75.955078125 189.552734375 45.291015625 175.690429688 14.4873046875 c 1
 225.4375 32.2880859375 278.26953125 51.1923828125 279.063476562 51.4814453125 c 0
 282.642578125 52.7880859375 286.506835938 53.5 290.53515625 53.5 c 0
 309.028320312 53.5 324.041992188 38.486328125 324.041992188 19.994140625 c 0
 324.041992188 5.5302734375 314.857421875 -6.8046875 302.002929688 -11.4814453125 c 0
 300.540039062 -12.015625 189.1328125 -51.8759765625 137.610351562 -70.314453125 c 1
 116.598632812 -117.29296875 98.78125 -157.620117188 90 -179 c 0
 86 -191 72 -200 59 -200 c 0
 41 -200 25 -184 25 -166 c 0
 25 -163.353515625 43.326171875 -120.989257812 69.6767578125 -61.1513671875 c 0
 67.9541015625 -57.1171875 67 -52.677734375 67 -48.0166015625 c 0
 67 -33.552734375 76.1845703125 -21.2177734375 89.0634765625 -16.5185546875 c 0
 89.1044921875 -16.50390625 89.23046875 -16.4580078125 89.4384765625 -16.3837890625 c 0
 99.875 7.2138671875 111.009765625 32.3388671875 122.389648438 58.0107421875 c 1
 120.487304688 57.6748046875 118.53125 57.5 116.533203125 57.5 c 0
 98.0439453125 57.5 83.0322265625 72.5107421875 83.0322265625 91.0009765625 c 0
 83.0322265625 103.458007812 89.8466796875 114.336914062 99.9482421875 120.107421875 c 0
 121.6875 132.530273438 144.1171875 143.354492188 164.619140625 153.337890625 c 1
 177.127929688 181.616210938 189.252929688 209.088867188 200.37890625 234.426757812 c 1
 169.815429688 252.826171875 129.701171875 280.859375 96.6396484375 330.451171875 c 0
 93.05859375 335.831054688 90.994140625 342.208984375 90.994140625 349.06640625 c 0
EndSplineSet
EndChar

StartChar: uni2272
Encoding: 114 8818 114
Width: 432
Flags: HW
HStem: 133 67<161.495 230.204>
LayerCount: 2
Fore
SplineSet
287 383 m 0
 305 383 320 368 320 350 c 0
 320 338 314 327 305 321 c 0
 278 303 248 287 220 273 c 0
 189 257 160 242 141 227 c 1
 153 211 179 196 243 167 c 0
 299 142 305 137 305 116 c 0
 305 98 290 83 272 83 c 0
 255 83 148 134 115 159 c 0
 86 180 71 205 71 232 c 0
 71 265 90 281 195 337 c 0
 214 347 227 354 248 366 c 0
 273 381 278 383 287 383 c 0
257 -83 m 0
 230 -83 216 -61 202 -39 c 0
 188 -17 175 5 148 5 c 0
 127 5 115 -15 103 -36 c 0
 91 -57 79 -78 58 -78 c 0
 40 -78 25 -63 25 -45 c 0
 25 -35 30 -24 40 -10 c 0
 41 -10 41 -10 41 -9 c 0
 78 52 105 72 148 72 c 0
 188 72 215 53 244 5 c 0
 250 -5 254 -11 258 -15 c 1
 297 -12 314 16 329 40 c 0
 341 60 352 78 373 78 c 0
 391 78 407 62 407 44 c 0
 407 32 401 25 395 17 c 0
 391 12 387 8 384 2 c 0
 344 -58 313 -79 261 -82 c 2
 259 -82 l 2
 258 -82 258 -82 257 -83 c 0
EndSplineSet
EndChar

